<svg xmlns="http://www.w3.org/2000/svg" width="20" height="21" viewBox="0 0 20 21">
    <g fill="none" fill-rule="evenodd">
        <g fill="#FFF">
            <g>
                <g>
                    <g>
                        <path d="M10 11.667c2.301 0 4.167 1.865 4.167 4.166V17.5c0 .46-.373.833-.834.833-.46 0-.833-.373-.833-.833v-1.667c0-1.38-1.12-2.5-2.5-2.5H4.167c-1.381 0-2.5 1.12-2.5 2.5V17.5c0 .46-.373.833-.834.833-.46 0-.833-.373-.833-.833v-1.667c0-2.3 1.865-4.166 4.167-4.166zm6.667-5.834c.46 0 .833.373.833.834v1.666h1.667c.425 0 .775.318.827.73l.006.104c0 .46-.373.833-.833.833H17.5v1.667c0 .425-.318.775-.729.827l-.104.006c-.46 0-.834-.373-.834-.833V10h-1.666c-.425 0-.776-.318-.827-.729l-.007-.104c0-.46.373-.834.834-.834h1.666V6.667c0-.425.318-.776.73-.827zM7.083 1.667c2.302 0 4.167 1.865 4.167 4.166C11.25 8.135 9.385 10 7.083 10c-2.3 0-4.166-1.865-4.166-4.167 0-2.3 1.865-4.166 4.166-4.166zm0 1.666c-1.38 0-2.5 1.12-2.5 2.5 0 1.381 1.12 2.5 2.5 2.5 1.381 0 2.5-1.119 2.5-2.5 0-1.38-1.119-2.5-2.5-2.5z" transform="translate(-1279 -131) translate(280 101) translate(983 20) translate(16 10.5)"/>
                    </g>
                </g>
            </g>
        </g>
    </g>
</svg>
