<svg xmlns="http://www.w3.org/2000/svg" width="20" height="20" viewBox="0 0 20 20">
    <g fill="#eb4b4b" fill-rule="evenodd">
        <g fill="#eb4b4b">
            <g>
                <g>
                    <g>
                        <g>
                            <path d="M11.667.833c1.38 0 2.5 1.12 2.5 2.5v.833H17.5c.425 0 .775.319.827.73l.006.104c0 .46-.373.833-.833.833h-.834v10.834c0 1.325-1.03 2.41-2.335 2.494l-.164.006H5.833c-1.38 0-2.5-1.12-2.5-2.5V5.833H2.5c-.425 0-.775-.318-.827-.728L1.667 5c0-.46.373-.833.833-.833h3.333v-.834C5.833 2.008 6.865.923 8.17.84l.164-.006zm3.333 5H5v10.834c0 .425.318.775.729.827l.104.006h8.334c.46 0 .833-.373.833-.833V5.833zm-6.667 2.5c.46 0 .834.373.834.834v5c0 .46-.373.833-.834.833-.46 0-.833-.373-.833-.833v-5c0-.46.373-.834.833-.834zm3.334 0c.46 0 .833.373.833.834v5c0 .46-.373.833-.833.833-.46 0-.834-.373-.834-.833v-5c0-.46.373-.834.834-.834zm0-5.833H8.333c-.46 0-.833.373-.833.833v.833h5v-.833c0-.425-.318-.775-.729-.827l-.104-.006z" transform="translate(-1330 -247) translate(280 101) translate(0 131) translate(978 15) translate(72)"/>
                        </g>
                    </g>
                </g>
            </g>
        </g>
    </g>
</svg>
