<svg xmlns="http://www.w3.org/2000/svg" width="20" height="20" viewBox="0 0 20 20">
    <g fill="none" fill-rule="evenodd">
        <g fill="#283747">
            <g>
                <g>
                    <g>
                        <g>
                            <path d="M3.333 13.679v2.988h2.988l10-10-2.988-2.988-10 10zM13.923 1.91l4.166 4.166c.326.326.326.853 0 1.179L7.256 18.089c-.156.157-.368.244-.59.244H2.5c-.46 0-.833-.373-.833-.833v-4.167c0-.22.087-.433.244-.589L12.744 1.911c.326-.326.853-.326 1.179 0z" transform="translate(-1294 -247) translate(280 101) translate(0 131) translate(978 15) translate(36)"/>
                        </g>
                    </g>
                </g>
            </g>
        </g>
    </g>
</svg>
