<svg xmlns="http://www.w3.org/2000/svg" width="24" height="24" viewBox="0 0 24 24">
    <g fill="none" fill-rule="evenodd">
        <g fill="#8A9FBA">
            <g>
                <g>
                    <g>
                        <path d="M12.574.18l10 7 .023.018c.015.01.029.022.043.034l.013.01.012.012.018.016.044.043c.033.035.064.073.092.114l-.07-.09.023.027.032.04.015.023.017.024c.013.02.026.04.037.062l.017.03.031.067c.007.015.013.03.018.046l.02.058.014.053c.009.039.016.077.02.116L23 8v12c0 1.598-1.249 2.904-2.824 2.995L20 23H4c-1.598 0-2.904-1.249-2.995-2.824L1 20V8c0-.08.01-.158.027-.232l.015-.054c.005-.02.012-.04.019-.058l.018-.046.031-.067c.02-.04.044-.078.07-.116l-.053.086c.013-.025.028-.05.044-.073l.01-.013.013-.02.026-.032.011-.015.023-.027.012-.012.027-.028.026-.025.019-.017.017-.015.02-.016.032-.025.02-.014 10-7c.344-.241.802-.241 1.147 0zM21 9.92l-8.426 5.9c-.345.24-.803.24-1.147 0L3 9.92v10.08c0 .512.386.935.883.992L4 21h16c.513 0 .936-.386.993-.883L21 20V9.92zm-9-7.7L3.744 8 12 13.78 20.255 8 12 2.22z" transform="translate(-935 -245) translate(280 101) translate(0 131) translate(655 13)"/>
                    </g>
                </g>
            </g>
        </g>
    </g>
</svg>
