<?xml version="1.0" encoding="UTF-8"?>
<svg width="20px" height="18px" viewBox="0 0 20 18" version="1.1" xmlns="http://www.w3.org/2000/svg" xmlns:xlink="http://www.w3.org/1999/xlink">
    <title>ic/analytics</title>
    <defs>
        <path d="M10.3725214,1.66666667 C11.2463791,1.66666667 12.0568143,2.12294832 12.5124109,2.87406077 L19.5775135,14.668903 C20.0217115,15.4381525 20.0243636,16.3853366 19.5844804,17.1570616 C19.1445971,17.9287866 18.3282485,18.4091402 17.4308548,18.4189533 L3.30502931,18.4189533 C2.41679434,18.4091402 1.6004457,17.9287866 1.16056247,17.1570616 C0.720679232,16.3853366 0.72333135,15.4381525 1.17429857,14.6573941 L8.23263191,2.87406077 C8.6882285,2.12294832 9.4986637,1.66666667 10.3725214,1.66666667 Z M10.3725214,3.33333333 C10.0818742,3.33333333 9.81227517,3.484761 9.66101683,3.73283989 L2.61084687,15.502337 C2.46278088,15.7587535 2.46189684,16.0744815 2.60852458,16.3317232 C2.75515233,16.5889649 3.02726854,16.7490827 3.31418809,16.752337 L17.421696,16.752337 C17.7177743,16.7490827 17.9898905,16.5889649 18.1365183,16.3317232 C18.283146,16.0744815 18.282262,15.7587535 18.1409652,15.5138459 L11.0850214,3.73447667 C10.9339524,3.48542722 10.6638073,3.33333333 10.3725214,3.33333333 Z M9.78326577,12.8296977 C10.1087027,12.5042608 10.6363402,12.5042608 10.9617771,12.8296977 C11.287214,13.1551346 11.287214,13.6827721 10.9617771,14.008209 C10.6363402,14.3336459 10.1087027,14.3336459 9.78326577,14.008209 C9.45782886,13.6827721 9.45782886,13.1551346 9.78326577,12.8296977 Z M10.3725214,6.75228667 C10.8327587,6.75228667 11.2058548,7.12538271 11.2058548,7.58562 L11.2058548,7.58562 L11.2058548,10.9189533 C11.2058548,11.3791906 10.8327587,11.7522867 10.3725214,11.7522867 C9.91228413,11.7522867 9.53918809,11.3791906 9.53918809,10.9189533 L9.53918809,10.9189533 L9.53918809,7.58562 C9.53918809,7.12538271 9.91228413,6.75228667 10.3725214,6.75228667 Z" id="path-1"></path>
    </defs>
    <g id="Symbols" stroke="none" stroke-width="1" fill="none" fill-rule="evenodd">
        <g id="input/textfield-Error" transform="translate(-198.000000, -35.000000)">
            <g id="input/textfield-copy" transform="translate(0.000000, 24.000000)">
                <g id="ic/analytics" transform="translate(198.000000, 10.000000)">
                    <mask id="mask-2" fill="white">
                        <use xlink:href="#path-1"></use>
                    </mask>
                    <use id="Combined-Shape" fill="#EB4B4B" xlink:href="#path-1"></use>
                </g>
            </g>
        </g>
    </g>
</svg>