<svg xmlns="http://www.w3.org/2000/svg" xmlns:xlink="http://www.w3.org/1999/xlink" width="121" height="80" viewBox="0 0 121 80">
    <defs>
        <path id="7tdwnoduua" d="M10.57 0l7.705 20.158c-2.393.915-4.99 1.416-7.705 1.416-3.84 0-7.446-1.003-10.57-2.762L5.746.562"/>
        <path id="muvfjc6y8d" d="M10.57 0l7.705 20.158c-2.392.915-4.99 1.416-7.704 1.416-3.84 0-7.447-1.003-10.571-2.763L5.746.562"/>
        <path id="eg0dehnn3g" d="M10.57 0l7.704 20.158c-2.392.915-4.99 1.416-7.704 1.416-3.84 0-7.446-1.003-10.57-2.762L5.746.562"/>
        <radialGradient id="sapepbytfb" cx="50%" cy="0%" r="100%" fx="50%" fy="0%">
            <stop offset="0%" stop-color="#2377FF" stop-opacity=".6"/>
            <stop offset="100%" stop-color="#2377FF" stop-opacity="0"/>
        </radialGradient>
        <radialGradient id="vkzcwah8ee" cx="50%" cy="0%" r="100.001%" fx="50%" fy="0%" gradientTransform="translate(0.500000,0.000000),scale(1.000000,0.999986),rotate(90.000000),translate(-0.500000,-0.000000)">
            <stop offset="0%" stop-color="#2377FF" stop-opacity=".6"/>
            <stop offset="100%" stop-color="#2377FF" stop-opacity="0"/>
        </radialGradient>
    </defs>
    <g fill="none" fill-rule="evenodd">
        <g>
            <g>
                <g>
                    <path fill="#F6F8FB" d="M0 13H120V67H0z" transform="translate(-969.000000, -350.000000) translate(907.000000, 327.000000) translate(62.993750, 23.000000)"/>
                    <g>
                        <g>
                            <path fill="#2377FF" d="M50.522 27.335c0 .81-.795 1.526-2.059 1.754-.301.054-.608.08-.91.08-1.379 0-2.693-.536-3.23-1.347C36.976 16.656 21.672 7.821 2.334 3.58.925 3.27 0 2.51 0 1.714c.001-.18.046-.354.139-.526C.534.46 1.775 0 3.176 0c.453 0 .92.048 1.382.15 21.05 4.616 37.709 14.233 45.705 26.387.125.191.204.385.239.575.013.075.02.149.02.223" transform="translate(-969.000000, -350.000000) translate(907.000000, 327.000000) translate(62.993750, 23.000000) translate(32.006250, 0.000000) translate(5.098383, 0.000000)"/>
                            <path fill="#3C4F6E" d="M48.463 73.692c-.301.055-.607.08-.91.08-1.378 0-2.693-.535-3.23-1.346-7.348-11.166-22.652-20.001-41.99-24.243-1.274-.281-2.156-.93-2.309-1.644-.016-.072-.024-.146-.024-.221v1.084c0 .075.008.15.024.223.153.712 1.035 1.362 2.308 1.642 19.34 4.242 34.643 13.078 41.992 24.243.536.812 1.85 1.347 3.229 1.347.303 0 .609-.025.91-.08 1.257-.227 2.05-.937 2.06-1.74v-1.085c-.01.804-.803 1.514-2.06 1.74M48.463 29.089c-.301.054-.607.08-.91.08-1.378 0-2.693-.536-3.23-1.347C36.976 16.656 21.672 7.821 2.334 3.58.925 3.27 0 2.51 0 1.714V2.8c0 .796.926 1.556 2.332 1.865 19.34 4.241 34.643 13.077 41.992 24.243.536.812 1.85 1.346 3.229 1.346.303 0 .609-.025.91-.08 1.264-.227 2.06-.944 2.06-1.753v-1.085c0 .81-.796 1.526-2.06 1.754" transform="translate(-969.000000, -350.000000) translate(907.000000, 327.000000) translate(62.993750, 23.000000) translate(32.006250, 0.000000) translate(5.098383, 0.000000)"/>
                            <path fill="#D8EFFF" d="M48.463 30.174c-.301.054-.607.08-.91.08-1.378 0-2.693-.536-3.23-1.347C36.976 17.74 21.672 8.905 2.334 4.663.925 4.355 0 3.594 0 2.8v43.519c0 .075.008.149.024.221.153.713 1.035 1.363 2.308 1.643 19.34 4.242 34.643 13.078 41.992 24.244.536.811 1.85 1.346 3.229 1.346.303 0 .609-.025.91-.08 1.257-.226 2.05-.936 2.06-1.74V28.42c0 .81-.796 1.526-2.06 1.754" transform="translate(-969.000000, -350.000000) translate(907.000000, 327.000000) translate(62.993750, 23.000000) translate(32.006250, 0.000000) translate(5.098383, 0.000000)"/>
                            <path fill="#FFF" stroke="#D8EFFF" stroke-width=".2" d="M48.463 39.024c-.301.055-.607.08-.91.08-1.378 0-2.693-.535-3.23-1.347-7.348-11.165-22.652-20-41.99-24.243C.925 13.206 0 12.446 0 11.65v27.015c0 .075.008.149.024.222.153.713 1.035 1.362 2.308 1.642 19.34 4.242 34.643 13.078 41.992 24.243.536.812 1.85 1.347 3.229 1.347.303 0 .609-.025.91-.08 1.257-.226 2.05-.936 2.06-1.74V37.27c0 .81-.796 1.527-2.06 1.754" transform="translate(-969.000000, -350.000000) translate(907.000000, 327.000000) translate(62.993750, 23.000000) translate(32.006250, 0.000000) translate(5.098383, 0.000000)"/>
                            <path fill="#86B5FD" d="M40.243 37.397C30.813 27.909 20.55 22.255 4.151 18.2v18.483c14.78 3.373 25.69 8.36 36.149 18.173l-.057-17.46z" transform="translate(-969.000000, -350.000000) translate(907.000000, 327.000000) translate(62.993750, 23.000000) translate(32.006250, 0.000000) translate(5.098383, 0.000000)"/>
                            <path fill="#376ABC" d="M23.835 6.098l-11.561.599-.502-.585 10.507-.782c.777-.093 1.445-.007 1.556.768M35.897 12.97l-11.56.6-.502-.585 10.507-.782c.777-.092 1.445-.006 1.555.768M45.357 19.934l-11.56.599-.502-.585 10.507-.782c.777-.092 1.446-.006 1.555.768" transform="translate(-969.000000, -350.000000) translate(907.000000, 327.000000) translate(62.993750, 23.000000) translate(32.006250, 0.000000) translate(5.098383, 0.000000)"/>
                        </g>
                        <g transform="translate(-969.000000, -350.000000) translate(907.000000, 327.000000) translate(62.993750, 23.000000) translate(32.006250, 0.000000) translate(18.917095, 13.999710)">
                            <mask id="y3ais06n0c" fill="#fff">
                                <use xlink:href="#7tdwnoduua"/>
                            </mask>
                            <path fill="url(#sapepbytfb)" d="M32.144 0c0 11.915-9.658 21.574-21.574 21.574-11.915 0-21.574-9.66-21.574-21.575 0-11.914 9.66-21.573 21.574-21.573 11.916 0 21.574 9.66 21.574 21.573" mask="url(#y3ais06n0c)"/>
                        </g>
                        <g transform="translate(-969.000000, -350.000000) translate(907.000000, 327.000000) translate(62.993750, 23.000000) translate(32.006250, 0.000000) translate(31.726201, 21.121152)">
                            <mask id="ys3c5stjcf" fill="#fff">
                                <use xlink:href="#muvfjc6y8d"/>
                            </mask>
                            <path fill="url(#vkzcwah8ee)" d="M32.144 0c0 11.915-9.658 21.574-21.573 21.574-11.915 0-21.575-9.66-21.575-21.574 0-11.915 9.66-21.574 21.575-21.574S32.144-11.914 32.144 0" mask="url(#ys3c5stjcf)"/>
                        </g>
                        <g transform="translate(-969.000000, -350.000000) translate(907.000000, 327.000000) translate(62.993750, 23.000000) translate(32.006250, 0.000000) translate(7.585642, 7.107151)">
                            <mask id="jfkbsmmn2h" fill="#fff">
                                <use xlink:href="#eg0dehnn3g"/>
                            </mask>
                            <path fill="url(#sapepbytfb)" d="M32.144 0c0 11.915-9.658 21.574-21.574 21.574-11.915 0-21.574-9.66-21.574-21.574 0-11.915 9.66-21.574 21.574-21.574 11.916 0 21.574 9.66 21.574 21.574" mask="url(#jfkbsmmn2h)"/>
                        </g>
                        <g>
                            <path fill="#376ABC" d="M19.728 3.037L16.83 4.71l-4.149-2.396V1.71c.395-.488 1.722-1.206 2.584-1.067l.246.04c.06.009 4.171 1.743 4.216 1.75.009 0 0 .605 0 .605" transform="translate(-969.000000, -350.000000) translate(907.000000, 327.000000) translate(62.993750, 23.000000) translate(32.006250, 0.000000) translate(0.000000, 5.329818)"/>
                            <path fill="#597ED9" d="M19.728 2.432L16.83 4.104 12.682 1.71l.905-1.056c.395-.488.817-.755 1.679-.616l.246.039.158.024c.025.004 4.058 2.332 4.058 2.332" transform="translate(-969.000000, -350.000000) translate(907.000000, 327.000000) translate(62.993750, 23.000000) translate(32.006250, 0.000000) translate(0.000000, 5.329818)"/>
                            <path fill="#96B3EB" d="M16.83 4.104s-.183-1.28.021-1.884c.205-.604.415-.728 1.047-.604.632.124 1.83.815 1.83.815L16.83 4.104z" transform="translate(-969.000000, -350.000000) translate(907.000000, 327.000000) translate(62.993750, 23.000000) translate(32.006250, 0.000000) translate(0.000000, 5.329818)"/>
                            <path fill="#376ABC" d="M31.71 9.954l-2.899 1.673-4.148-2.395v-.606c.395-.488 1.722-1.206 2.584-1.067l.246.039c.061.01 4.171 1.744 4.216 1.751.008 0 0 .605 0 .605" transform="translate(-969.000000, -350.000000) translate(907.000000, 327.000000) translate(62.993750, 23.000000) translate(32.006250, 0.000000) translate(0.000000, 5.329818)"/>
                            <path fill="#597ED9" d="M31.71 9.349L28.81 11.02l-4.148-2.395.905-1.056c.395-.488.817-.755 1.68-.616l.245.039.158.024c.025.004 4.058 2.332 4.058 2.332" transform="translate(-969.000000, -350.000000) translate(907.000000, 327.000000) translate(62.993750, 23.000000) translate(32.006250, 0.000000) translate(0.000000, 5.329818)"/>
                            <path fill="#96B3EB" d="M28.811 11.021s-.183-1.28.021-1.883c.205-.605.415-.73 1.047-.605.632.124 1.83.816 1.83.816L28.81 11.02z" transform="translate(-969.000000, -350.000000) translate(907.000000, 327.000000) translate(62.993750, 23.000000) translate(32.006250, 0.000000) translate(0.000000, 5.329818)"/>
                            <path fill="#376ABC" d="M44.425 17.296l-2.898 1.673-4.148-2.396v-.605c.395-.488 1.722-1.207 2.584-1.068.094.016.175.03.245.04.062.01 4.172 1.743 4.217 1.75.008.001 0 .606 0 .606" transform="translate(-969.000000, -350.000000) translate(907.000000, 327.000000) translate(62.993750, 23.000000) translate(32.006250, 0.000000) translate(0.000000, 5.329818)"/>
                            <path fill="#597ED9" d="M44.425 16.69l-2.898 1.673-4.148-2.396.904-1.056c.395-.488.818-.755 1.68-.616l.245.04.159.024c.025.004 4.058 2.331 4.058 2.331" transform="translate(-969.000000, -350.000000) translate(907.000000, 327.000000) translate(62.993750, 23.000000) translate(32.006250, 0.000000) translate(0.000000, 5.329818)"/>
                            <path fill="#96B3EB" d="M41.527 18.363s-.184-1.28.02-1.884c.205-.605.416-.729 1.048-.605.631.125 1.83.816 1.83.816l-2.898 1.673z" transform="translate(-969.000000, -350.000000) translate(907.000000, 327.000000) translate(62.993750, 23.000000) translate(32.006250, 0.000000) translate(0.000000, 5.329818)"/>
                            <path fill="#3F2001" d="M9.378 68.332c-.225.351-2.186 1.108-2.186 1.108s.034.231-.072.257c-.02.006-.861.319-.88.321-.722.108-.98-.187-1.096-.403l.03-.326.004-.048c.04-.044.325-.146.686-.146.13 0 .403-.09.725-.228.07-.029.143-.062.218-.098.52-.235 1.098-.557 1.384-.797.072-.063.127-.119.156-.167.23-.386 2.112-1.164 1.03.527" transform="translate(-969.000000, -350.000000) translate(907.000000, 327.000000) translate(62.993750, 23.000000) translate(32.006250, 0.000000) translate(0.000000, 5.329818)"/>
                            <path fill="#F9D7CB" d="M5.815 67.216s-.33 1.631-.15 1.631c.18 0 1.448.136 2.076-.226.628-.362 1.206-1.472 1.206-1.472l-1.206.016-1.926.051z" transform="translate(-969.000000, -350.000000) translate(907.000000, 327.000000) translate(62.993750, 23.000000) translate(32.006250, 0.000000) translate(0.000000, 5.329818)"/>
                            <path fill="#9D5D46" d="M9.33 68.264c-.308.411-2.088 1.123-2.86 1.336-.079.024-.151.038-.21.048-.53.086-.972-.135-1.086-.359-.006-.01-.01-.021-.014-.029-.01-.034-.016-.059-.016-.084.005-.28.128-1.377.468-1.306.033.008.058.023.08.041.108.109.09.353.64.326.171-.008.357-.02.54-.043.508-.063 1.224-.43 1.404-.815.115-.245-.201-.14-.32-.19-.019-.011-.04-.017-.058-.024.326-.08 1.284-.143 1.497-.016.34.202.261.68-.065 1.115" transform="translate(-969.000000, -350.000000) translate(907.000000, 327.000000) translate(62.993750, 23.000000) translate(32.006250, 0.000000) translate(0.000000, 5.329818)"/>
                            <path fill="#F9D7CB" d="M9.133 54.94c-.195 3.316-.35 5.123-.874 6.143-.855 1.664-.774 5.924-.855 6-.006.008.396.083.389.087-.184.158-.503.276-1.01.472-.028.01-.057.02-.085.033-.385.147-.987.277-.969.012.206-3.013-.563-3.107-.513-4.283.046-1.176.517-2.183.6-2.77.062-.454-1.124-7.511-1.124-7.511s-1.267-1.637-1.173-2.517c.128-1.196.162-2.711.162-2.711l5.506.866s.085 3.84-.054 6.178M3.073 65.63c-.062.204-.195.426-.46.58-.188.108-.43.172-.687.207-.6.086-1.265.019-1.39.019-.017 0-.028-.012-.037-.037-.046-.134.013-.59.075-.98.01-.057.018-.111.03-.163.042-.256.082-.451.082-.451s.553-.239 1.054-.41c.413-.143.791-.238.791-.114 0 .279.082.472.082.472l.124.088.106.074.586.087s-.27.351-.356.628" transform="translate(-969.000000, -350.000000) translate(907.000000, 327.000000) translate(62.993750, 23.000000) translate(32.006250, 0.000000) translate(0.000000, 5.329818)"/>
                            <path fill="#F9D7CB" d="M4.464 59.112c-.457 1.29-1.95 3.898-1.727 5.728.03.255-.499.4-.89.53-.033.012-.066.023-.1.033-.475.138-.902-.018-1.144-.147-.135-.069.5-1.384.598-2.072.097-.686-.61-2.188.483-4.184.483-.884.803-6.255.165-8.2-.636-1.945.166-3.921.216-3.95l1.168.505 1.706.737s-.012 3.505.086 4.828c.097 1.322-.102 4.9-.56 6.192" transform="translate(-969.000000, -350.000000) translate(907.000000, 327.000000) translate(62.993750, 23.000000) translate(32.006250, 0.000000) translate(0.000000, 5.329818)"/>
                            <path fill="#3F2001" d="M4.731 65.813c-.252.559-1.686.648-1.884.648-.196 0-.744.35-.744.35v.246c-.336.251-1.28.628-1.423.584-.379-.11-.68-.428-.68-.478 0-.033.042-.183.086-.336.053-.179.11-.362.11-.362l.303-.067 1.413-.315.564-.125s.257-.148.598-.328c.55-.29 1.32-.661 1.583-.625.1.02.163.062.206.123.023.04.08.212-.132.685" transform="translate(-969.000000, -350.000000) translate(907.000000, 327.000000) translate(62.993750, 23.000000) translate(32.006250, 0.000000) translate(0.000000, 5.329818)"/>
                            <path fill="#9D5D46" d="M4.771 65.551c-.166.457-.917.703-1.722.8-.487.058-.838.326-1.174.56-.017.013-.034.023-.05.036-.204.14-.405.264-.632.318-.083.021-.166.028-.247.028-.397-.01-.742-.246-.86-.466-.036-.07-.05-.135-.038-.191.067-.28.28-1.035.426-1.179.04-.04.073-.047.1-.04.077.022.112.165.112.165.212.127.621.198 1.193.148.573-.05 1.141-.226 1.249-.488.012-.032-.125-.341.074-.312.228.033.711-.18 1.16-.067.137.035.24.085.311.145.162.137.173.331.098.543" transform="translate(-969.000000, -350.000000) translate(907.000000, 327.000000) translate(62.993750, 23.000000) translate(32.006250, 0.000000) translate(0.000000, 5.329818)"/>
                            <path fill="#376ABC" d="M1.638 47.198s-.365.768-.365 2.01c0 1.243.158 3.96.356 5.124.585 3.437-.095 3.074.254 3.895.205.482 1.285 1.008 1.285 1.008s.216-.204.4-.906c.182-.702.167-.845.167-.845s.055.638.055 1.15c0 .512-.133.855-.133.855s2.915 1.501 3.77.88c.856-.622 1.443-1.225 1.443-1.225s1.46-6.72.734-9.277c-.726-2.558-1.258-2.67-1.258-2.67H1.638z" transform="translate(-969.000000, -350.000000) translate(907.000000, 327.000000) translate(62.993750, 23.000000) translate(32.006250, 0.000000) translate(0.000000, 5.329818)"/>
                            <path fill="#D27E76" d="M7.57 38.931c-.096-.055-1.901 1.864-3.405.895l-.132-2.328c-1.792-1.054-1.647-1.346-.702-1.92.332-.2-.138-1.894.183-1.915.225-.015 2.046 1.14 2.046 1.14s.32 1.806.338 2.059c.027.352 1.483 1.047 1.585 1.152.09.089-.15.32-.046.536.107.22.18.408.132.381" transform="translate(-969.000000, -350.000000) translate(907.000000, 327.000000) translate(62.993750, 23.000000) translate(32.006250, 0.000000) translate(0.000000, 5.329818)"/>
                            <path fill="#EDE8DE" d="M1.203 49.639s3.103 1.973 5.115 1.973c2.818 0 3.076-2.564 3.076-2.564l-8.191.591z" transform="translate(-969.000000, -350.000000) translate(907.000000, 327.000000) translate(62.993750, 23.000000) translate(32.006250, 0.000000) translate(0.000000, 5.329818)"/>
                            <path fill="#376ABC" d="M7.988 43.63c-.376.966-.03 1.222.454 2.19.483.968.952 2.99.952 2.99s-.517 2.207-3.334 2.207c-2.012 0-5.356-1.881-5.356-1.881s-.25-.787.153-3.108c.165-.952 1.4-2.485.757-4.781-.409-1.46-.906-3.852-.617-4.451.398-.828 1.196-1.06 1.849-1.098.564-.033.153.238 1.256.917 1.789 1.101 1.89.18 1.89.18s2.851 1.492 3.109 1.747c.188.19-.333.893-.315 1.394.005.175.005.365-.007.563-.025.556-.635 2.73-.791 3.13" transform="translate(-969.000000, -350.000000) translate(907.000000, 327.000000) translate(62.993750, 23.000000) translate(32.006250, 0.000000) translate(0.000000, 5.329818)"/>
                            <path fill="#F9D7CB" d="M7.208 33.725c.24.748.19.295.02 1.672-.024.198.238.87-.614.812-.173-.011-.318-.017-.445-.025-.404-.015-.625-.025-.927-.166-.076-.032-.16-.076-.252-.131-.142-.084-.366-.316-.616-.63-.746-.939-1.725-2.617-1.416-3.268.23-.486 1.409-.545 2.405-.506.786.033 1.457.13 1.457.13l.065-.048s.356.517.258 1.233c-.096.72-.175.18.065.927" transform="translate(-969.000000, -350.000000) translate(907.000000, 327.000000) translate(62.993750, 23.000000) translate(32.006250, 0.000000) translate(0.000000, 5.329818)"/>
                            <path fill="#F4C5B5" d="M5.964 33.535c-.005-.015-.19-.437-.384-.31-.195.126-.328.374-.272.719.054.344.22.77.453.772.233.002.304.036.434-.142.13-.177.061-.388.061-.388l-.292-.651z" transform="translate(-969.000000, -350.000000) translate(907.000000, 327.000000) translate(62.993750, 23.000000) translate(32.006250, 0.000000) translate(0.000000, 5.329818)"/>
                            <path fill="#F9D7CB" d="M6.058 33.57c-.005-.014-.19-.438-.384-.31-.195.126-.328.375-.273.719.054.344.22.77.453.772.234.003.305.036.435-.142.13-.177.061-.387.061-.387l-.292-.653z" transform="translate(-969.000000, -350.000000) translate(907.000000, 327.000000) translate(62.993750, 23.000000) translate(32.006250, 0.000000) translate(0.000000, 5.329818)"/>
                            <path fill="#D27E76" d="M5.873 33.67s-.078.203-.108.291c-.028.089-.06.235-.013.308.046.072.09.12.09.12s-.003-.36.03-.496c.034-.136.046-.256-.011-.357-.057-.101-.102-.232-.198-.116-.096.116-.174.245-.157.461.017.218.082.448.18.549.096.1.227.15.227.15s-.263-.118-.31-.365c-.045-.248-.06-.631.016-.695.077-.064.088-.077.093.016.006.093-.049.23.02.186.066-.043.077-.173.116-.119.039.054.025.067.025.067" transform="translate(-969.000000, -350.000000) translate(907.000000, 327.000000) translate(62.993750, 23.000000) translate(32.006250, 0.000000) translate(0.000000, 5.329818)"/>
                            <path fill="#D27E76" d="M5.917 34.081s.037-.201.08-.194c.042.007.05.008.076.076.026.07.03.095.093.077.064-.017.11-.07.053.02-.057.09-.07-.007-.164.054-.093.06-.064.149-.127.153-.062.005-.023-.132-.003-.172l-.008-.014z" transform="translate(-969.000000, -350.000000) translate(907.000000, 327.000000) translate(62.993750, 23.000000) translate(32.006250, 0.000000) translate(0.000000, 5.329818)"/>
                            <path fill="#E79CFF" d="M8.78 40.736c-.052-.228-.125-.483-.222-.768.077.058.153.127.228.205.006.176.005.365-.007.563" transform="translate(-969.000000, -350.000000) translate(907.000000, 327.000000) translate(62.993750, 23.000000) translate(32.006250, 0.000000) translate(0.000000, 5.329818)"/>
                            <path fill="#4D78CE" d="M3.514 35.416s.002.84.852.927c.85.088 1.426.09 1.426.09l1 .786s-.932.6-2.339.272c-1.406-.328-2.992-1.946-.939-2.075" transform="translate(-969.000000, -350.000000) translate(907.000000, 327.000000) translate(62.993750, 23.000000) translate(32.006250, 0.000000) translate(0.000000, 5.329818)"/>
                            <path fill="#010714" d="M3.033 35.054s-.66.805-.747 1.89c-.088 1.084.6 1.655.922 2.05.323.396.074 1.289.074 1.289s.878-.469 1.186-1.362c.308-.893-.058-1.89-.22-2.505-.16-.615-.897-.922-.734-1.201.163-.278-.481-.16-.481-.16" transform="translate(-969.000000, -350.000000) translate(907.000000, 327.000000) translate(62.993750, 23.000000) translate(32.006250, 0.000000) translate(0.000000, 5.329818)"/>
                            <path fill="#010714" d="M5.115 30.133s1.139.197 1.678 1.032c.539.835-.097.886-.174 1.17-.077.283-.056 1.932-.056 1.932s-.898-1.423-1.175-.702c-.275.72.397 1.21.397 1.21s-.453.641-.892.641c-.44 0-1.379-.201-1.379-.201l-.481-.16s-1.26-1.011-1.37-2.242c-.11-1.23.527-2.966 3.452-2.68" transform="translate(-969.000000, -350.000000) translate(907.000000, 327.000000) translate(62.993750, 23.000000) translate(32.006250, 0.000000) translate(0.000000, 5.329818)"/>
                            <path fill="#B3785E" d="M3.597 64.83l-.86.01s.244.095.244.271c0 .176-.065.09.396.23.461.144.98.169.813 0-.167-.166-.44-.4-.593-.456v-.055zM8.287 67.076l-.86.01s.245.095.245.271c0 .176-.066.09.396.231.46.143.98.168.813 0-.168-.167-.44-.4-.594-.457v-.055z" transform="translate(-969.000000, -350.000000) translate(907.000000, 327.000000) translate(62.993750, 23.000000) translate(32.006250, 0.000000) translate(0.000000, 5.329818)"/>
                            <path fill="#D27E76" d="M5.554 33.628s-.041-.174-.005-.184c.036-.009.043-.011.088.034.045.046.056.065.102.029.045-.037.061-.095.048-.003-.013.092-.059.019-.111.1-.054.083 0 .142-.047.168-.049.026-.066-.098-.063-.136l-.012-.008z" transform="translate(-969.000000, -350.000000) translate(907.000000, 327.000000) translate(62.993750, 23.000000) translate(32.006250, 0.000000) translate(0.000000, 5.329818)"/>
                            <path fill="#F9D7CB" d="M9.244 50.882s-.296.867 0 1.42c.297.55.273.674.273.674v.395l-.297.324s.157-.47-.107-.495c-.263-.026-.24.22-.24.22s-.149.445 0 .495c.15.05.644.173.644.173l.543-.593s.198.124.296-.099c.1-.222.26-.321.26-.321s.087.173.21-.099.321-.491.321-.491.395-.168.173-.567c-.223-.4-.494-1.476-.704-1.654-.21-.179-1.1-.339-1.372.618" transform="translate(-969.000000, -350.000000) translate(907.000000, 327.000000) translate(62.993750, 23.000000) translate(32.006250, 0.000000) translate(0.000000, 5.329818)"/>
                            <path fill="#F6F5F5" d="M8.37 47.69c-.493 1.43.79 3.252.79 3.252s.228.341.976.195c.748-.146.534-.877.534-.877s-1.808-4-2.3-2.57" transform="translate(-969.000000, -350.000000) translate(907.000000, 327.000000) translate(62.993750, 23.000000) translate(32.006250, 0.000000) translate(0.000000, 5.329818)"/>
                            <path fill="#4D78CE" d="M8.514 37.98s-1.278.293-1.728 1.75c-.492 1.594-.127 6.44.493 8.054.62 1.614 1.528 3.19 1.528 3.19s1.26-.033 1.81-.71c.547-.677-.851-3.673-1.223-5.027-.372-1.354 1.495-6.226-.88-7.257" transform="translate(-969.000000, -350.000000) translate(907.000000, 327.000000) translate(62.993750, 23.000000) translate(32.006250, 0.000000) translate(0.000000, 5.329818)"/>
                            <path fill="#F9D7CB" d="M19.167 69.825c-.063.205-.197.43-.465.584-.189.11-.434.174-.691.21-.606.085-1.277.018-1.402.018-.017 0-.029-.012-.038-.037-.045-.134.013-.595.076-.989.01-.056.019-.11.03-.164.043-.257.083-.454.083-.454s.557-.241 1.062-.413c.417-.144.798-.24.798-.115 0 .28.082.475.082.475l.126.088.106.076.279.195s.04.247-.046.526" transform="translate(-969.000000, -350.000000) translate(907.000000, 327.000000) translate(62.993750, 23.000000) translate(32.006250, 0.000000) translate(0.000000, 5.329818)"/>
                            <path fill="#494666" d="M21.14 61.44c.1 1.336-.873 2.749-1.336 4.053-.393 1.103-.663 3.017-.733 3.557l-.023.147s-.077.1-.223.224c-.04.03-.078.07-.124.1-.008.008-.016.023-.039.039-.17.123-.385.262-.64.355-.032.015-.062.03-.093.038-.031.016-.062.023-.1.031-.48.139-.91-.015-1.15-.147-.085-.038-.147-.077-.178-.107-.023-.016-.038-.024-.038-.024s.1-2.416.2-3.11c.1-.695.64-2.16 1.104-3.064.463-.903.409-1.536.409-2.238 0-.71-.579-1.898-1.22-3.859-.64-1.96.695-3.426.741-3.457l1.182.51 1.72.74s.44 4.877.54 6.213" transform="translate(-969.000000, -350.000000) translate(907.000000, 327.000000) translate(62.993750, 23.000000) translate(32.006250, 0.000000) translate(0.000000, 5.329818)"/>
                            <path fill="#CB5729" d="M20.948 70.112c-.208.206-1.488.686-1.915.686-.427 0-1.268.922-1.829 1.071-.153.04-.305.027-.45-.016-.381-.112-.686-.432-.686-.482 0-.034.042-.184.086-.34l.112-.364.305-.067 1.424-.319.569-.125s.26-.15.603-.331c.556-.292 1.515-.76 1.78-.724.43.08.204.808 0 1.011" transform="translate(-969.000000, -350.000000) translate(907.000000, 327.000000) translate(62.993750, 23.000000) translate(32.006250, 0.000000) translate(0.000000, 5.329818)"/>
                            <path fill="#E2652B" d="M21.062 69.651c-.17.463-1.11.803-1.921.904-.486.054-.841.324-1.18.564-.017.007-.04.023-.055.03-.2.147-.41.27-.633.325-.085.023-.17.03-.254.03-.394-.015-.741-.255-.865-.47-.039-.07-.046-.14-.039-.193.063-.255.24-.865.386-1.111.03.03.093.069.178.107.24.132.671.286 1.15.148.038-.009.069-.016.1-.032.031-.008.061-.023.093-.038.301-.039.509-.185.64-.355.023-.016.031-.031.04-.04.046-.03.084-.068.123-.1.146-.123.223-.223.223-.223l.023-.147c.054.016.124.054.224.07.232.03.902-.271 1.358-.163.139.039.239.085.308.146.17.14.178.333.1.548" transform="translate(-969.000000, -350.000000) translate(907.000000, 327.000000) translate(62.993750, 23.000000) translate(32.006250, 0.000000) translate(0.000000, 5.329818)"/>
                            <path fill="#F9D7CB" d="M21.932 71.424s-.333 1.644-.152 1.644c.182 0 1.46.138 2.094-.227.632-.366.512-1.417.512-1.417l-.512-.052s-.081-.195-.081-.475c0-.28-1.861.527-1.861.527" transform="translate(-969.000000, -350.000000) translate(907.000000, 327.000000) translate(62.993750, 23.000000) translate(32.006250, 0.000000) translate(0.000000, 5.329818)"/>
                            <path fill="#B2C7EA" d="M17.024 43.342s-.363-.758-.857.856c-.494 1.615-.165 4.891-.494 5.855-.33.964-.23 1.69-.23 1.788 0 .099 1.384 3.585 1.384 3.585s1.35-1.115 1.35-1.214c0-.099-.923-2.503-.66-2.998.264-.494 1.289-4.71 1.289-5.435 0-.724-1.69-2.503-1.69-2.503l-.092.066z" transform="translate(-969.000000, -350.000000) translate(907.000000, 327.000000) translate(62.993750, 23.000000) translate(32.006250, 0.000000) translate(0.000000, 5.329818)"/>
                            <path fill="#B2C7EA" d="M18.18 43.505s-.361-.757-.856.856c-.494 1.615-.165 4.892-.494 5.855-.33.964-.23 1.69-.23 1.788 0 .099 1.385 3.586 1.385 3.586s1.349-1.115 1.349-1.214c0-.099-.922-2.504-.659-2.998.263-.494 1.288-4.71 1.288-5.435 0-.724-1.689-2.503-1.689-2.503l-.094.065z" transform="translate(-969.000000, -350.000000) translate(907.000000, 327.000000) translate(62.993750, 23.000000) translate(32.006250, 0.000000) translate(0.000000, 5.329818)"/>
                            <path fill="#CB5729" d="M25.83 71.358c-.517.12-1.296.513-1.533.912-.03.049-.086.107-.16.17-.296.249-.89.581-1.426.823-.077.036-.152.07-.225.1-.331.142-.612.236-.747.236-.35 0-.622.092-.707.15l-.004.049-.03.39s.54.571 1.129.47c.019-.002.038-.006.06-.012.182-.048.476-.162.82-.312.043-.056.826-.639 1.182-.573.798-.42 1.528-.88 1.617-1.12.504-1.362.026-1.283.023-1.283" transform="translate(-969.000000, -350.000000) translate(907.000000, 327.000000) translate(62.993750, 23.000000) translate(32.006250, 0.000000) translate(0.000000, 5.329818)"/>
                            <path fill="#C100FF" d="M24.031 71.373l-.048.01c-.027.004-.048.004-.064 0-.023-.004-.032-.008-.038-.01-.021-.013.012-.02.067-.014.025.001.052.005.083.014" transform="translate(-969.000000, -350.000000) translate(907.000000, 327.000000) translate(62.993750, 23.000000) translate(32.006250, 0.000000) translate(0.000000, 5.329818)"/>
                            <path fill="#E2652B" d="M25.688 72.49c-.317.424-2.53 1.36-3.324 1.58-.081.023-.156.038-.217.049-.547.088-1.001-.139-1.118-.37-.007-.011-.011-.022-.016-.03-.01-.034-.015-.06-.015-.086.005-.29.131-1.42.482-1.346.034.008.06.023.082.042.111.112.092.364.658.336.178-.008.369-.02.557-.044.525-.065 1.036-.212 1.222-.608.119-.252.018-.375-.104-.429-.02-.01-.041-.017-.06-.023.336-.083 1.61-.48 1.943-.288.02.01.036.023.051.036.32.253.195.731-.141 1.18" transform="translate(-969.000000, -350.000000) translate(907.000000, 327.000000) translate(62.993750, 23.000000) translate(32.006250, 0.000000) translate(0.000000, 5.329818)"/>
                            <path fill="#494666" d="M25.077 61.047c-.197 3.344-.444 4.4-.84 5.487-.394 1.085-.099 4.198-.147 4.552-.014.108.797.621-.059 1.313-.177.153-1.642.485-1.893.393-.306-.111-.782-.339-.782-.339l-.046-.822s-.285-1.886-.234-3.072c.048-1.186.772-3.18.856-3.773.082-.592.247-1.334-.264-2.913-.41-1.27-2.34-2.473-2.503-4.498-.099-1.21.163-2.735.163-2.735l5.552.874s.033.189.077.543c.105.847.26 2.63.12 4.99" transform="translate(-969.000000, -350.000000) translate(907.000000, 327.000000) translate(62.993750, 23.000000) translate(32.006250, 0.000000) translate(0.000000, 5.329818)"/>
                            <path fill="#F4C5B5" d="M22.393 44.627c-.088-.05-1.747 1.714-3.13.823l-.121-2.14c.08.012.457.026.518-1.023.02-.357.24-.47.536-.457.207.009.45.077.689.172.521.203 1.014.517 1.014.517s-.017.189-.025.421c-.01.325-.004.734.09.83.082.082.212.308.308.507.098.2.165.375.121.35" transform="translate(-969.000000, -350.000000) translate(907.000000, 327.000000) translate(62.993750, 23.000000) translate(32.006250, 0.000000) translate(0.000000, 5.329818)"/>
                            <path fill="#CEE0FF" d="M25.34 58.175s-2.135 1.357-3.07 1.504c-1.48.232-5.583-1.108-5.583-1.694 0-.627.653-4.767.653-5.657 0-.888.325-1.559-.316-2.792-.643-1.237-.903-5.745-.47-6.177.434-.433 2.892-.246 2.892-.246s-.478.171.593.69c.66.321 2.099.346 2.099.346s1.334.633 2.257 1.316c.474.35.644.77.881 1.006.691.693.067 3.533-.144 4.465-.345 1.535.208 7.239.208 7.239" transform="translate(-969.000000, -350.000000) translate(907.000000, 327.000000) translate(62.993750, 23.000000) translate(32.006250, 0.000000) translate(0.000000, 5.329818)"/>
                            <path fill="#F9D7CB" d="M23.166 40.615c.157.767.038 1.462-.16 1.659-.14.14.144.886-.694.738-.17-.03-.313-.05-.438-.072-.398-.058-.617-.091-.901-.263-.071-.04-.149-.093-.235-.158-.132-.098-.328-.352-.543-.69-.638-1.008-1.428-2.775-1.053-3.387.28-.456 1.454-.389 2.436-.245.775.118 1.429.285 1.429.285l.07-.04s.297.55.123 1.249c-.172.702-.193.16-.034.924" transform="translate(-969.000000, -350.000000) translate(907.000000, 327.000000) translate(62.993750, 23.000000) translate(32.006250, 0.000000) translate(0.000000, 5.329818)"/>
                            <path fill="#010714" d="M22.986 37.577c-.726-.418-1.47-1.383-3.023-.901 0 0-.82.132-1.227.539-.072.072-.823.758-.89 1.944-.065 1.185.594 2.306 1.154 2.865.56.56.395.665.395.665s1.346.192 1.53.192c.183 0 .875-1.12.875-1.12s-.47-1.38-.32-1.407c.177-.034.237.389.79.435 0 0 .207-1.139.716-1.433.509-.294.643-1.252.643-1.878 0-.625.082.518-.643.1" transform="translate(-969.000000, -350.000000) translate(907.000000, 327.000000) translate(62.993750, 23.000000) translate(32.006250, 0.000000) translate(0.000000, 5.329818)"/>
                            <path fill="#D27E76" d="M21.954 40.294c-.004-.014-.14-.454-.347-.348-.207.105-.364.336-.347.683.017.347.136.787.366.814.232.026.297.067.446-.095.148-.162.102-.377.102-.377l-.22-.677z" transform="translate(-969.000000, -350.000000) translate(907.000000, 327.000000) translate(62.993750, 23.000000) translate(32.006250, 0.000000) translate(0.000000, 5.329818)"/>
                            <path fill="#F9D7CB" d="M22.043 40.339c-.004-.015-.14-.453-.347-.348-.206.105-.364.336-.347.683.017.347.136.787.367.813.23.028.297.068.445-.094.148-.161.102-.378.102-.378l-.22-.676z" transform="translate(-969.000000, -350.000000) translate(907.000000, 327.000000) translate(62.993750, 23.000000) translate(32.006250, 0.000000) translate(0.000000, 5.329818)"/>
                            <path fill="#F9D7CB" d="M21.849 40.418s-.099.193-.137.278c-.039.084-.086.226-.047.303.038.075.077.127.077.127s.036-.356.083-.487c.047-.13.073-.248.027-.355-.046-.106-.077-.24-.184-.135-.107.104-.2.223-.205.44-.006.216.033.452.119.562.085.11.21.173.21.173s-.248-.145-.267-.395c-.02-.251.007-.63.089-.686.082-.056.095-.068.09.025-.003.092-.072.224-.001.187.072-.036.095-.163.129-.106.032.057.017.069.017.069" transform="translate(-969.000000, -350.000000) translate(907.000000, 327.000000) translate(62.993750, 23.000000) translate(32.006250, 0.000000) translate(0.000000, 5.329818)"/>
                            <path fill="#F9D7CB" d="M21.849 40.83s.059-.195.1-.184c.04.012.049.014.067.085.018.07.019.096.084.086.065-.011.115-.06.05.024-.066.084-.069-.014-.168.036-.099.05-.079.14-.141.139-.063-.002-.01-.134.015-.17l-.007-.015z" transform="translate(-969.000000, -350.000000) translate(907.000000, 327.000000) translate(62.993750, 23.000000) translate(32.006250, 0.000000) translate(0.000000, 5.329818)"/>
                            <path fill="#F4C5B5" d="M25.405 58.284s-.297.866 0 1.418c.296.552.271.675.271.675l.001.396-.297.324s.157-.471-.107-.497c-.264-.025-.239.222-.239.222s-.15.445 0 .494c.149.05.643.173.643.173l.543-.593s.198.124.297-.099c.099-.222.26-.32.26-.32s.085.172.21-.1c.123-.271.32-.49.32-.49s.396-.17.173-.568c-.222-.399-.493-1.475-.704-1.654-.21-.178-1.1-.339-1.371.619" transform="translate(-969.000000, -350.000000) translate(907.000000, 327.000000) translate(62.993750, 23.000000) translate(32.006250, 0.000000) translate(0.000000, 5.329818)"/>
                            <path fill="#F6F5F5" d="M24.53 55.091c-.492 1.43.79 3.252.79 3.252s.228.342.976.195c.749-.145.534-.876.534-.876s-1.808-4-2.3-2.57" transform="translate(-969.000000, -350.000000) translate(907.000000, 327.000000) translate(62.993750, 23.000000) translate(32.006250, 0.000000) translate(0.000000, 5.329818)"/>
                            <path fill="#B2C7EA" d="M24.675 45.38s-1.278.295-1.728 1.751c-.493 1.595-.127 6.441.493 8.055.62 1.613 1.528 3.189 1.528 3.189s1.26-.033 1.809-.71c.548-.677-.369-3.442-.74-4.797-.373-1.354 1.012-6.456-1.362-7.487" transform="translate(-969.000000, -350.000000) translate(907.000000, 327.000000) translate(62.993750, 23.000000) translate(32.006250, 0.000000) translate(0.000000, 5.329818)"/>
                        </g>
                        <path fill="#FFF" d="M34.234 33.206l-.008 1.712-.425-.211-.002 1.044.42.213-.01 3.055c-.001.358.035.675.099.934.074.264.196.503.372.71.175.206.425.39.744.553.256.123.501.22.74.291l.001-.196.006-1.046c-.122-.035-.233-.079-.334-.129-.118-.06-.213-.148-.283-.251-.068-.115-.1-.242-.1-.397l.01-2.901.623.31.002-1.039-.617-.315.008-1.713-1.246-.624m-3.973 0l-.02 5.58 1.174.614.017-4.365c.053-.02.103-.034.148-.04.087-.013.16-.004.224.026.086.045.147.113.182.197.036.089.051.2.05.347l-.017 4.152 1.17.604.017-4.371c0-.384-.06-.736-.191-1.048-.133-.305-.32-.526-.574-.66-.177-.088-.351-.122-.524-.095-.163.024-.323.101-.483.23l.005-.562-1.178-.61m-2.862-1.178c.224-.03.495.033.814.186.483.228.843.548 1.081.97.239.421.36.922.354 1.514l-.002 1.076-1.746-.837-.008 1.03c0 .376.1.623.302.715.056.027.106.039.147.033.11-.015.167-.15.167-.402l.006-.563 1.131.542-.007.518c0 .54-.129.889-.384 1.043-.076.046-.16.077-.255.09-.22.03-.489-.031-.812-.186-.472-.224-.85-.558-1.114-.999-.259-.441-.396-.946-.39-1.515l.01-1.964c0-.575.139-.947.405-1.131.089-.064.189-.104.301-.12m1.039 2.365l.005-.507c0-.186-.023-.326-.08-.43-.047-.105-.118-.18-.208-.225-.042-.02-.078-.027-.11-.023-.032.005-.06.024-.085.057-.047.065-.071.202-.072.426v.426l.55.276m-5.313-4.744l.829 5.902 1.241.62.895-5.033-1.144-.576-.337 3.33-.34-3.672-1.144-.571m-2.927-3.558l2.927 1.322-.002 1.14-1.493-.67-.008 1.874 1.134.515-.003 1.158-1.133-.51-.011 2.258 1.503.678-.008 1.13-2.943-1.326.037-7.569" transform="translate(-969.000000, -350.000000) translate(907.000000, 327.000000) translate(62.993750, 23.000000) translate(32.006250, 0.000000)"/>
                    </g>
                </g>
            </g>
        </g>
    </g>
</svg>
