<svg xmlns="http://www.w3.org/2000/svg" width="24" height="24" viewBox="0 0 24 24">
    <g fill="none" fill-rule="evenodd">
        <g fill="#072157">
            <g>
                <path d="M9 16c.513 0 .936.386.993.883L10 17v2h2c.513 0 .936.386.993.883L13 20c0 .513-.386.936-.883.993L12 21h-2v2c0 .513-.386.936-.883.993L9 24c-.513 0-.936-.386-.993-.883L8 23v-2H6c-.513 0-.936-.386-.993-.883L5 20c0-.513.386-.936.883-.993L6 19h2v-2c0-.513.386-.936.883-.993L9 16zm4-4c2.689 0 4.882 2.122 4.995 4.783L18 17v2c0 .552-.448 1-1 1-.513 0-.936-.386-.993-.883L16 19v-2c0-1.598-1.249-2.904-2.824-2.995L13 14H5c-1.598 0-2.904 1.249-2.995 2.824L2 17v2c0 .552-.448 1-1 1-.513 0-.936-.386-.993-.883L0 19v-2c0-2.689 2.122-4.882 4.783-4.995L5 12h8zm7.25.162c2.133.55 3.645 2.428 3.745 4.611L24 17v2c0 .552-.448 1-1 1-.513 0-.936-.386-.993-.883L22 19v-2c-.001-1.366-.926-2.56-2.25-2.902-.535-.138-.856-.683-.718-1.218.138-.535.683-.856 1.218-.718zM9 0c2.761 0 5 2.239 5 5s-2.239 5-5 5-5-2.239-5-5 2.239-5 5-5zm7.248.161c2.212.567 3.76 2.56 3.76 4.844 0 2.284-1.548 4.277-3.76 4.844-.535.137-1.08-.186-1.217-.721-.137-.535.186-1.08.721-1.217 1.327-.34 2.256-1.536 2.256-2.906s-.929-2.566-2.256-2.906c-.535-.137-.858-.682-.72-1.217.136-.535.681-.858 1.216-.72zM9 2C7.343 2 6 3.343 6 5s1.343 3 3 3 3-1.343 3-3-1.343-3-3-3z" transform="translate(-935 -251) translate(935 251)"/>
            </g>
        </g>
    </g>
</svg>
