<svg xmlns="http://www.w3.org/2000/svg" width="20" height="20" viewBox="0 0 20 20">
    <g fill="none" fill-rule="evenodd">
        <g fill="#8A9FBA">
            <g>
                <path d="M14.711 5.283c.326.326.379.8.118 1.06l-3.654 3.654 3.654 3.654c.237.236.215.65-.036.968l-.082.092c-.325.326-.8.379-1.06.118l-3.654-3.654-3.653 3.654c-.26.26-.735.208-1.06-.118-.326-.325-.379-.8-.119-1.06l3.653-3.654-3.653-3.653c-.236-.237-.214-.65.036-.969l.082-.092c.326-.325.8-.378 1.06-.118l3.654 3.653 3.654-3.653c.26-.26.735-.207 1.06.118z" transform="translate(-364 -461) translate(364 461)"/>
            </g>
        </g>
    </g>
</svg>
