<svg xmlns="http://www.w3.org/2000/svg" width="24" height="24" viewBox="0 0 24 24">
    <g fill="none" fill-rule="evenodd">
        <g fill="#8A9FBA">
            <g>
                <path d="M4 4v5h5V4H4zm17 9c.552 0 1 .448 1 1v7c0 .552-.448 1-1 1h-7c-.552 0-1-.448-1-1v-7c0-.552.448-1 1-1h7zm-11 0c.552 0 1 .448 1 1v7c0 .552-.448 1-1 1H3c-.552 0-1-.448-1-1v-7c0-.552.448-1 1-1h7zm10 2h-5v5h5v-5zM9 15H4v5h5v-5zm1-13c.552 0 1 .448 1 1v7c0 .552-.448 1-1 1H3c-.552 0-1-.448-1-1V3c0-.552.448-1 1-1h7zm11 0c.552 0 1 .448 1 1v7c0 .552-.448 1-1 1h-7c-.552 0-1-.448-1-1V3c0-.552.448-1 1-1h7zm-1 2h-5v5h5V4z" transform="translate(-194 -374) translate(194 374)"/>
            </g>
        </g>
    </g>
</svg>
