<svg xmlns="http://www.w3.org/2000/svg" width="16" height="16" viewBox="0 0 16 16">
    <g fill="none" fill-rule="evenodd">
        <g fill="#8A9FBA">
            <g>
                <path d="M8 .667c4.05 0 7.333 3.283 7.333 7.333 0 4.05-3.283 7.333-7.333 7.333C3.95 15.333.667 12.05.667 8 .667 3.95 3.95.667 8 .667zM8 2C4.686 2 2 4.686 2 8s2.686 6 6 6 6-2.686 6-6-2.686-6-6-6zm0 4.667c.368 0 .667.298.667.666v3.334c0 .368-.299.666-.667.666-.368 0-.667-.298-.667-.666V7.333c0-.368.299-.666.667-.666zm0-2c.368 0 .667.298.667.666C8.667 5.702 8.368 6 8 6c-.368 0-.667-.298-.667-.667 0-.368.299-.666.667-.666z" transform="translate(-198 -559) translate(198 559)"/>
            </g>
        </g>
    </g>
</svg>
