<svg xmlns="http://www.w3.org/2000/svg" width="30" height="30" viewBox="0 0 30 30">
    <g fill="none" fill-rule="evenodd">
        <g>
            <g>
                <path fill="#FFF" d="M13.294 15.546h3.412c2.234 0 4.044 1.81 4.044 4.044 0 2.233-1.81 4.043-4.044 4.043h-3.412c-2.234 0-4.044-1.81-4.044-4.043s1.81-4.044 4.044-4.044z" transform="translate(-317.000000, -48.000000) translate(317.000000, 48.000000)"/>
                <path fill="#FFF" d="M15.06 20.992c1.94 0 3.545 1.435 3.81 3.301h-7.62c.265-1.866 1.87-3.301 3.81-3.301zm0-4.696c1.062 0 1.924.86 1.924 1.923 0 1.062-.862 1.923-1.924 1.923-1.063 0-1.924-.86-1.924-1.923 0-1.062.861-1.923 1.924-1.923z" transform="translate(-317.000000, -48.000000) translate(317.000000, 48.000000)"/>
                <g fill="#283747">
                    <g>
                        <g>
                            <path d="M5.118 6.4c2.5 0 4.592 1.75 5.117 4.09H0C.525 8.15 2.617 6.4 5.118 6.4zm0-6.4C6.566 0 7.74 1.174 7.74 2.621c0 1.448-1.174 2.621-2.622 2.621-1.449 0-2.623-1.173-2.623-2.62C2.495 1.173 3.67 0 5.118 0z" transform="translate(-317.000000, -48.000000) translate(317.000000, 48.000000) translate(3.000000, 3.300000) translate(0.000000, 0.000000)"/>
                        </g>
                        <path d="M18.882 6.4c2.501 0 4.593 1.75 5.118 4.09H13.765c.525-2.34 2.617-4.09 5.117-4.09zm0-6.4c1.449 0 2.623 1.174 2.623 2.621 0 1.448-1.174 2.621-2.623 2.621-1.448 0-2.622-1.173-2.622-2.62C16.26 1.173 17.434 0 18.882 0z" transform="translate(-317.000000, -48.000000) translate(317.000000, 48.000000) translate(3.000000, 3.300000)"/>
                    </g>
                    <g>
                        <path d="M5.118 6.4c2.5 0 4.592 1.75 5.117 4.09H0C.525 8.15 2.617 6.4 5.118 6.4zm0-6.4C6.566 0 7.74 1.174 7.74 2.621c0 1.448-1.174 2.621-2.622 2.621-1.449 0-2.623-1.173-2.623-2.62C2.495 1.173 3.67 0 5.118 0z" transform="translate(-317.000000, -48.000000) translate(317.000000, 48.000000) translate(3.000000, 3.300000) translate(6.541776, 13.083552)"/>
                    </g>
                </g>
            </g>
        </g>
    </g>
</svg>
