<svg xmlns="http://www.w3.org/2000/svg" width="30" height="30" viewBox="0 0 30 30">
    <g fill="none" fill-rule="evenodd">
        <g>
            <g>
                <g transform="translate(-402.000000, -48.000000) translate(402.000000, 48.000000) translate(3.000000, 3.000000)">
                    <path fill="#072157" fill-rule="nonzero" d="M18.888 9.444c2.604 0 4.723-2.118 4.723-4.722C23.61 2.118 21.492 0 18.888 0c-1.89 0-3.52 1.12-4.274 2.729l-1.261-.466c.015-.098.026-.196.026-.295C13.38.883 12.497 0 11.412 0S9.444.883 9.444 1.968c0 1.084.883 1.967 1.968 1.967.687 0 1.314-.365 1.667-.934l1.262.466c-.11.4-.175.82-.175 1.255 0 .516.086 1.01.24 1.475l-4.328 1.835c-.793-1.499-2.366-2.523-4.175-2.523-.587 0-1.146.113-1.665.309L3.15 3.53c.484-.364.785-.94.785-1.563C3.935.883 3.052 0 1.968 0 .883 0 0 .883 0 1.968c0 1.084.883 1.967 1.968 1.967.161 0 .321-.022.474-.06l1.086 2.281c-1.401.82-2.347 2.338-2.347 4.075 0 1.633.832 3.073 2.095 3.922l-.717 1.288c-.19-.06-.388-.094-.591-.094C.883 15.347 0 16.23 0 17.314c0 1.085.883 1.968 1.968 1.968 1.084 0 1.967-.883 1.967-1.968 0-.58-.26-1.121-.69-1.488l.72-1.293c.592.268 1.247.42 1.938.42 1.08 0 2.073-.368 2.87-.98l1.548 1.704c-.785.843-1.27 1.97-1.27 3.211 0 .241.024.476.058.707l-1.82.432c-.316-.685-1-1.139-1.78-1.139-1.085 0-1.967.883-1.967 1.968s.882 1.968 1.967 1.968 1.968-.883 1.968-1.968c0-.021-.003-.043-.004-.064l1.816-.431c.62 1.885 2.394 3.25 4.484 3.25 2.604 0 4.722-2.119 4.722-4.723 0-.807-.204-1.567-.563-2.232l2.313-1.504c.364.372.863.588 1.398.588 1.085 0 1.968-.882 1.968-1.967s-.883-1.968-1.968-1.968-1.967.883-1.967 1.968c0 .247.051.49.141.718L17.5 15.998c-.464-.596-1.066-1.077-1.759-1.397l1.921-5.324c.392.105.803.167 1.227.167zM15 14.334c-.392-.106-.802-.168-1.227-.168-1.08 0-2.073.369-2.87.981l-1.548-1.704c.785-.844 1.27-1.97 1.27-3.212 0-.515-.086-1.01-.24-1.475l4.328-1.834c.485.916 1.263 1.652 2.208 2.087l-1.92 5.325z"/>
                    <path fill="#FFF" d="M19.057 5.62c1.604 0 2.904 1.318 2.904 2.945 0 .11-.006.218-.018.324l-3.076 1.057-2.71-1.506.001-.048c.089-1.546 1.353-2.773 2.9-2.773zm0-3.596c.802 0 1.452.66 1.452 1.472 0 .814-.65 1.473-1.452 1.473-.802 0-1.452-.66-1.452-1.473 0-.813.65-1.472 1.452-1.472zM13.66 20.123c1.587 0 2.877 1.291 2.904 2.894L13.758 24l-2.99-1.2c.134-1.5 1.378-2.677 2.892-2.677zm0-3.596c.802 0 1.452.66 1.452 1.473 0 .813-.65 1.473-1.452 1.473-.801 0-1.451-.66-1.451-1.473 0-.813.65-1.473 1.451-1.473zM5.903 11.354c1.557 0 2.828 1.243 2.9 2.804-.302.232-.6.401-.895.51-.421.155-1.105.337-2.053.545-.824-.183-1.423-.348-1.796-.496-.373-.149-.747-.401-1.123-.759l.075.069.005-.048c.157-1.476 1.39-2.625 2.887-2.625zm0-3.596c.801 0 1.451.66 1.451 1.472 0 .814-.65 1.473-1.451 1.473-.802 0-1.452-.66-1.452-1.473 0-.813.65-1.472 1.452-1.472z"/>
                    <circle cx="5.903" cy="10.287" r="3.891" stroke="#072157" stroke-width="2"/>
                    <circle cx="19.057" cy="4.891" r="3.891" stroke="#072157" stroke-width="2"/>
                    <circle cx="13.66" cy="19.057" r="3.891" stroke="#072157" stroke-width="2"/>
                </g>
            </g>
        </g>
    </g>
</svg>
