<svg xmlns="http://www.w3.org/2000/svg" width="30" height="30" viewBox="0 0 30 30">
    <g fill="none" fill-rule="evenodd">
        <g fill="#2ACAA1">
            <g>
                <g>
                    <g>
                        <path d="M23 0c.552 0 1 .448 1 1v11.526c0 .552-.448 1-1 1l-5.13-.001c-.897-2.472-3.266-4.238-6.049-4.238-2.782 0-5.152 1.766-6.049 4.238H1c-.552 0-1-.447-1-1V1c0-.552.448-1 1-1h22zM11.821 1.432c-1.776 0-3.216 1.44-3.216 3.217 0 1.777 1.44 3.217 3.216 3.217 1.777 0 3.217-1.44 3.217-3.217 0-1.776-1.44-3.217-3.217-3.217zM3.553 20.338c1.792 0 3.278 1.329 3.552 3.068H0c.274-1.74 1.76-3.068 3.553-3.068zm8.359 0c1.792 0 3.278 1.329 3.553 3.068H8.359c.275-1.74 1.76-3.068 3.553-3.068zm8.359 0c1.792 0 3.278 1.329 3.553 3.068h-7.106c.275-1.74 1.76-3.068 3.553-3.068zM3.553 15.882c.993 0 1.799.817 1.799 1.825s-.806 1.825-1.8 1.825c-.993 0-1.798-.817-1.798-1.825s.805-1.825 1.799-1.825zm8.359 0c.993 0 1.799.817 1.799 1.825s-.806 1.825-1.8 1.825c-.993 0-1.798-.817-1.798-1.825s.805-1.825 1.799-1.825zm8.359 0c.994 0 1.799.817 1.799 1.825s-.805 1.825-1.8 1.825c-.993 0-1.798-.817-1.798-1.825s.805-1.825 1.799-1.825z" transform="translate(-62.000000, -48.000000) translate(62.000000, 48.000000) translate(3.000000, 3.300000)"/>
                    </g>
                    <path d="M5.486 12.686L18.171 12.686 18.223 13.527 5.537 13.527z" transform="translate(-62.000000, -48.000000) translate(62.000000, 48.000000) translate(3.000000, 3.300000)"/>
                </g>
            </g>
        </g>
    </g>
</svg>
