<svg xmlns="http://www.w3.org/2000/svg" width="30" height="30" viewBox="0 0 30 30">
    <g fill="none" fill-rule="evenodd">
        <g>
            <g>
                <g transform="translate(-657.000000, -46.000000) translate(657.000000, 46.000000) translate(3.300000, 3.000000)">
                    <g fill="#F7B924">
                        <path d="M4.487 5.611c2.192 0 4.026 1.534 4.487 3.587H0C.46 7.145 2.294 5.61 4.487 5.61zm0-5.611c1.27 0 2.299 1.029 2.299 2.298 0 1.27-1.03 2.298-2.3 2.298-1.269 0-2.298-1.029-2.298-2.298C2.188 1.028 3.218 0 4.487 0z" transform="translate(6.937961, 0.000000)"/>
                    </g>
                    <rect width="22.846" height="2.405" x=".301" y="21.595" fill="#FFF2D3" rx="1.202"/>
                    <rect width="9.018" height="2.405" x=".301" y="21.595" fill="#F7B924" rx="1.202"/>
                    <g fill="#F7B924">
                        <path d="M0 0L5.511 0 7.515 3.215 5.511 6.613 0 6.613 2.005 3.215zM8.116 0L13.627 0 15.631 3.215 13.627 6.613 8.116 6.613 10.121 3.215zM15.932 0L21.442 0 23.447 3.215 21.442 6.613 15.932 6.613 17.936 3.215z" transform="translate(0.000000, 12.577103)"/>
                    </g>
                </g>
            </g>
        </g>
    </g>
</svg>
