<svg xmlns="http://www.w3.org/2000/svg" width="30" height="30" viewBox="0 0 30 30">
    <g fill="none" fill-rule="evenodd">
        <g fill="#8A9FBA">
            <g>
                <g>
                    <path d="M15.616 0c.594 0 1.082.427 1.144.976l.007.12V2.3h1.956c1.825 0 3.304 1.458 3.304 3.255v15.19c0 1.797-1.479 3.254-3.304 3.254H3.304C1.48 24 0 22.543 0 20.745V5.556C0 3.76 1.48 2.301 3.304 2.301H5.59V1.096c0-.565.449-1.03 1.025-1.09L6.74 0c.593 0 1.081.427 1.144.976l.006.12V2.3h6.575V1.096c0-.565.45-1.03 1.026-1.09L15.616 0zM11.58 12.507c-.135-.276-.525-.276-.66 0l-1.052 2.148L7.515 15c-.302.045-.422.419-.203.633l1.702 1.671-.402 2.36c-.052.304.264.535.534.392l2.104-1.116 2.104 1.116c.27.143.586-.088.534-.392l-.402-2.36 1.702-1.67c.219-.215.099-.59-.203-.634l-2.353-.346zm2.885-8.234H7.89v1.206c0 .565-.448 1.03-1.025 1.09l-.125.006c-.593 0-1.082-.427-1.144-.976l-.007-.12V4.273l-2.178.001c-.613 0-1.11.488-1.11 1.089v3.513h17.753V5.363c0-.601-.496-1.089-1.109-1.089l-2.178-.001v1.206c0 .565-.449 1.03-1.025 1.09l-.126.006c-.593 0-1.081-.427-1.143-.976l-.007-.12-.001-1.206z" transform="translate(-147.000000, -48.000000) translate(147.000000, 48.000000) translate(3.900000, 3.000000)"/>
                </g>
            </g>
        </g>
    </g>
</svg>
