<svg xmlns="http://www.w3.org/2000/svg" width="30" height="30" viewBox="0 0 30 30">
    <g fill="none" fill-rule="evenodd">
        <g fill="#0057E4">
            <g>
                <path d="M25 3c1.105 0 2 .895 2 2v20c0 1.105-.895 2-2 2H5c-1.105 0-2-.895-2-2V5c0-1.105.895-2 2-2h20zm-.014 19.2H5.357c-.166 0-.3.134-.3.3v1.114c0 .166.134.3.3.3h19.629c.165 0 .3-.134.3-.3V22.5c0-.166-.135-.3-.3-.3zm0-3.429H5.357c-.166 0-.3.135-.3.3v1.458c0 .165.134.3.3.3h19.629c.165 0 .3-.135.3-.3V19.07c0-.165-.135-.3-.3-.3zM15.37 6.43H6.057c-.552 0-1 .447-1 1V16.4c0 .552.448 1 1 1h9.314c.553 0 1-.448 1-1V7.429c0-.553-.447-1-1-1zm9.615 9.257h-6.943c-.166 0-.3.134-.3.3V17.1c0 .166.134.3.3.3h6.943c.165 0 .3-.134.3-.3v-1.114c0-.166-.135-.3-.3-.3zm0-3.086h-6.943c-.166 0-.3.134-.3.3v1.114c0 .166.134.3.3.3h6.943c.165 0 .3-.134.3-.3V12.9c0-.166-.135-.3-.3-.3zM9.843 10.374c.084 0 .167.021.24.062l1.892 1.04.075.05c.184.15.24.414.122.63-.046.082-.114.15-.197.196l-1.891 1.04-.083.037c-.225.075-.478-.019-.596-.234-.04-.073-.062-.156-.062-.24v-2.08l.008-.09c.042-.234.246-.41.492-.41zm15.143-.86h-6.943c-.166 0-.3.135-.3.3v1.115c0 .165.134.3.3.3h6.943c.165 0 .3-.135.3-.3V9.814c0-.165-.135-.3-.3-.3zm0-3.085h-6.943c-.166 0-.3.134-.3.3v1.114c0 .166.134.3.3.3h6.943c.165 0 .3-.134.3-.3V6.729c0-.166-.135-.3-.3-.3z" transform="translate(-232.000000, -48.000000) translate(232.000000, 48.000000)"/>
            </g>
        </g>
    </g>
</svg>
