<svg xmlns="http://www.w3.org/2000/svg" width="30" height="30" viewBox="0 0 30 30">
    <g fill="none" fill-rule="evenodd">
        <g fill="#EB4B4B" fill-rule="nonzero">
            <g>
                <path d="M15 5.1c1.021 0 1.85.824 1.85 1.84 0 1.017-.829 1.842-1.85 1.842-1.021 0-1.849-.825-1.849-1.841 0-1.017.828-1.841 1.85-1.841zm-2.965 7.746h5.93c.271 0 .49-.218.49-.488v-1.487c0-.837-.681-1.516-1.523-1.516h-.556l-1.21 1.204c-.093.085-.236.085-.33 0l-1.21-1.204h-.553c-.841 0-1.523.679-1.523 1.516v1.487c0 .268.216.485.485.488zm-4.022 11.61l2.315-9.818c.061-.262.296-.446.565-.446h8.214c.27 0 .504.184.566.446l2.314 9.818c.038.179-.006.365-.121.507-.115.142-.288.224-.472.225h-2.343l-8.101.012H8.604c-.186 0-.361-.085-.476-.23-.115-.145-.157-.334-.115-.514zm14.15-6.078v1.453c0 .259.21.468.47.468h3.897c.26 0 .47-.21.47-.468v-1.536c.003-.666-.272-1.304-.759-1.761-.487-.458-1.142-.694-1.81-.653-1.297.112-2.287 1.201-2.268 2.497zm2.417-3.599c.806 0 1.531-.483 1.838-1.224.308-.741.136-1.593-.435-2.159-.57-.565-1.428-.732-2.17-.423-.743.31-1.225 1.035-1.221 1.836 0 .525.21 1.029.582 1.4.373.372.879.58 1.406.58v-.01zM7.367 20.297c.125 0 .244-.05.332-.137.089-.088.138-.207.138-.331v-1.536c.002-.666-.273-1.302-.759-1.76-.486-.456-1.14-.692-1.807-.652-1.302.11-2.295 1.207-2.27 2.507v1.443c0 .258.21.466.47.466h3.896zM5.43 14.789c1.096-.007 1.98-.896 1.976-1.988-.004-1.091-.896-1.974-1.993-1.971-1.096.002-1.984.888-1.984 1.98 0 .525.21 1.029.583 1.4.374.371.88.58 1.408.58h.01z" transform="translate(-487.000000, -48.000000) translate(487.000000, 48.000000)"/>
            </g>
        </g>
    </g>
</svg>
