<svg xmlns="http://www.w3.org/2000/svg" xmlns:xlink="http://www.w3.org/1999/xlink" width="720" height="1024" viewBox="0 0 720 1024">
    <defs>
        <linearGradient id="fs3t6co1ta" x1="50%" x2="50%" y1="93.896%" y2="-19.039%">
            <stop offset="0%" stop-color="#FFF" stop-opacity=".65"/>
            <stop offset="100%" stop-color="#FFF" stop-opacity="0"/>
        </linearGradient>
        <linearGradient id="qccl6uvi3d" x1="-6716.926%" x2="-6716.926%" y1="934.7%" y2="-16465.3%">
            <stop offset="0%" stop-color="#C9D4D9"/>
            <stop offset="100%" stop-color="#99BAD0"/>
        </linearGradient>
        <linearGradient id="otk3tocufg" x1="-3998.786%" x2="-3998.786%" y1="2977.45%" y2="-14422.55%">
            <stop offset="0%" stop-color="#C0CDD4"/>
            <stop offset="100%" stop-color="#94B5CB"/>
        </linearGradient>
        <linearGradient id="w7buef7l6j" x1="-2729.655%" x2="-2729.655%" y1="305.158%" y2="-693.235%">
            <stop offset="0%" stop-color="#8B989D"/>
            <stop offset="100%" stop-color="#6E8A98"/>
        </linearGradient>
        <path id="2e4bz7zq1b" d="M255.693 8.334H9.32C6.25 6.247 3.243 4.082.299 1.847 37.443.797 83.118.179 132.505.179c49.384 0 95.062.618 132.208 1.668-2.945 2.235-5.955 4.4-9.02 6.487"/>
        <path id="ek6fm1dxqc" d="M.416.935H.34h.072C1.148.935 1.908.89 2.696.8 1.908.89 1.148.935.416.935"/>
        <path id="8wymu9fqbf" d="M4.292 2.73C3.177 2.31 2.019 1.727.792.899c1.225.828 2.385 1.413 3.5 1.833"/>
        <path id="tff2iu2qbi" d="M.588 44.776c3-13.564 10.957-39.23 2.797-44.377 8.162 5.146.203 30.815-2.797 44.377"/>
    </defs>
    <g fill="none" fill-rule="evenodd">
        <path fill="#0057E4" d="M0 0H720V1024H0z"/>
        <text fill="#FFF" font-family="Helvetica" font-size="18">
            <tspan x="135" y="897">About tops</tspan>
        </text>
        <text fill="#FFF" font-family="Helvetica" font-size="14" opacity=".7">
            <tspan x="135" y="924">This event will include introduction about tops is? How it can be used ? </tspan> <tspan x="135" y="941">Meet new people. Let’s explore the power of connection together. </tspan>
        </text>
        <g transform="translate(135 307)">
            <path fill="url(#fs3t6co1ta)" d="M355.805 392.083c-37.103-1.06-82.727-1.684-132.054-1.684-49.329 0-94.95.623-132.053 1.684C41.964 353.887 10 294.653 10 228.096c0-115.218 95.697-225.18 213.751-225.18 118.05 0 213.749 109.962 213.749 225.18 0 6.18-.276 12.296-.814 18.338-.38-.018-.751-.028-1.118-.028-19.603 0-19.993 25.814-35.894 31.609 3.035-13.453 11.087-38.916 2.83-44.021-2.417-1.495-4.86-2.208-7.207-2.208-9.253 0-16.966 11.099-15.259 29.192.949 10.048 1.035 13.006-1.58 13.006-1.947 0-5.394-1.645-11.102-3.221-.953-.265-1.782-.389-2.493-.389-7.174 0-2.6 12.71 3.998 24.935-1.128-.424-2.301-1.015-3.54-1.851-3.27-2.205-7.023-6.1-11.729-13.071-4.413-6.53-8.795-9.099-12.624-9.099-12.527 0-19.122 27.525-1.406 33.908 13.092 4.716 12.51 5.299 11.375 20.26-1.138 14.96 19.717 15.718 19.717 15.718 2.175.387 4.155.581 5.963.61 3.76 4.005 7.389 5.617 10.808 5.617 2.82 0 5.497-1.097 7.986-2.855.933.187 1.917.288 2.953.306h.104c.015 0 .028.003.043.003H398.658c.74 0 1.51-.046 2.306-.137-12.46 17.984-27.713 33.966-45.16 47.365M122.499 150.314c-9.682 0-17.886 7.126-19.208 16.706-4.15 30.076-10.692 92.445 2.265 116.59 3.005 5.6 8.907 9.037 15.27 9.037h71.018c-10.618-3.806-15.185-20.795-16.551-41.783l13.542-61.914c.298-7.994-2.903-15.716-8.755-21.06.24-1.754.473-3.406.695-4.939.162-1.126.15-2.23-.015-3.291 11.013-3.188 14.794-18.252 14.791-27.34 0-2.817-.364-5.06-.989-6.196.177-.063 22.067-7.944 8.452-27.1 0 0-1.199 4.564-6.805 4.564-1.611 0-3.586-.376-6.001-1.346-5.642-2.266-13.157-4.18-20.026-4.18-5.535 0-10.651 1.245-14.017 4.556-7.948 7.813-13.964 22.306-5.444 33.309-.137 3.983 2.344 6.46 5.363 6.83l-1.595 7.557h-31.99m-50.502 65.092c8.163 0 14.778-7.585 14.778-16.944 0-9.358-6.615-18.734-14.778-18.734h-.063c-8.133.048-14.713 9.401-14.713 18.734 0 9.333 6.58 16.906 14.713 16.944h.062m351.887 86.084c-1.17-2.958-1.896-5.14-1.896-7.09 0-3.34 2.134-5.989 7.811-10.634-1.704 6.02-3.684 11.938-5.915 17.724m-264.45-168.418s-1.116-1.869-2.577-3.111c1.42 1.204 2.516 3.005 2.579 3.109 0 .002 0 .002-.003.002" opacity=".4"/>
            <ellipse cx="225" cy="399.583" fill="#004ED2" rx="225" ry="10"/>
            <g transform="translate(91.667 390.417)"/>
            <path fill="#8A9FBA" d="M140.833 390.417L150.833 390.417 150.833 292.917 140.833 292.917z"/>
            <path fill="#8A9FBA" d="M140.833 307.083L150.833 307.083 150.833 292.917 140.833 292.917zM189.911 390.417h-85.656c-3.27 0-5.922 2.706-5.922 6.05v3.116h97.5v-3.116c0-3.344-2.652-6.05-5.922-6.05M121.303 292.917H192.5c-25.907-9.279-15.885-96.708-11.096-129.849.966-6.678-4.237-12.651-11-12.651H122.98c-9.707 0-17.93 7.134-19.256 16.725-4.16 30.111-10.719 92.553 2.271 116.726 3.012 5.607 8.929 9.049 15.307 9.049"/>
            <path fill="#FFF" d="M131.667 49.999c0-27.383-22.2-49.582-49.584-49.582C54.697.417 32.5 22.616 32.5 49.999c0 27.385 22.197 49.584 49.583 49.584 27.384 0 49.584-22.199 49.584-49.584"/>
            <path fill="#0458E4" d="M122.5 49.999c0-22.321-18.28-40.416-40.832-40.416-22.554 0-40.835 18.095-40.835 40.416 0 22.323 18.281 40.418 40.835 40.418 22.551 0 40.832-18.095 40.832-40.418"/>
            <path fill="#FFF" d="M70.071 63.75c-.658 0-1.316-.246-1.817-.736-1.005-.98-1.005-2.57 0-3.552l10.771-10.53v-27.67c0-1.386 1.15-2.512 2.57-2.512 1.423 0 2.572 1.126 2.572 2.512v28.71c0 .666-.27 1.307-.754 1.777L71.89 63.014c-.504.49-1.162.736-1.818.736"/>
            <path fill="#1E303C" d="M87.5 48.751c0-3.222-2.61-5.834-5.835-5.834-3.22 0-5.832 2.612-5.832 5.834 0 3.22 2.612 5.832 5.832 5.832 3.226 0 5.835-2.612 5.835-5.832"/>
            <path fill="#FFF" d="M365.44 96.25h-85.045c-4.359 0-7.895 3.541-7.895 7.912v38.398c0 4.371 3.536 7.915 7.895 7.915h5.941v9.285c0 1.286 1.522 1.969 2.478 1.104l11.498-10.389h65.129c4.359 0 7.892-3.544 7.892-7.915v-38.398c0-4.37-3.533-7.912-7.892-7.912"/>
            <path fill="#0458E4" d="M305.833 123.75c0 1.839-1.492 3.333-3.334 3.333s-3.332-1.494-3.332-3.333c0-1.841 1.49-3.333 3.332-3.333 1.842 0 3.334 1.492 3.334 3.333M326.667 123.75c0 1.839-1.492 3.333-3.334 3.333-1.841 0-3.333-1.494-3.333-3.333 0-1.841 1.492-3.333 3.333-3.333 1.842 0 3.334 1.492 3.334 3.333M346.667 123.75c0 1.839-1.493 3.333-3.335 3.333-1.84 0-3.332-1.494-3.332-3.333 0-1.841 1.493-3.333 3.332-3.333 1.842 0 3.335 1.492 3.335 3.333M86.667 198.4c0-9.4-6.529-18.817-14.585-18.817C64.03 179.583 57.5 189 57.5 198.4c0 9.4 6.529 17.018 14.582 17.018 8.056 0 14.585-7.619 14.585-17.018"/>
            <path fill="#034ED2" d="M72.911 215.417h-.06-.002c-1.273-.008-2.504-.224-3.682-.586 6.238-1.933 10.844-8.547 10.844-16.432 0-7.884-4.606-15.761-10.844-18.1 1.178-.442 2.406-.708 3.682-.716h.062C80.97 179.583 87.5 189 87.5 198.4c0 9.4-6.53 17.018-14.589 17.018"/>
            <path fill="#FFF" d="M55.847 209.527l2.66 23.96c.334 2.994 2.875 5.263 5.904 5.263h15.346c3.027 0 5.571-2.27 5.904-5.263l2.658-23.96c.148-1.304-.88-2.444-2.199-2.444H58.046c-1.318 0-2.344 1.14-2.199 2.444"/>
            <path fill="#EBEBEB" d="M58.046 210.806H86.12c.871 0 1.575.539 1.938 1.277l.261-2.459c.148-1.356-.88-2.54-2.199-2.54H58.046c-1.315 0-2.344 1.184-2.2 2.54l.265 2.46c.363-.739 1.069-1.278 1.935-1.278"/>
            <path fill="#EBEBEB" d="M86.118 207.083h-9.745c1.317 0 2.347 1.14 2.202 2.444l-2.664 23.96c-.333 2.994-2.88 5.263-5.911 5.263h9.747c3.03 0 5.578-2.27 5.91-5.263l2.662-23.96c.148-1.304-.882-2.444-2.201-2.444"/>
            <path fill="#EBBA72" d="M208.499 376.261L207.5 383.012 212.747 389.583 226.058 383.206 227.5 377.034 210.933 374.583 208.499 376.261"/>
            <path fill="#1E303C" d="M219.368 398.384l1.37-1.72c.253-.315.723-.323.984-.012l1.377 1.633c.554.662 1.372 1.038 2.23 1.023l30.828-.532c.59-.61.743-1.661.053-2.366-4.519-4.623-28.836-12.618-30.045-13.292-1.21-.675-8.649 5.188-18.501-.201 0 0-1.596 7.826-1.827 12.897-.093 2.07 1.516 3.804 3.56 3.769l7.823-.138c.836-.012 1.624-.402 2.148-1.06"/>
            <path fill="#283747" d="M151.02 259.555s-12.918 14.228 10.736 29.69c16.597 10.844 29.675 7.532 40.09 14.106 2.443 1.541 4.299 3.837 4.473 6.713l.527 66.512 1.26.623c6.265 3.1 13.613 3.181 19.948.217l9.419-75.889c.337-5.232-2.5-9.641-5.75-13.763-18.089-22.924-50.113-30.691-58.22-32.015-10.539-1.72-22.482 3.806-22.482 3.806"/>
            <path fill="#EBBA72" d="M156.921 376.226L155.833 382.954 160.97 389.583 174.314 383.394 175.833 377.251 159.368 374.583 156.921 376.226"/>
            <path fill="#1E303C" d="M167.676 398.524l1.393-1.7c.256-.31.73-.31.984.002l1.353 1.652c.55.668 1.363 1.054 2.221 1.052l30.848-.104c.595-.603.765-1.647.083-2.361-4.456-4.682-28.677-13.002-29.877-13.693-1.204-.69-8.722 5.06-18.505-.455 0 0-1.704 7.792-2.003 12.854-.123 2.066 1.466 3.82 3.51 3.812l7.831-.028c.836-.002 1.627-.378 2.162-1.031"/>
            <path fill="#283747" d="M111.938 247.082s-15.65 17.388 6.98 37.027c15.873 13.777 30.119 7.886 40.118 16.29 2.345 1.971 3.965 4.646 3.732 7.695l-7.147 67.684.54.346c6.242 4.04 14.133 4.578 20.865 1.42l17.693-71.323c1.11-5.45-1.238-10.493-4.058-15.29-15.703-26.688-40.361-42.595-48.69-45.149-10.823-3.316-30.033 1.3-30.033 1.3"/>
            <path fill="#1C2D3F" d="M198.25 301.25c-1.175-.507-2.375-.912-3.6-1.267-.65-3.192-2.2-6.283-3.926-9.248-7.677-13.276-17.555-23.917-26.557-31.543 5.601-.963 8.452-2.18 10.002-3.775 3.076.506 9.278 1.925 16.78 4.61 7.602 12.872 7.577 33.774 7.302 41.223"/>
            <path fill="#FFF" d="M153.813 154.778s-22.615-3-32.016 14.528c-9.399 17.528-23.437 86.242-11.162 88.331 5.434.924 19.926 4.552 35.981 3.384 22.078-1.608 26.875-3.629 28.468-7.804l14.063-64.034c.33-8.808-3.61-17.283-10.677-22.607-11.268-8.495-24.657-11.798-24.657-11.798"/>
            <path fill="#EBEBEB" d="M189.07 185.833s.292 38.72 12.403 41.067c12.113 2.348 44.36 1.613 44.36 1.613v12.32h-69.166l12.403-55"/>
            <path fill="#DF8B4B" d="M172.302 165.566L175 152.078l-17.482-13.328-3.351 15.904s5.515 24.28 18.135 10.912"/>
            <path fill="#1E303C" d="M194.603 126.534s-9.266 4.464-22.842-3.726c0 0-3.147 5.604-12.246 10.609 0 0-4.73-7.845-7.45-1.966-.824 1.78-1.21 3.381-1.25 4.799-8.521-10.896-2.512-25.25 5.43-32.988 7.531-7.345 23.827-4.424 34.008-.373 10.807 4.304 12.792-3.186 12.792-3.186 13.656 19.044-8.442 26.831-8.442 26.831"/>
            <path fill="#EBBA72" d="M159.583 132.915s-4.75-8.008-7.483-2.009c-3.317 7.281.427 11.846 4.92 11.846 0 0 3.563 18.935 20.857 17.597 17.299-1.338 19.791-29.274 16.964-34.46 0 0-9.312 4.558-22.95-3.806 0 0-3.159 5.73-12.308 10.832"/>
            <path fill="#FFF" d="M309.175 177.917h-72.222c-3.56 0-6.627 2.476-7.338 5.924L220 230.417h87.511l9.001-43.617c.95-4.59-2.6-8.883-7.337-8.883"/>
            <path fill="#CDCDCD" d="M307.284 230.417H188.546c-1.957 0-3.546 1.604-3.546 3.585v1.16c0 1.982 1.589 3.588 3.546 3.588h118.738c1.963 0 3.55-1.606 3.55-3.588v-1.16c0-1.981-1.587-3.585-3.55-3.585"/>
            <path fill="#CDCDCD" d="M307.27 230.417h-88.103c1.966 0 3.558 1.606 3.558 3.587v1.159c0 1.981-1.592 3.587-3.558 3.587h88.102c1.971 0 3.564-1.606 3.564-3.587v-1.16c0-1.98-1.593-3.586-3.564-3.586"/>
            <path fill="#FFF" d="M192.5 227.563c-14.06-1.63-53.502-5.636-60.26-6.33-8.527-.88 9.993-35.114 12.052-46.82 2.056-11.703-6.908-12.143-6.908-12.143-5.06-.629-10.584 0-15.286 7.091-9.624 14.513-20.348 56.936-14.697 67.408.663 1.23 1.96 1.981 3.362 1.981H192.5v-11.187"/>
            <path fill="#EBEBEB" d="M192.5 227.917s-50.434-3.497-61.309-4.968c-8.436-1.14 9.148-36.408 11.19-48.174 2.045-11.77-7.004-11.28-7.004-11.28-2.27-.281-5.54.039-7.877.745 3.376-2.236 6.914-2.388 10.265-1.977 0 0 8.898.448 6.856 12.214-2.045 11.77-17.81 45.456-12.482 46.78 6.554 1.629 46.395 5.026 60.361 6.66"/>
            <path fill="#EBBA72" d="M192.5 238.75h19.03c1.43 0 2.287-1.548 1.51-2.72-1.78-2.681-4.597-6.467-6.66-7.111-1.23-.382-10.483-.045-13.88.307v9.524"/>
            <path fill="#CA9C70" d="M177.5 160.279l.113-.008c1.135-.082 2.206-.27 3.22-.55-1.014.28-2.085.468-3.22.55l-.113.008"/>
            <path fill="#9C6F4A" d="M190.833 127.2c0-.006 0-.008.003-.013 2.655-.325 4.164-1.053 4.164-1.053s-1.499.74-4.167 1.065"/>
            <path fill="#E39A57" d="M176.244 160.417c-2.348 0-4.413-.4-6.244-1.056l.388.058c1.099.177 2.125.257 3.085.257 12.018-.002 13.379-12.73 13.379-12.73s1.367.101 2.441.101c.269 0 .52-.007.725-.023 1.028-.078-.634-10.343-.317-13.657.22-2.32.63-4.762.861-6.04 2.74-.33 4.281-1.077 4.281-1.077.626 1.137.99 3.38.99 6.2.003 9.09-3.784 24.157-14.815 27.345-.977.283-2.01.473-3.105.556l-.109.008c-.532.037-1.054.058-1.56.058"/>
            <path fill="#0458E4" d="M411.483 342.308s23.783-11.726 17.316-29.508c-6.469-17.778-10.463-18.533 1.904-28.559 12.367-10.023 30.25-35.18 7.608-37.072-22.64-1.892-21.5 27.995-40.337 32.155-18.835 4.16-29.111 82.466 13.51 62.984"/>
            <path fill="#C9D4D9" d="M401.667 345.417c2.927-.335 6.22-1.3 9.91-3.009 0 0 18.405-9.188 18.423-23.658-.018 14.47-18.422 23.658-18.422 23.658-3.691 1.709-6.984 2.674-9.911 3.009"/>
            <g transform="translate(398.333 343.75)">
                <mask id="w18m66ugpe" fill="#fff">
                    <use xlink:href="#ek6fm1dxqc"/>
                </mask>
                <path fill="url(#qccl6uvi3d)" d="M.416.935H.34h.072C1.148.935 1.908.89 2.696.8 1.908.89 1.148.935.416.935" mask="url(#w18m66ugpe)"/>
            </g>
            <path fill="#034ED2" d="M399.1 345.417h-.146c-.015 0-.028-.003-.043-.003h-.104c-1.044-.018-2.034-.121-2.974-.305 3.72-2.604 7.024-6.658 9.765-10.738 12.68-13.147 12.973-29.193 11.748-37.204-1.59-10.407 5.728-16.084 19.41-32.168 8.218-9.66 1.86-14.878-4.53-17.51 1.265-.262 2.619-.406 4.08-.406.637 0 1.293.028 1.973.084 7.917.658 10.895 4.147 10.888 8.835-.013 8.757-10.44 21.708-18.52 28.237-5.865 4.738-8.062 7.408-8.062 10.781-.002 3.762 2.73 8.404 6.153 17.78.779 2.136 1.12 4.185 1.118 6.135-.018 14.296-18.487 23.373-18.487 23.373-3.704 1.688-7.008 2.642-9.945 2.972-.802.091-1.576.137-2.325.137"/>
            <path fill="#0458E4" d="M370.95 341.469s-20.785-.762-19.651-15.793c1.131-15.032 1.711-15.618-11.337-20.357-23.053-8.372-4.803-52.955 13.983-24.927 13.035 19.456 18.706 15.08 27.207 16.603 8.504 1.523 27.018 51.133-10.202 44.474"/>
            <g transform="translate(365 292.917)">
                <mask id="u1jz7kabbh" fill="#fff">
                    <use xlink:href="#8wymu9fqbf"/>
                </mask>
                <path fill="url(#otk3tocufg)" d="M4.292 2.73C3.177 2.31 2.019 1.727.792.899c1.225.828 2.385 1.413 3.5 1.833" mask="url(#u1jz7kabbh)"/>
            </g>
            <path fill="#034ED2" d="M375.195 342.083c-.354-.027-.704-.052-1.07-.09.024-1.035-.003-2.06-.082-3.078.777.797 1.372 1.39 1.706 1.721l-.554 1.447m1.678-28.739c-1.339 0-3.48-.66-5.926-1.319-2.443-.66-5.187-1.321-7.734-1.321-.678 0-1.344.047-1.984.153-7.114-9.502-14.652-17.423-15.351-23.385-.673-5.746-4.377-7.397-8.412-7.397-2.266 0-4.638.52-6.633 1.126 2.05-5.206 5.94-9.118 10.676-9.118 3.827 0 8.21 2.558 12.624 9.047 4.714 6.935 8.468 10.811 11.744 13.002 1.243.832 2.415 1.42 3.544 1.842 1.929 3.552 4.03 7.064 6.063 10.207 3.61 5.588 3.458 7.163 1.39 7.163"/>
            <path fill="#0458E4" d="M375.576 341.014s-25.9-25.325-17.077-29.597c3.402-1.645 8.072-.584 11.972.479 6.219 1.69 10.481 3.383 4.536-5.887-9.676-15.08-20.944-38.575-7.568-34.875 13.377 3.697 14.349 7.764 12.693-9.804-2.141-22.723 10.532-34.435 22.486-27.035 11.952 7.4-10.248 57.487-1.994 52.079 8.253-5.406 15.085-9.958 16.793-3.414 1.708 6.544-23.632 32.243-14.232 27.888 11.67-5.406 13.379 4.27 9.679 10.247-3.7 5.977-19.072 41.548-37.288 19.919"/>
            <path fill="#467391" d="M401.667 310.799c.344-.008.853-.157 1.555-.464-.702.307-1.211.456-1.555.464m1.8-.572c2.379-1.033 4.346-1.475 5.948-1.477-1.602.002-3.572.444-5.948 1.477"/>
            <g transform="translate(399.167 233.75)">
                <mask id="r8x10ymnnk" fill="#fff">
                    <use xlink:href="#tff2iu2qbi"/>
                </mask>
                <path fill="url(#w7buef7l6j)" d="M.588 44.776c3-13.564 10.957-39.23 2.797-44.377 8.162 5.146.203 30.815-2.797 44.377" mask="url(#r8x10ymnnk)"/>
            </g>
            <path fill="#467391" d="M400.005 286.25c-1.344 0-.917-3.334.191-8.333-1.108 4.997-1.535 8.336-.19 8.333m1.836-.954l.499-.33-.499.33m.519-.342c4.423-2.934 8.348-5.422 11.142-5.694-2.794.272-6.72 2.76-11.142 5.694"/>
            <path fill="#034ED2" d="M387.64 347.917c-1.929 0-3.926-.517-5.973-1.694.247-19.72 22.366-46.357 17.293-46.357-.53 0-1.357.291-2.537.912-1.581.83-2.91 1.225-4.012 1.225-8.132 0-3.949-21.4 2.436-46.48 3.422-13.444-1.515-18.424-7.68-19.938 2.438-2.279 5.322-3.502 8.374-3.502 2.322 0 4.74.707 7.133 2.195 8.23 5.117.204 30.637-2.822 44.124-1.127 5.03-1.56 8.385-.194 8.385.106 0 .22-.02.348-.06l.01-.003c.003 0 .003 0 .005-.003.003 0 .005 0 .008-.002.003 0 .005 0 .01-.003h.003l.012-.005.096-.035.008-.005.007-.003c.005-.002.008-.002.01-.005l.008-.002.015-.008c.005 0 .007-.003.01-.005.003 0 .005 0 .008-.003.143-.063.302-.151.471-.265l.2-.13c.07-.048.143-.093.216-.141.076-.051.151-.102.23-.152l.194-.13.507-.331.02-.013c4.498-2.952 8.49-5.456 11.332-5.73.169-.014.335-.024.497-.024h.007c1.7.002 2.93.934 3.528 3.235.01.033.018.066.025.101 0 .008.003.018.005.026 0 .007.003.015.003.023 1.195 6.25-19.8 28.247-15.793 28.247.013 0 .023 0 .033-.003.333-.008.824-.16 1.503-.47l.045-.024.103-.045.02-.01.069-.03c2.297-1.049 4.2-1.497 5.749-1.5H409.198c6.08.005 6.601 6.95 3.77 11.697l-.018.03-.046.074-.022.035c-2.842 4.61-12.6 26.802-25.242 26.802"/>
            <path fill="#FFF" d="M358.359 343.378l4.976 45.402c.625 5.673 5.385 9.97 11.052 9.97h28.728c5.664 0 10.427-4.297 11.048-9.97l4.978-45.402c.271-2.468-1.649-4.628-4.116-4.628h-52.55c-2.468 0-4.385 2.16-4.116 4.628"/>
            <path fill="#EBEBEB" d="M415.037 338.75h-18.164c2.46 0 4.375 2.16 4.104 4.628l-4.963 45.402c-.62 5.673-5.367 9.97-11.014 9.97h18.164c5.647 0 10.395-4.297 11.014-9.97l4.963-45.402c.27-2.468-1.643-4.628-4.104-4.628"/>
            <path fill="#283747" d="M358.699 238.75h-309.9c-3.48 0-6.299 2.889-6.299 6.453v2.091c0 3.565 2.82 6.456 6.299 6.456h309.9c3.48 0 6.301-2.891 6.301-6.456v-2.09c0-3.565-2.822-6.454-6.301-6.454"/>
            <path fill="#283747" d="M358.699 238.75h-309.9c-3.48 0-6.299 2.751-6.299 6.146v1.991c0 .654.131 1.27.324 1.863.814-2.48 3.163-4.286 5.975-4.286h309.9c2.812 0 5.163 1.806 5.975 4.286.195-.592.326-1.209.326-1.863v-1.99c0-3.396-2.822-6.147-6.301-6.147M146.667 399.583L136.299 399.583 64.167 253.75 74.537 253.75 146.667 399.583"/>
            <path fill="#283747" d="M32.5 399.583L42.868 399.583 115 253.75 104.632 253.75 32.5 399.583M370 399.583L359.632 399.583 287.5 253.75 297.868 253.75 370 399.583"/>
            <path fill="#283747" d="M255.833 399.583L266.201 399.583 338.333 253.75 327.963 253.75 255.833 399.583"/>
            <path fill="#1C2D3F" d="M77.5 259.583L74.62 253.75 64.167 253.75 67.047 259.583 77.5 259.583M112.119 259.583L115 253.75 104.548 253.75 101.667 259.583 112.119 259.583M300.833 259.583L297.952 253.75 287.5 253.75 290.381 259.583 300.833 259.583M335.453 259.583L338.333 253.75 327.88 253.75 325 259.583 335.453 259.583"/>
        </g>
        <g fill="#FFF" transform="translate(331 787)">
            <rect width="26" height="8" rx="4"/>
            <rect width="8" height="8" x="50" rx="4"/>
            <rect width="8" height="8" x="34" rx="4"/>
        </g>
    </g>
</svg>
