<svg xmlns="http://www.w3.org/2000/svg" xmlns:xlink="http://www.w3.org/1999/xlink" width="97" height="98" viewBox="0 0 97 98">
    <defs>
        <path id="09sqr5aida" d="M0 69L97 69 97 0 0 0z"/>
    </defs>
    <g fill="none" fill-rule="evenodd">
        <g>
            <g>
                <g>
                    <path fill="#F7F8FB" d="M13 0H84V98H13z" transform="translate(-136.000000, -342.000000) translate(62.000000, 327.000000) translate(74.000000, 15.000000)"/>
                    <g>
                        <path fill="#99A2A9" d="M78.104 62.727L80.623 62.727 80.623 46.418 78.104 46.418z" transform="translate(-136.000000, -342.000000) translate(62.000000, 327.000000) translate(74.000000, 15.000000) translate(0.000000, 16.000000)"/>
                        <g transform="translate(-136.000000, -342.000000) translate(62.000000, 327.000000) translate(74.000000, 15.000000) translate(0.000000, 16.000000)">
                            <path fill="#303030" d="M74.652 63.993c0 .745-.604 1.35-1.347 1.35-.745 0-1.348-.605-1.348-1.35 0-.746.603-1.35 1.348-1.35.743 0 1.347.604 1.347 1.35M86.861 63.993c0 .745-.604 1.35-1.347 1.35-.744 0-1.348-.605-1.348-1.35 0-.746.604-1.35 1.348-1.35.743 0 1.347.604 1.347 1.35"/>
                            <path fill="#99A2A9" d="M87.295 63.211H71.214c0-.627.507-1.135 1.133-1.135h13.815c.626 0 1.133.508 1.133 1.135M79.458 62.076L80.039 62.076 80.039 47.029 79.458 47.029z"/>
                            <path fill="#303030" d="M86.84 47.332H71.67c-.712 0-1.29-.578-1.29-1.29v-.745c0-.713.578-1.29 1.29-1.29H86.84c.712 0 1.289.577 1.289 1.29v.744c0 .713-.577 1.291-1.289 1.291"/>
                            <path fill="#191919" d="M77.077 42.208h7.532c1.729 0 3.144-1.417 3.144-3.15v-10.43c0-3.806-3.11-6.922-6.91-6.922-3.8 0-6.909 3.116-6.909 6.923v10.43c0 1.732 1.414 3.149 3.143 3.149"/>
                            <path fill="#303030" d="M76.957 41.12h5.87c1.347 0 2.45-1.105 2.45-2.455v-10.24c0-2.967-2.423-5.395-5.385-5.395-2.96 0-5.384 2.428-5.384 5.394v10.241c0 1.35 1.102 2.455 2.45 2.455"/>
                            <mask id="337a1ss7ib" fill="#fff">
                                <use xlink:href="#09sqr5aida"/>
                            </mask>
                            <path fill="#B8D1FF" d="M75.656 21.397L80.853 21.397 80.853 19.583 75.656 19.583z" mask="url(#337a1ss7ib)"/>
                            <path fill="#000" d="M74.77 62.856l-3.116-.312s-1.74 1.227-2.651 2.135c-.912.909-.707 1.949-.707 1.949s2.645.693 3.764 0c1.12-.694 2.71-1.388 2.71-1.388v-2.384z" mask="url(#337a1ss7ib)"/>
                            <path fill="#FFBD95" d="M83.405 30.945c.925-2.846 3.317-7.724 1.916-8.574-1.825-1.106-7.078-1.784-7.078-1.784v.09s-5.297.444-7.122 1.55c-1.401.85 1.036 5.963 1.96 8.808.222.683.198 3.745.113 6.46-.02.67-.563 3.749-.47 5.022.027.38 4.337 1.43 5.54 1.492 1.202-.061 5.472-1.203 5.5-1.582.092-1.274-.45-4.353-.471-5.022-.085-2.715-.11-5.777.112-6.46" mask="url(#337a1ss7ib)"/>
                            <path fill="#CEE0FF" d="M71.957 21.954c-1.021-.336-1.977.786-2.572 2.7-.594 1.915-1.13 3.368-1.272 3.87-.146.517-.991 3.39-1.15 4.219-.16.829.249 1.683 1.064 1.937.681.212 1.888-.747 2.578-2.028.69-1.281 4.092-9.795 1.352-10.698" mask="url(#337a1ss7ib)"/>
                            <path fill="#FFBD95" d="M80.44 19.743c-.12-.542-.421-3.222-.421-3.222h-1.774v.09h-1.772s-.301 2.68-.421 3.222c-.12.542-1.58 1.36-1.58 1.36h3.773v-.09h3.774s-1.46-.818-1.58-1.36" mask="url(#337a1ss7ib)"/>
                            <path fill="#FFA47C" d="M80.32 18.987c-.113-.821-.248-1.99-.288-2.353l-.115-.113h-1.672v.09h-1.772s-.302 2.68-.422 3.222c-.12.543-1.58 1.36-1.58 1.36h.18c1.684-.45 3.358-.898 3.583-.963.47-.136 2.085-1.243 2.085-1.243" mask="url(#337a1ss7ib)"/>
                            <path fill="#191919" d="M73.071 38.598L70.443 43.165 70.291 45.137 78.035 45.137 83.827 44.955 84.893 43.163 83.405 38.598z" mask="url(#337a1ss7ib)"/>
                            <path fill="#303030" d="M70.006 44.107l.788 19.06h4.827l.451-19.06s-.717-2.436-3.215-2.436c-2.144 0-2.85 2.436-2.85 2.436" mask="url(#337a1ss7ib)"/>
                            <path fill="#191919" d="M72.86 41.67h-.003c-2.144 0-2.85 2.437-2.85 2.437l.787 19.06h2.067V41.671z" mask="url(#337a1ss7ib)"/>
                            <path fill="#000" d="M80.81 63.141l3.118-.312s1.74 1.228 2.65 2.136c.912.908.707 1.948.707 1.948s-2.645.693-3.765 0c-1.119-.693-2.71-1.387-2.71-1.387V63.14z" mask="url(#337a1ss7ib)"/>
                            <path fill="#303030" d="M85.575 44.392l-.787 19.061h-4.832l-.45-19.06s.717-2.436 3.216-2.436c2.144 0 2.853 2.435 2.853 2.435" mask="url(#337a1ss7ib)"/>
                            <path fill="#191919" d="M82.54 41.978c-2.342.124-3.035 2.415-3.035 2.415l.45 19.06h2.585V41.978z" mask="url(#337a1ss7ib)"/>
                            <path fill="#CEE0FF" d="M85.344 22.156c-1.06-.094-2.584.717-2.716 2.506-.131 1.79.211 3.524.19 3.99-.023.481-.02 2.98.017 3.736.036.754.523 1.46 1.366 1.522.704.054 1.646-1.022 2.016-2.276.37-1.255 1.974-9.226-.873-9.478" mask="url(#337a1ss7ib)"/>
                            <path fill="#CEE0FF" d="M85.861 22.378c-.202-.42-1.527-.73-2.712-1.1-1.046-.326-1.983-.74-1.983-.74L78.261 22.2l-2.902-1.67s-.937.41-1.984.733c-1.187.366-2.513.672-2.716 1.092-.207.426 1.91 8.598 2.147 9.292.237.696-.381 5.557.221 7.011l5.203.17v.001h.012l5.202-.155c.478-1.666-.004-6.407.237-7.102.24-.693 2.386-8.768 2.18-9.194" mask="url(#337a1ss7ib)"/>
                            <path fill="#B8D1FF" d="M79.092 38.133c-.5-.314-1.25-.629-1.705-.912-.454-.283-.012-1.253-.016-1.755-.006-.5 1.383-1.438 2.32-1.78.94-.344 2.566-.217 2.942-.874.376-.657-.624-1.286-1.061-1.286-.439 0-3.251-.82-3.689-.758-.438.063-3.752.402-4.283-.006-.531-.408-2.94-8.407-2.94-8.407.589 2.575 1.994 8.85 2.145 9.292.238.696-.38 5.557.223 7.01l5.202.172h.011l5.203-.155s-1.133-.161-1.6-.304c-.47-.143-2.253.076-2.752-.237M78.029 21.298L78.26 22.278 76.511 21.616 77.521 21.139z" mask="url(#337a1ss7ib)"/>
                            <path fill="#B8D1FF" d="M78.468 21.305L78.246 22.278 79.994 21.615 78.986 21.14z" mask="url(#337a1ss7ib)"/>
                            <path fill="#191919" d="M77.413 21.56L79.12 21.56 78.646 23.046 77.962 23.046zM77.962 23.046L77.046 37.935 78.268 39.267 79.373 37.877 78.645 23.046z" mask="url(#337a1ss7ib)"/>
                            <path fill="#303030" d="M78.645 23.046L79.372 37.877 78.268 39.267 78.273 22.914z" mask="url(#337a1ss7ib)"/>
                            <path fill="#FFBD95" d="M84.59 33.571c-.65.574-1.488.701-3.203-1.055-1.715-1.755-4.498-5.632-4.498-5.632l1.05-.929s3.53 1.99 4.503 2.903c.973.912 3.846 3.212 2.147 4.713" mask="url(#337a1ss7ib)"/>
                            <path fill="#E0F2FF" d="M74.643 20.775L75.656 19.582 78.029 21.298 77.172 22.913zM81.862 20.775L80.849 19.582 78.468 21.305 79.333 22.913z" mask="url(#337a1ss7ib)"/>
                            <path fill="#FFBD95" d="M74.646 14.022c-.078 2.265.782 4.59 2.223 4.76 1.377.164 4.048-1.678 4.314-3.929.266-2.25-.863-4.233-2.917-4.534-1.727-.254-3.54 1.37-3.62 3.703" mask="url(#337a1ss7ib)"/>
                            <path fill="#8D3B26" d="M74.965 12.404s1.966-1.049 3.96.744c.43.386-.106 2.097.002 2.244.116.157.639-1.328.714-1.143.549 1.336.104 3.026.278 3.033.525.023 2.094-2.771 1.255-4.978-.84-2.207-3.162-2.372-3.715-2.24-.552.134-2.093.455-2.494 2.34" mask="url(#337a1ss7ib)"/>
                            <path fill="#FFBD95" d="M79.25 14.898c-.175.626-.246 1.467.083 1.559.328.091.735-.342.909-.968.174-.626.049-1.208-.28-1.3-.328-.091-.538.083-.713.71" mask="url(#337a1ss7ib)"/>
                            <path fill="#CEE0FF" d="M67.402 34.313c-.65-.584-.924-1.788.527-3.602 1.45-1.814 4.493-4.704 4.493-4.704l1.79 1.245s-1.8 3.519-2.54 4.54c-.743 1.022-2.568 4.05-4.27 2.52M84.607 33.794c-.65.573-1.497.682-3.212-1.074-1.715-1.755-4.007-4.971-4.007-4.971l1.491-1.423s2.758 1.589 3.731 2.501c.973.912 3.696 3.466 1.997 4.967" mask="url(#337a1ss7ib)"/>
                            <path fill="#FFBD95" d="M78.468 26.538s-.307-1.43-.66-2.019c-.351-.588-2.933-2.003-3.03-1.888-.098.115.341.668 1.254 1.252.832.531.444 2.126.577 2.55.134.423.92 1.288.92 1.288l.94-1.183zM72.904 25.202l-.088.857c-.044.427.267.811.693.856.426.044.81-.269.854-.695l.089-.857c.044-.427-.268-.812-.694-.857-.426-.043-.81.27-.854.696" mask="url(#337a1ss7ib)"/>
                            <path fill="#FFBD95" d="M72.853 26.133s-.181-.528-.243-1.24c-.007-.076-.061-.188-.067-.264-.005-.06.025-.178.02-.237-.005-.056-.04-.103-.045-.157-.005-.07.054-.169.05-.236-.005-.06-.04-.17-.049-.223-.033-.212.113-.227.11-.293-.012-.206-.012-.267-.004-.305.045-.183.661-.75.784-.807.124-.058.74-.543.802-.49.062.052.115.354-.186.657-.3.306-.648.694-.564.647.083-.044.603-.177.822-.188.142-.006.18.143.161.259-.009.068-.327.31-.327.31s.25.141.245.202c-.014.21-.303.314-.386.376-.069.054.257.107.242.197-.06.34-.892.42-.801.752.045.167-.088.898-.564 1.04" mask="url(#337a1ss7ib)"/>
                            <path fill="#FFBD95" d="M74.285 24.08c-.474.175-.221.731-.178.983.044.252.133.876.122.943-.012.067-.063.528-.063.528s.451-.492.536-.956c.065-.358-.087-.665-.251-.952-.039-.069-.107-.568-.166-.546M75.849 24.288c-.37.345.079.76.217.975.138.215.46.756.476.822.017.066.147.511.147.511s.226-.629.124-1.089c-.08-.355-.339-.58-.6-.78-.062-.049-.318-.483-.364-.44" mask="url(#337a1ss7ib)"/>
                            <path fill="#E0F2FF" d="M80.174 27.018L78.223 28.974 77.231 27.761 78.978 26.021zM73.661 28.476L71.353 26.946 72.603 25.48 74.657 26.853z" mask="url(#337a1ss7ib)"/>
                            <path fill="#99A2A9" d="M5.842 45.149L8.173 45.149 8.173 43.322 5.842 43.322zM8.366 63.393L10.68 63.393 10.68 46.908 8.366 46.908z" mask="url(#337a1ss7ib)"/>
                            <path fill="#303030" d="M14.126 65.31c0 .745.602 1.35 1.346 1.35.745 0 1.348-.605 1.348-1.35 0-.745-.603-1.35-1.348-1.35-.744 0-1.346.605-1.346 1.35M1.916 65.31c0 .745.604 1.35 1.347 1.35.744 0 1.348-.605 1.348-1.35 0-.745-.604-1.35-1.348-1.35-.743 0-1.347.605-1.347 1.35" mask="url(#337a1ss7ib)"/>
                            <path fill="#99A2A9" d="M1.481 64.527h16.082c0-.627-.508-1.134-1.133-1.134H2.615c-.626 0-1.134.507-1.134 1.134M8.739 63.393L9.32 63.393 9.32 48.346 8.739 48.346z" mask="url(#337a1ss7ib)"/>
                            <path fill="#303030" d="M1.937 48.38h15.171c.712 0 1.289-.577 1.289-1.29v-.744c0-.714-.577-1.292-1.289-1.292H1.937c-.712 0-1.289.578-1.289 1.292v.744c0 .713.577 1.29 1.289 1.29" mask="url(#337a1ss7ib)"/>
                            <path fill="#191919" d="M10.675 43.525H3.143C1.414 43.525 0 42.108 0 40.375v-10.43c0-3.806 3.11-6.922 6.909-6.922 3.8 0 6.909 3.116 6.909 6.923v10.43c0 1.732-1.414 3.149-3.143 3.149" mask="url(#337a1ss7ib)"/>
                            <path fill="#303030" d="M10.773 42.32h-5.87c-1.347 0-2.45-1.105-2.45-2.456v-10.24c0-2.968 2.423-5.395 5.385-5.395 2.961 0 5.384 2.427 5.384 5.395v10.24c0 1.35-1.102 2.455-2.45 2.455" mask="url(#337a1ss7ib)"/>
                            <path fill="#FFA47C" d="M31.312 21.375c1.443.858 2.956-2.279 3.618-3.85.662-1.568 2.128-6.336 2.128-6.336l-1.65-.819s-2.859 3.544-4.91 7.77c-.21.435-.654 2.36.814 3.235" mask="url(#337a1ss7ib)"/>
                            <path fill="#191919" d="M15.939 65.776s1.051 1.944.884 2.362c-.094.236-.877 1.004-1.967.839-.827-.126-2-1.159-2.203-1.225-.47-.153.086-2.744.086-2.744l3.2.768z" mask="url(#337a1ss7ib)"/>
                            <path fill="#FFA47C" d="M23.177 12.03c-1.225.94-.814 2.234.186 3.382 1 1.146 7.322 5.943 7.81 5.923.491-.02 2.067-1.592 1.837-2.262-.23-.669-4.981-5.567-5.967-6.366-.985-.8-2.43-1.777-3.866-.677" mask="url(#337a1ss7ib)"/>
                            <path fill="#B8D1FF" d="M24.466 11.546c.586-.039 2.012.084 3.69 1.767 1.121 1.122 3.205 3.324 3.205 3.324s-.38 1.14-1.42 2.08c-1.205 1.09-2.344 1.26-2.344 1.26s-4.465-4.489-4.82-5.733c-.107-.371.062-2.59 1.689-2.698" mask="url(#337a1ss7ib)"/>
                            <path fill="#FFBD95" d="M20.28 5.613s-.203 4.456-.462 4.67c-.805.67-3.727 1.23-4.276 2.399-.666 1.415 2.951 7.786 3.42 9.889.471 2.104-.52 5.358-.841 7.421-.322 2.062 6.146 4.572 6.384 4.573.237 0 2.326-1.947 2.723-2.62.398-.674.019-5.961.022-7.31.004-1.349.327-6.074.388-6.384.409-2.063-.118-3.692-.196-4.128-.078-.437-.053-1.168-.271-1.447-.434-.557-2.854-1.295-2.893-1.573-.038-.277-.358-4.145-.358-4.145l-3.64-1.345z" mask="url(#337a1ss7ib)"/>
                            <path fill="#CEE0FF" d="M19.818 10.284l3.899 2.343.562-1.524s2.557.808 2.889 1.364c.33.556.489 1.97.598 2.417.108.448.168 2.513-.01 4.302-.105 1.047-.083 2.43-.245 4.214-.14 1.526.019 5.327.019 5.327s-1.455.057-3.71-.058c-2.61-.133-5.244-.54-5.36-.636-.504-.414.201-4.466.111-4.914-.09-.447-3.281-8.216-3.33-9.233-.05-1.017.471-1.685 1.24-2.067.77-.381 3.337-1.535 3.337-1.535" mask="url(#337a1ss7ib)"/>
                            <path fill="#B8D1FF" d="M16.865 11.634S14.32 13.041 16.84 15c1.086.846 6.294 2.165 7.274 2.466 3.502 1.078-1.916 8.852-2.331 9.44-.417.586-.412 1.39-.412 1.39l-3.372-.389c-1.047.204.558-4.82.163-5.908-.396-1.087-2.923-7.294-2.92-8.112.003-1.817 1.624-2.252 1.624-2.252" mask="url(#337a1ss7ib)"/>
                            <path fill="#FFA47C" d="M24.059 8.634L20.116 7.205 20.015 9.545 21.231 10.287z" mask="url(#337a1ss7ib)"/>
                            <path fill="#FFBD95" d="M24.91 1.115c-1.027-.872-3.98-1.594-5.336.386-1.355 1.981-.655 3.856.166 5.002.64.894 1.245 1.377 2.428 1.855.24.098 2.403.385 2.827.222.29-.112.432-2.264.518-2.258.086.006.318-.132.324-.307.009-.254-.325-1.784-.27-1.948.057-.166.519-1.953-.658-2.952" mask="url(#337a1ss7ib)"/>
                            <path fill="#8D3B26" d="M25.542 2.047s-1.672-.86-3.636 1.08c-.423.417.47 2.087.367 2.242-.112.167-1.664-1.182-1.598-.991.666 1.947.065 3.057-.114 3.076-.544.059-2.33-2.656-1.585-4.936.744-2.281 3.14-2.601 3.72-2.503.58.098 2.323.157 2.846 2.032" mask="url(#337a1ss7ib)"/>
                            <path fill="#FFBD95" d="M21.649 4.778c.216.62.339 1.462.003 1.576-.335.114-.782-.296-.997-.915-.217-.62-.12-1.215.214-1.329.336-.114.564.048.78.668" mask="url(#337a1ss7ib)"/>
                            <path fill="#191919" d="M21.842 66.385L24.367 66.385 24.367 65.913 21.842 65.913z" mask="url(#337a1ss7ib)"/>
                            <path fill="#191919" d="M21.942 62.588c-.33.464-.554 1.362-.587 1.775-.04.5.258 1.55.585 1.55.953 0 2.095.039 3.08.171.984.135 1.353.701 3.87.695.735-.001 2.03-.046 2.03-.347 0-1.307-2.414-.842-3.18-1.55-1.94-1.79-3.232-2.224-3.232-2.224s-2.498-.165-2.566-.07" mask="url(#337a1ss7ib)"/>
                            <path fill="#191919" d="M23.141 28.12s-3.363 3.37-3.517 4.838c-.154 1.468 1.262 6.168 1.764 9.864.5 3.696.81 4.443.685 5.315-.125.873-1.114 4.407-1.08 6.763.04 2.745-.105 8.37-.105 8.37s.732.574 2.62.566c1.215-.005 2.263-.868 2.263-.868s.759-13.803.912-15.254c.1-.938.866-7.412 1.1-12.692.076-1.698-.314-6.555-.313-7.257l-4.329.355z" mask="url(#337a1ss7ib)"/>
                            <path fill="#B8D1FF" d="M23.545 11.7L23.716 12.626 21.662 11.404zM23.716 12.626L24.041 11.477 24.536 11.864z" mask="url(#337a1ss7ib)"/>
                            <path fill="#303030" d="M17.903 27.886s-1.345 3.301-1.878 5.507c-.534 2.208-1.171 13.63-1.362 14.704-.191 1.074-.86 4.358-1.38 7.604-.517 3.244-.826 9.763-.826 9.763l4.148.648s2.472-13.667 2.862-15.815c.39-2.149 4.502-17.383 4.502-17.383l.509-4.903-6.575-.125z" mask="url(#337a1ss7ib)"/>
                            <path fill="#191919" d="M18.032 37.22c-.347 1.464-1.361 11.397-1.444 11.958-.08.55-2.647 15.795-2.766 16.5l-1.365-.215s.31-6.517.827-9.762c.518-3.246 1.188-6.53 1.379-7.603.191-1.075.828-12.497 1.361-14.704.534-2.207 1.88-5.508 1.88-5.508l3.632.11s-3.157 7.762-3.504 9.225" mask="url(#337a1ss7ib)"/>
                            <path fill="#3B1B1D" d="M17.81 27.886s6.386.107 6.767.117c.381.01 2.892-.238 2.892-.238l.049 1.01s-2.433.203-3.6.203c-1.165 0-6.338-.271-6.338-.271l.23-.821z" mask="url(#337a1ss7ib)"/>
                            <path fill="#722C1D" d="M24.946 29.108h-.534c-.3 0-.544-.245-.544-.544v-.08c0-.299.245-.544.544-.544h.534c.3 0 .544.245.544.545v.079c0 .299-.244.544-.544.544" mask="url(#337a1ss7ib)"/>
                            <path fill="#191919" d="M22.996 12.03L24.46 11.651 24.341 12.85 23.599 13.022zM24.342 12.85s1.13 2.1 1.524 5.337c.394 3.237-.152 10.669-.152 10.669l-.841 1.482-1.017-1.75s1.072-7.772.83-10.143c-.241-2.372-1.088-5.422-1.088-5.422l.744-.173z" mask="url(#337a1ss7ib)"/>
                            <path fill="#E0F2FF" d="M19.281 10.522L20.015 9.544 23.545 11.7 22.983 12.961zM24.042 11.477L24.881 12.441 25.012 11.413 24.311 10.737z" mask="url(#337a1ss7ib)"/>
                            <path fill="#FFBD95" d="M16.602 12.384c-1.513.296-1.737 1.604-1.372 3.036.366 1.431 4.212 9.468 4.655 9.662.443.193 2.555-.505 2.655-1.19.101-.683-2.307-8.134-2.817-9.256-.51-1.122-1.347-2.597-3.121-2.252" mask="url(#337a1ss7ib)"/>
                            <path fill="#CEE0FF" d="M17.932 12.4c.542.229 1.717.963 1.995 2.048.393 1.539 1.717 5.496 1.717 5.496s-.85.85-2.2 1.221c-1.566.433-2.658.073-2.658.073s-1.858-6.001-1.745-7.29c.091-1.034 1.39-2.183 2.891-1.549" mask="url(#337a1ss7ib)"/>
                            <path fill="#FFBD95" d="M19.716 22.768c-1.361.983.907 3.625 2.08 4.858 1.172 1.235 4.95 4.483 4.95 4.483l1.409-1.19S26.051 26.88 23 23.31c-.313-.366-1.899-1.541-3.284-.541M28.581 34.828v-.001c.156-.089.21-.29.121-.445l-.693-1.21c-.089-.156-.289-.211-.445-.12h-.001c-.155.09-.209.29-.12.445l.692 1.21c.09.157.29.21.446.12" mask="url(#337a1ss7ib)"/>
                            <path fill="#FFBD95" d="M29.138 34.574l.001-.001c.156-.089.209-.289.12-.445l-.692-1.21c-.09-.156-.29-.21-.446-.12-.155.09-.21.29-.12.445l.692 1.21c.09.157.29.211.445.12" mask="url(#337a1ss7ib)"/>
                            <path fill="#FFBD95" d="M29.666 34.295l.002-.002c.154-.088.207-.289.119-.444l-.693-1.21c-.09-.156-.29-.211-.445-.12h-.001c-.155.09-.208.289-.12.445l.692 1.21c.09.156.29.21.446.121" mask="url(#337a1ss7ib)"/>
                            <path fill="#FFBD95" d="M30.149 33.977l.002-.001c.154-.09.207-.29.12-.445l-.694-1.21c-.089-.157-.289-.21-.444-.12h-.002c-.155.089-.208.29-.12.444l.692 1.211c.09.157.29.21.446.12" mask="url(#337a1ss7ib)"/>
                            <path fill="#FFBD95" d="M27.342 29.917s1.859 1.366 2.128 1.726c.27.36.84 2.027.84 2.027s-.773-.17-1.092.077c-.318.247-1.082.962-1.082.962s-1.074-1.086-1.39-1.726c-.315-.638-.478-1.339-.478-1.339l1.074-1.727z" mask="url(#337a1ss7ib)"/>
                            <path fill="#FFA47C" d="M35.227 10.774s.448-1.359 1.318-1.483c.871-.124 2.512-.14 2.512-.14s-.234 1.023-.477 1.15c-.243.129-1.844 1.185-1.844 1.185l-1.509-.712z" mask="url(#337a1ss7ib)"/>
                            <path fill="#FFA47C" d="M35.587 10.186s-.051-.433 1.036-1.52c.21-.211.482-1.05.546-1.124.064-.074.311.249.3.57-.013.323-.159.55-.072.771.086.222.178.42-.17.854-.348.432-1.64.45-1.64.45M37.98 9.661c.162-.057.154-.26.125-.485l.039-.002s.943-.133 1.242-.345c.127-.09.196-.271.264-.384.01.102.143-.447.228-.903.086-.458.387-.596.472-.574.085.023.034.875.058 1.02.025.146-.1 1.046-.236 1.2-.029.03-.082.068-.273.184-.061.038.017.178-.194.279-.052.026-.171.063-.226.095-.065.037-.114.15-.182.19-.05.03-.114.026-.167.055-.056.033-.141.132-.2.166-.07.04-.203.06-.274.102-.673.384-1.256.548-1.256.548-.167-.514.401-1.084.58-1.146" mask="url(#337a1ss7ib)"/>
                            <path fill="#FFA47C" d="M39.386 8.83c-.299.211-1.242.344-1.242.344l-.039.001c-.033-.26-.094-.553.049-.693.071-.07.32.188.324.095.006-.114-.081-.436.097-.58.052-.04.333.095.333.095s.018-.432.073-.484c.093-.087.249-.145.33-.014.125.202.329.749.34.851-.07.113-.138.295-.265.385" mask="url(#337a1ss7ib)"/>
                            <path fill="#99A2A9" d="M49.766 62.288L52.081 62.288 52.081 45.803 49.766 45.803z" mask="url(#337a1ss7ib)"/>
                            <path fill="#303030" d="M55.526 64.205c0 .745.604 1.35 1.348 1.35.744 0 1.347-.605 1.347-1.35 0-.746-.603-1.35-1.347-1.35s-1.348.604-1.348 1.35M43.317 64.205c0 .745.604 1.35 1.347 1.35.744 0 1.348-.605 1.348-1.35 0-.746-.604-1.35-1.348-1.35-.743 0-1.347.604-1.347 1.35" mask="url(#337a1ss7ib)"/>
                            <path fill="#99A2A9" d="M42.882 63.423h16.082c0-.627-.507-1.135-1.133-1.135H44.016c-.626 0-1.134.508-1.134 1.135M50.14 62.288L50.721 62.288 50.721 47.24 50.14 47.24z" mask="url(#337a1ss7ib)"/>
                            <path fill="#303030" d="M43.338 47.544h15.171c.712 0 1.289-.578 1.289-1.292v-.743c0-.713-.577-1.291-1.289-1.291H43.338c-.712 0-1.289.578-1.289 1.29v.744c0 .714.577 1.292 1.289 1.292" mask="url(#337a1ss7ib)"/>
                            <path fill="#191919" d="M53.101 42.42H45.57c-1.729 0-3.143-1.417-3.143-3.15V28.84c0-3.807 3.109-6.922 6.91-6.922 3.799 0 6.908 3.115 6.908 6.922v10.43c0 1.733-1.414 3.15-3.143 3.15" mask="url(#337a1ss7ib)"/>
                            <path fill="#303030" d="M53.22 41.332h-5.87c-1.347 0-2.449-1.105-2.449-2.455V28.636c0-2.967 2.423-5.395 5.384-5.395 2.962 0 5.385 2.428 5.385 5.395v10.24c0 1.351-1.103 2.456-2.45 2.456" mask="url(#337a1ss7ib)"/>
                            <path fill="#8D3B26" d="M53.059 13.34s1.352-1.481 2.463-.348.76 3.206.065 3.778c-.695.572-2.1 3.304-1.905 3.374.193.07-.131.524-.574.383-.443-.14-1.633-.859-.994-2.222.64-1.363.433-2.526.433-2.526l.512-2.44z" mask="url(#337a1ss7ib)"/>
                            <path fill="#FFA47C" d="M57.163 21.804c.898-.13 1.935 2.576 2.275 5.57.59 5.2 1.54 6.798-.032 7.174-1.426.342-1.76-1.766-2.855-6.122-.857-3.405-1.25-6.354.612-6.622" mask="url(#337a1ss7ib)"/>
                            <path fill="#FFBD95" d="M57.367 40.492c.642.526.612 1.475.294 2.708-.435 1.682-2.134 4.14-2.285 4.378-.693 1.09-3.094 1.044-3.46.178-.1-.239-.533-5.026-.4-5.562.132-.538.265-1.524 1.128-2.12.641-.444 3.766-.368 4.723.418" mask="url(#337a1ss7ib)"/>
                            <path fill="#FFA47C" d="M44.537 22.42c.343-.773 2.55-1.18 3.363-1.422.83-.248 3.284-.333 3.284-.333s2.455.085 3.284.333c.812.241 3.02.649 3.363 1.422.518 1.17-3.039 8.672-2.574 12.986.154 1.431 2.704 5.567 2.345 6.96-.438 1.706-6.086 2.76-6.086 2.76h-.664s-5.647-1.054-6.085-2.76c-.36-1.393 2.272-5.469 2.268-6.91-.023-7.57-3.016-11.867-2.498-13.036" mask="url(#337a1ss7ib)"/>
                            <path fill="#FFBD95" d="M45 40.492c-.641.526-.611 1.475-.293 2.708.436 1.682 2.134 4.14 2.286 4.378.692 1.09 3.093 1.044 3.458.178.1-.239.534-5.026.401-5.562-.132-.538-.265-1.524-1.128-2.12-.641-.444-3.766-.368-4.723.418" mask="url(#337a1ss7ib)"/>
                            <path fill="#FFA47C" d="M49.41 19.401c.248-.647.223-3.09.223-3.09H52.735s-.025 2.443.224 3.09c.248.649 1.51 1.596 1.51 1.596H47.9s1.26-.947 1.51-1.596" mask="url(#337a1ss7ib)"/>
                            <path fill="#8D3B26" d="M54.018 63.975s-.1.954.154 1.49c.253.535 1.168 1.643 1.59 1.505.42-.138.847-1.403.894-1.604.29-1.244-.481-3.192-.481-3.192l-2.157 1.8z" mask="url(#337a1ss7ib)"/>
                            <path fill="#FFA47C" d="M47.111 44.488c1.215-.56 1.992-.008 3.583 3.525 1.59 3.533 5.283 13.428 4.975 13.643-.31.215-1.59.942-1.986-.278-.268-.826-.92-1.686-2.117-3.243-2.159-2.805-4.415-6.196-4.742-6.92-.517-1.148-1.657-5.828.287-6.727" mask="url(#337a1ss7ib)"/>
                            <path fill="#FFA47C" d="M53.684 61.377s.303 2.728.422 3.013c.12.284.871 1.24 1.254 1.065 1.069-.494 1.07-2.843.733-3.5-.336-.655-.69-1.371-.69-1.371l-1.72.793z" mask="url(#337a1ss7ib)"/>
                            <path fill="#FFBD95" d="M53.536 43.54c-1.314.198-1.695 1.1-1.262 4.98.432 3.882 2.29 14.326 2.66 14.338.372.012 1.77.147 1.52-1.115-.167-.845.017-2.674.206-5.043.245-3.055.53-6.995.448-7.725-.14-1.26-1.47-5.75-3.572-5.434" mask="url(#337a1ss7ib)"/>
                            <path fill="#8D3B26" d="M57.444 63.918s.565.756.621 1.35c.055.595-.162 2.043-.589 2.16-.427.117-1.428-.72-1.568-.864-.874-.895-1.203-2.976-1.203-2.976l2.74.33z" mask="url(#337a1ss7ib)"/>
                            <path fill="#FFBD95" d="M56.417 61.53s1.12 2.482 1.161 2.789c.043.309-.113 1.538-.527 1.6-1.156.175-2.341-1.818-2.387-2.56-.045-.744-.106-1.548-.106-1.548l1.859-.281z" mask="url(#337a1ss7ib)"/>
                            <path fill="#FFA47C" d="M45.232 22.097c-.812-.268-2.206 2.285-3.193 5.171-1.712 5.006-2.286 6.52-.895 7.136 1.262.559 1.519-1.494 3.38-5.644 1.455-3.245 2.39-6.107.708-6.663" mask="url(#337a1ss7ib)"/>
                            <path fill="#0057E4" d="M44.183 43.651c-.315-3.407 2.493-7.082 2.506-8.545.006-.698-.14-5.033-.53-5.46-.395-.428-1.016-4.181-1.016-4.181s5.12-1.32 6.634-1.345c1.59-.028 5.554 1.092 5.554 1.092s-.193 3.348-.94 4.15c-.723.775-.804 5.212-.795 6.126.014 1.461 1.781 2.615 2.607 5.816.824 3.203-.443 11.35-.443 11.35s-1.68.538-7.435.247c-2.763-.139-3.853-.83-3.853-.83s-1.553-3.71-1.377-6.945c.077-1.401-.82-.48-.912-1.475" mask="url(#337a1ss7ib)"/>
                            <path fill="#FFA47C" d="M49.41 19.401l.19-1.43c.022-.455.03-.913.033-1.233v-.006l1.415-.421H52.735s-.025 2.443.224 3.09c.248.649 1.51 1.596 1.51 1.596s-2.13-.53-2.53-.672c-.4-.142-2.53-.924-2.53-.924" mask="url(#337a1ss7ib)"/>
                            <path fill="#FFBD95" d="M54.167 15.397c-.77 2.317-3.375 3.534-4.555 3.14-1.15-.381-2.078-2.794-1.521-5.206.548-2.379 2.442-3.417 4.189-2.835 1.747.582 2.655 2.585 1.887 4.901" mask="url(#337a1ss7ib)"/>
                            <path fill="#8D3B26" d="M50.214 11.85c.151.708.744 1.22 2.169 1.576 1.02.254 1.453 1.801 1.347 2.369-.04.217-.46 1.224-.46 1.224s2.572-1.778 1.03-4.846c-1.543-3.07-4.233-1.916-4.287-1.706-.055.209.129 1.04.201 1.382" mask="url(#337a1ss7ib)"/>
                            <path fill="#8D3B26" d="M50.897 11.391s-.162.997-1.043 1.058c-.881.06-1.814.633-1.814.633s.223-2.39 1.973-2.615c1.75-.225.884.924.884.924" mask="url(#337a1ss7ib)"/>
                            <path fill="#0049BF" d="M58.203 41.305c.834 3.365-.443 11.348-.443 11.348-.764.02-.08-6.257-.897-9.11-.538-1.882-5.05-2.85-5.152.232-.136 4.102-1.112 3.776-1.426 2.167-1.076-5.519-4.598-7.933-3.253-7.866 3.517.173 6.82-1.52 6.82-1.52s-.073-1.34 0-2.028c.071-.69-1.104-2.549-1.82-3.17-.713-.618-3.514-.883-3.514-.883l1.427-.395s1.91-.167 3.078-.013c1.168.152 2.268-.98 2.97-1.406.703-.426.905-3.568.905-3.568l.433.118s-.193 3.35-.94 4.15c-.723.776-.804 5.214-.796 6.127.014 1.462 1.812 2.607 2.608 5.817" mask="url(#337a1ss7ib)"/>
                            <path fill="#303030" d="M55.615 35.73s-3.95.688-4.852.655c-.902-.033-4.153-.654-4.153-.654l-.271.655s4.054.78 4.424.734c.37-.045 5.068-.693 5.068-.693l-.216-.696z" mask="url(#337a1ss7ib)"/>
                            <path fill="#0057E4" d="M57.331 25.212l1.706-1.094s-.392-1.532-1.664-2.284c-.316-.187-1.676-.511-1.676-.511l-.87 3.259 2.504.63zM45.268 26.182l-2.575-.85s.88-2.567 1.66-3.325c.518-.504 2.73-.943 2.73-.943l.87 3.78-2.685 1.338z" mask="url(#337a1ss7ib)"/>
                            <path fill="#FFBD95" d="M40.81 34.182c.864.863 2.742-.19 4.665-2.467 2.214-2.625 4.53-5.41 3.997-5.915-.73-.69-2.78 1.398-5.455 3.474-2.71 2.102-4.42 3.697-3.206 4.908" mask="url(#337a1ss7ib)"/>
                            <path fill="#FFBD95" d="M47.953 26.287s.307-1.429.659-2.018c.352-.588 2.934-2.004 3.031-1.888.098.115-.536.942-1.102 1.53-.684.711-.596 1.848-.729 2.27-.134.425-.92 1.29-.92 1.29l-.94-1.184zM59.669 34.492c-.74.412-2.424-.263-3.875-2.544-1.672-2.63-4.129-6.358-3.512-6.789.288-.201.896-.3 1.292.25.83 1.157 2.639 2.954 4.1 4.368 2.252 2.18 3.417 3.922 1.995 4.715" mask="url(#337a1ss7ib)"/>
                            <path fill="#FFBD95" d="M53.986 24.707l-.035.447c-.04.54-.515.95-1.055.908-.54-.041-.948-.516-.908-1.057l.034-.447c.04-.541.516-.95 1.056-.908.54.04.948.516.908 1.057" mask="url(#337a1ss7ib)"/>
                            <path fill="#FFBD95" d="M53.886 25.426s.273-.488.46-1.178c.02-.073.092-.174.112-.247.016-.059.007-.179.022-.238.014-.053.058-.093.072-.145.019-.07-.022-.177-.005-.242.014-.057.068-.16.086-.21.07-.204-.071-.243-.055-.308.048-.201.059-.26.056-.3-.011-.187-.517-.855-.627-.933-.112-.08-.632-.666-.703-.626-.07.04-.176.328.067.682.242.353.515.796.44.736-.073-.06-.562-.282-.776-.332-.137-.032-.201.108-.204.226-.003.069.267.362.267.362s-.27.097-.277.157c-.024.21.243.362.313.44.059.064-.273.058-.273.15-.001.343.804.57.655.882-.074.156-.073.898.37 1.124M52.417 23.074c.436.257.089.76 0 .998-.087.24-.286.839-.286.907 0 .068-.031.53-.031.53s-.358-.564-.358-1.034c0-.365.203-.64.415-.894.05-.06.206-.54.26-.507" mask="url(#337a1ss7ib)"/>
                            <path fill="#79858E" d="M32.464 40.235L93.666 40.235 93.666 34.898 32.464 34.898z" mask="url(#337a1ss7ib)"/>
                            <path fill="#79858E" d="M31.766 68.905L33.917 68.905 33.917 34.898 31.766 34.898zM92.2 68.905L94.35 68.905 94.35 34.898 92.2 34.898z" mask="url(#337a1ss7ib)"/>
                            <path fill="#B9B9BD" d="M94.398 38.511L31.776 39.042 31.776 37.271 94.398 37.29z" mask="url(#337a1ss7ib)"/>
                            <path fill="#99A2A9" d="M29.175 37.283L97 37.283 97 34.392 29.175 34.392z" mask="url(#337a1ss7ib)"/>
                        </g>
                    </g>
                </g>
            </g>
        </g>
    </g>
</svg>
