<svg xmlns="http://www.w3.org/2000/svg" width="120" height="70" viewBox="0 0 120 70">
    <g fill="none" fill-rule="evenodd">
        <g>
            <g>
                <g>
                    <path fill="#F6F8FB" d="M0 5H120V65H0z" transform="translate(-688.000000, -356.000000) translate(625.000000, 327.000000) translate(63.000000, 29.000000)"/>
                    <g>
                        <path fill="#DDE3EB" d="M67.35 36.937c-3.85-1.778-10.486-.95-14.823 1.846-4.335 2.796-4.729 6.503-.878 8.28 3.852 1.777 10.489.952 14.824-1.845 4.335-2.797 4.729-6.505.877-8.281M18.35 58.937c-3.85-1.778-10.486-.95-14.823 1.846-4.335 2.796-4.729 6.503-.878 8.28 3.852 1.778 10.489.951 14.824-1.845 4.335-2.797 4.729-6.505.877-8.281M42.35 45.937c-3.85-1.778-10.486-.95-14.823 1.846-4.335 2.796-4.728 6.503-.878 8.28 3.852 1.778 10.489.952 14.824-1.846 4.335-2.796 4.729-6.504.877-8.28" transform="translate(-688.000000, -356.000000) translate(625.000000, 327.000000) translate(63.000000, 29.000000) translate(25.000000, 0.000000)"/>
                        <path fill="#F7D5A4" d="M50.755 10.182L50.65 10c-.279 1.29-.793 2.733-1.206 4-.134.408-.233.822-.474 1.102-.21.247-3.086 1.787-4.229 2.508-.106.054-.226.135-.28.166-.21.111-.378.267-.574.046-.135-.151-.134-.127-.29-.25-.173-.138-.515-.296-.707-.32-.126-.016-.164-.065-.244-.174-.064-.084-.134-.126-.231-.163-.231-.087-.296.133-.206.354.083.204.289.296.37.493-.305.026-.588.229-.888.233-.334.004-.661-.016-.993.003-.18.01-.437 0-.6.095-.252.147.043.377.204.4.1.013.197-.025.29-.025.118 0 .237.044.355.05.14.004.286-.002.427.004.1.005.415-.018.466.09-.308.202-.647.332-.97.5-.192.1-.4.175-.593.285-.075.044-.19.105-.234.192-.05.092-.015.101.048.18.136-.036.257-.071.394-.081.166-.01.318-.077.486-.103.311-.05.586-.182.88-.292.055.115-.471.45-.556.519-.182.148-.364.297-.546.448-.264.219.017.281.206.212.09-.033.168-.085.25-.14.122-.082.898-.475.966-.465-.015.08-.1.15-.144.22-.053.086-.103.174-.166.252-.096.124-.325.392-.33.567-.01.34.741-.344.82-.43.133-.139.29-.31.468-.375.174-.064.363-.084.536-.162.125-.055.224-.154.33-.239.214-.172.486-.32.712-.467.028-.019.065-.033.107-.047.092-.011.216-.036.367-.072.094-.013.19-.025.281-.04l.002-.03c1.774-.464 5.763-1.842 5.969-2.077.477-.549.58-2.536.679-3.32.126-.985.49-2.363-.273-3.087-.216-.203-.484-.414-.774-.378" transform="translate(-688.000000, -356.000000) translate(625.000000, 327.000000) translate(63.000000, 29.000000) translate(25.000000, 0.000000)"/>
                        <path fill="#99A2A9" d="M63.336 37.06c-2.177-1.386-5.66-1.416-7.778-.07-2.118 1.35-2.07 3.566.106 4.951 2.177 1.385 5.66 1.415 7.779.067 2.117-1.348 2.07-3.563-.107-4.949" transform="translate(-688.000000, -356.000000) translate(625.000000, 327.000000) translate(63.000000, 29.000000) translate(25.000000, 0.000000)"/>
                        <path fill="#010714" d="M67.685 45.02c-.524-.11-.808.24-.634.78.173.541.739 1.07 1.263 1.18.524.11.809-.239.635-.78-.173-.54-.74-1.068-1.264-1.18" transform="translate(-688.000000, -356.000000) translate(625.000000, 327.000000) translate(63.000000, 29.000000) translate(25.000000, 0.000000)"/>
                        <path fill="#99A2A9" d="M61.84 41L60 42.283l7.776 1.899 1.078.818s.742-.12.77-.2c.03-.08.376-.83.376-.83l-.36-.821L61.84 41z" transform="translate(-688.000000, -356.000000) translate(625.000000, 327.000000) translate(63.000000, 29.000000) translate(25.000000, 0.000000)"/>
                        <path fill="#010714" d="M51.998 46.156c-.553.367-1 1.267-.998 2.008 0 .743.45 1.047 1.002.68.553-.367.999-1.267.998-2.009-.002-.741-.45-1.047-1.002-.679" transform="translate(-688.000000, -356.000000) translate(625.000000, 327.000000) translate(63.000000, 29.000000) translate(25.000000, 0.000000)"/>
                        <path fill="#99A2A9" d="M50 45.996l.002 1.093s.66.784.72.873c.064.087.836-.002.836-.002l.698-1.313L59 41.957 56.66 41 50 45.996z" transform="translate(-688.000000, -356.000000) translate(625.000000, 327.000000) translate(63.000000, 29.000000) translate(25.000000, 0.000000)"/>
                        <path fill="#010714" d="M49.73 37.012c-.712.085-.942.598-.517 1.143.426.546 1.347.918 2.058.833.71-.086.941-.598.516-1.143-.426-.546-1.346-.918-2.057-.833" transform="translate(-688.000000, -356.000000) translate(625.000000, 327.000000) translate(63.000000, 29.000000) translate(25.000000, 0.000000)"/>
                        <path fill="#99A2A9" d="M50.333 35l-.927.63s-.358 1.06-.403 1.168c-.044.107.395.772.395.772l1.443-.11L58 41l-.288-2.714L50.333 35z" transform="translate(-688.000000, -356.000000) translate(625.000000, 327.000000) translate(63.000000, 29.000000) translate(25.000000, 0.000000)"/>
                        <path fill="#010714" d="M68.49 37.188c-.623-.323-1.569-.22-2.116.228-.548.45-.486 1.075.136 1.397.623.321 1.57.219 2.118-.23.545-.448.485-1.073-.138-1.395" transform="translate(-688.000000, -356.000000) translate(625.000000, 327.000000) translate(63.000000, 29.000000) translate(25.000000, 0.000000)"/>
                        <path fill="#99A2A9" d="M68.458 35.444L67.427 35l-7.392 3.627L60 41l7.136-3.823 1.521-.06s.395-.62.337-.707c-.058-.088-.536-.966-.536-.966" transform="translate(-688.000000, -356.000000) translate(625.000000, 327.000000) translate(63.000000, 29.000000) translate(25.000000, 0.000000)"/>
                        <path fill="#63707B" d="M59 37L60 37 60 27 59 27z" transform="translate(-688.000000, -356.000000) translate(625.000000, 327.000000) translate(63.000000, 29.000000) translate(25.000000, 0.000000)"/>
                        <path fill="#79858E" d="M66.88 13.2c-.535-2.492-2.889-5.486-5.734-7.119-2.845-1.634-5.24-1.369-5.828.48-.078.045-.13.145-.13.284 0 0 .747 7.032.66 9.39-.053 1.488-.848 5.911-.848 5.911-.003.28.187.615.422.751l10.41 6.04c.237.136.362.05.365-.228 0 0-.217-5.355-.21-7.435C65.99 19.5 67 13.629 67 13.629c.002-.14-.045-.292-.12-.428" transform="translate(-688.000000, -356.000000) translate(625.000000, 327.000000) translate(63.000000, 29.000000) translate(25.000000, 0.000000)"/>
                        <path fill="#99A2A9" d="M64.886 13.907c-.507-2.39-2.692-5.27-5.322-6.852-2.63-1.582-4.834-1.34-5.365.426-.072.043-.117.137-.117.27 0 0 .517 6.63.452 8.888-.041 1.424-.534 5.764-.534 5.764-.001.267.175.59.394.72L64.43 29c.096 0 .06-.375.062-.642 0 0-.445-4.456-.452-6.448-.007-1.697.96-7.592.96-7.592 0-.132-.043-.28-.114-.411" transform="translate(-688.000000, -356.000000) translate(625.000000, 327.000000) translate(63.000000, 29.000000) translate(25.000000, 0.000000)"/>
                        <path fill="#63707B" d="M61.137 34.915c.008-.237-.111-.475-.36-.654-.492-.354-1.298-.347-1.801.015-.248.178-.375.41-.384.64 0 0-.461 3.598-.57 4.462-.09.433.09.885.546 1.212.772.556 2.039.545 2.828-.025.552-.397.726-.96.52-1.452l-.78-4.198z" transform="translate(-688.000000, -356.000000) translate(625.000000, 327.000000) translate(63.000000, 29.000000) translate(25.000000, 0.000000)"/>
                        <path fill="#79858E" d="M43.058 28.722s-.13.364 0 .54c.564.76 2.538 3.303 3.37 3.84C48.057 34.153 53.786 35 53.786 35L65 28.885 54.061 23l-11.003 5.722z" transform="translate(-688.000000, -356.000000) translate(625.000000, 327.000000) translate(63.000000, 29.000000) translate(25.000000, 0.000000)"/>
                        <path fill="#63707B" d="M43 28.065s2.1 2.979 3.1 3.641C47.69 32.758 53.398 34 53.398 34L64 27.971 53.666 22 43 28.065z" transform="translate(-688.000000, -356.000000) translate(625.000000, 327.000000) translate(63.000000, 29.000000) translate(25.000000, 0.000000)"/>
                        <path fill="#63707B" d="M63.907 16.116c-.416-1.847-2.204-4.076-4.355-5.3-2.152-1.223-3.954-1.037-4.388.328-.059.037-.097.108-.097.212 0 0 .424 5.128.37 6.874-.033 1.102-.437 4.459-.437 4.459-.002.206.144.455.323.558l8.284 4.71c.18.102.326.018.326-.19 0 0-.713-3.919-.72-5.46-.005-1.313.787-5.872.787-5.872 0-.103-.035-.216-.093-.319" transform="translate(-688.000000, -356.000000) translate(625.000000, 327.000000) translate(63.000000, 29.000000) translate(25.000000, 0.000000)"/>
                        <path fill="#2F312F" d="M52.074 46.008c-.665.061-1.248.53-1.794.912-.211.448-.43.902-.737 1.285-.137.282-.28.562-.416.844-.003.093-.15.431-.124.495.264.63 2.283.491 2.758.268.79-.369.839-1.346 1.075-2.138.22-.744.406-1.775-.762-1.666" transform="translate(-688.000000, -356.000000) translate(625.000000, 327.000000) translate(63.000000, 29.000000) translate(25.000000, 0.000000)"/>
                        <path fill="#010714" d="M51.895 43.67c-.337-.106-.68-.332-.841-.67v.031c-.009.284-.156.663-.25.928-.105.292-.232.569-.385.835-.23.407-.42.83-.59 1.27-.157.41-.236.919-.46 1.29-.219.362-.399.659-.365 1.11.011.153.048.377.173.478.118.092.36.049.504.042.175-.008.347-.065.52-.075.199-.011.398-.016.591-.048.487-.08.885-.207 1.248-.584.368-.384.63-.896.722-1.438.115-.69.238-1.38.238-2.078 0-.439-.021-.872-.03-1.304-.288.264-.696.333-1.075.213" transform="translate(-688.000000, -356.000000) translate(625.000000, 327.000000) translate(63.000000, 29.000000) translate(25.000000, 0.000000)"/>
                        <path fill="#2F312F" d="M42.767 41.013c-.49.144-1.01.306-1.52.34-.71.046-1.425.11-2.106.351-.555.195-1.07.413-1.654.508-.484.078-.892-.432-1.261-.723-.607 1.117.08 1.562 1.222 1.506.61-.029 1.206-.198 1.79-.348.49-.126.97-.251 1.437-.431.193-.073.397-.129.59-.206.01.087-.005.18.008.273.176-.044.396.015.588-.013.176-.025.345-.052.51-.121.332-.14.543-.366.61-.733.045-.252.024-.473-.214-.403" transform="translate(-688.000000, -356.000000) translate(625.000000, 327.000000) translate(63.000000, 29.000000) translate(25.000000, 0.000000)"/>
                        <path fill="#010714" d="M41.527 40.547c-.192-.042-.41-.096-.57-.201-.113-.074-.252-.3-.337-.326l-.015-.02c-.089.013-.135.086-.214.134-.116.068-.261.103-.392.14-.285.084-.577.094-.874.131-.604.074-1.349.547-1.903.783-.454.194-.631.141-.916.514-.229.293-.478.736-.143 1.027.367.316 1.14.29 1.62.241.764-.08 1.482-.332 2.219-.529.561-.149 1.049-.194 1.634-.228.509-.03.765-.083 1.041-.297.512-.395.372-1.026-.116-1.482-.23.326-.682.188-1.034.113M56.346 22.251c-.88-.008-1.748.095-2.63.056-.52-.023-.966-.225-1.471-.225v-.057c-.382-.18-1.656.66-2.08.849-1.007.448-1.965.963-2.937 1.47-1.376.717-3.126 1.455-3.934 2.77-.645 1.052-.206 2.97 1.095 3.083 1.421.12 7.348-2.879 7.908-2.847.12.476-.316.93-.526 1.346-.31.614-.607 1.223-.935 1.828-.529.973-1.698 3.405-1.43 4.55.34 1.446 2.326 1.043 3.952-.144.943-.686 1.637-1.873 2.511-2.625.897-.77 1.848-1.485 2.499-2.461.71-1.067 1.238-2.114 1.452-3.349.134-.776.287-1.974.075-2.716-.406-1.416-2.218-1.518-3.549-1.528" transform="translate(-688.000000, -356.000000) translate(625.000000, 327.000000) translate(63.000000, 29.000000) translate(25.000000, 0.000000)"/>
                        <path fill="#9FC3DD" d="M52.66 5.033c.008.051-.017.047-.031.072l.03-.072c-.571.075-.865.284-1.21.808-.46.692-.396 1.917-.414 2.73-.013.514-.024 1.027-.035 1.54.33.75.695 1.578 1.289 2.115.457.415 1.032.578 1.59.774.644-2.061 1.608-4.553.833-6.57-.192-.5-1.455-1.639-2.052-1.397" transform="translate(-688.000000, -356.000000) translate(625.000000, 327.000000) translate(63.000000, 29.000000) translate(25.000000, 0.000000)"/>
                        <path fill="#CEE0FF" d="M54.275 5.009c-.373-.065-1.33.256-1.711.265-1.596.996-1.929 2.399-1.818 3.446.002.016-.009.028-.013.04l.045 1.497c-.104.174-.217.341-.348.497-.22.264-.44.383-.43.736.013.436.201.9.33 1.318.184.586.442 1.134.716 1.685.123.25.221.506.304.767l.01.134c.086 1.124.252 2.285.202 3.415-.037.798-.183 1.573-.407 2.328.182.545.367 1.11.655 1.61.608.78 1.55 1.271 2.634 1.252 1.076-.02 2.19-.313 3.132-.842.43-.241.685-.492.948-.899l.094-.142c-.13-.604-.206-1.214-.197-1.825.015-1.055.46-2.003.87-2.955.078-.181.158-.368.24-.555.132-.497.268-.993.425-1.48.111-.344.257-.908.469-1.46.018-.092.03-.182.05-.272.137-.642.278-1.718.797-2.197.017-.016.035-.03.052-.044.163-.332.379-.627.676-.847-.046-.032-.079-.275-.125-.302 0 0-5.307-4.767-7.6-5.17" transform="translate(-688.000000, -356.000000) translate(625.000000, 327.000000) translate(63.000000, 29.000000) translate(25.000000, 0.000000)"/>
                        <path fill="#F7D5A4" d="M57.604 6.01c-.326-.075-.686.311-1.021.364-.427.068-1.524.54-1.565 1.141l.056-.167c.003.414-.003.805-.048 1.205-.033.293-.055.593.066.855.255.546.702.702 1.186.518.508-.193 1.303-.538 1.553-1.123.223-.53.202-1.24.072-1.802-.124-.53.03-.918-.299-.992" transform="translate(-688.000000, -356.000000) translate(625.000000, 327.000000) translate(63.000000, 29.000000) translate(25.000000, 0.000000)"/>
                        <path fill="#CEE0FF" d="M58.478 7.263l-.005.02c0 .738-.382 1.476-1.16 1.886-.59.31-1.504.642-2.198.506-.87-.17-.745-.902-.785-1.498-.01-.151.092-.539.06-.688-.03-.145-.254.018-.337-.117-.042-.067-.088-.34-.192-.368-.156-.043-.368.318-.427.41-.273.44-.52 1.188-.406 1.653.137.569.824.965 1.197 1.451.178.233.436.547.78.47.569-.128 1.22-.33 1.738-.565.95-.43 1.867-1.172 2.187-2.049.098-.268.1-.5-.04-.753-.047-.085-.324-.522-.412-.358" transform="translate(-688.000000, -356.000000) translate(625.000000, 327.000000) translate(63.000000, 29.000000) translate(25.000000, 0.000000)"/>
                        <path fill="#E3C498" d="M55.77 7c-.402.184-.746.429-.77.7l.068-.152c.004.378.083.583.028.948-.04.269-.03.808.118 1.05.313.5.738.53 1.333.363.44-.125 1.08-.325 1.453-.678-1.042-.514-1.956-1.306-2.23-2.231" transform="translate(-688.000000, -356.000000) translate(625.000000, 327.000000) translate(63.000000, 29.000000) translate(25.000000, 0.000000)"/>
                        <path fill="#CCBCA8" d="M53.91 5.23c-.137-.071-.647-.27-.644-.096L53.264 5c-.1.227-.14.461-.25.699-.105.23.404.938.52 1.168.206.413.164.334.32.741.258.673.941.417 1.114-.293.162-.669-.313-1.689-1.058-2.085" transform="translate(-688.000000, -356.000000) translate(625.000000, 327.000000) translate(63.000000, 29.000000) translate(25.000000, 0.000000)"/>
                        <path fill="#FFE3B6" d="M58.458 4.152c.653-1.019-.492-2.485-1.438-2.919-.736-.335-1.813-.302-2.524.056-.26.13-.482.268-.709.44-.122.094-.307.171-.404.29-.017.02-.018.022-.028.047l.09-.005c-.233.36-.13.844-.32 1.223-.125.25-.219.557.038.771.236.198.466.3.441.66-.023.299-.093.486-.188.755-.055.15-.433.615-.323.754.147.187.697.034.9.085-.082.053-.071.258-.052.352.01.043.05.077.059.14.005.042-.016.126-.01.174.005.06.042.083.04.154 0 .061-.04.15-.051.217-.021.142-.04.27.04.394.139.218.563.213.8.244.526.067 1.026-.084 1.493-.322.78-.395 1.955-.88 1.752-1.893.45.028.774-.6.857-.947.04-.171.138-.473.029-.635-.126-.181-.32-.089-.492-.035" transform="translate(-688.000000, -356.000000) translate(625.000000, 327.000000) translate(63.000000, 29.000000) translate(25.000000, 0.000000)"/>
                        <path fill="#CEE0FF" d="M58.66 8.018c-.174-.075-.12.098-.143.214-.023.13-.073.263-.129.388-.302.684-1 1.541-1.914 1.658-.54.069-.847-.113-1.019-.553-.135-.346-.067-.636-.106-.98l-.055.014c.028.079-.212.405-.254.545-.08.277-.024.558.033.837.073.351.358.815.814.854.557.05 1.175-.26 1.595-.54.223-.146.393-.36.575-.542.17-.169.358-.328.517-.501.191-.21.456-.412.423-.7-.018-.16-.141-.61-.337-.694" transform="translate(-688.000000, -356.000000) translate(625.000000, 327.000000) translate(63.000000, 29.000000) translate(25.000000, 0.000000)"/>
                        <path fill="#010714" d="M59.36 1.704c-.268-.43-.589-.764-.934-1.14-.433-.476-1.094-.602-1.76-.555-1.415.102-2.06.239-2.306.405-.27.031-.624.24-.833.35-.36.197-.676.522-.907.84-.339.47-.642 1.006-.619 1.587.026.714.834.823 1.413 1.05.637.25 1.223.625 1.622 1.156.166.22.33.446.45.69.08.154.136.343.241.483-.035-.16-.03-.36.05-.51.046.129.015.276.054.408.21-.397.58-.711.859-1.08.066-.003.14-.011.218-.025.243-.172.424-.436.722-.554.1-.042.226-.058.343-.046l.04.027c-.007-.01-.017-.016-.026-.025.035.006.07.013.1.025.153.129.123.592.103.701-.069.34-.286.545-.588.721-.13.075-.14.075-.18.212-.048.157-.09.315-.12.474-.095.51.046 1.039.387 1.462.028-.102.037-.264.027-.378.052.26.42.458.637.59.252.152.514.3.774.428-.024-.13-.133-.248-.18-.377-.06-.17-.066-.353-.015-.523.133-.436.453-.832.64-1.251.301-.669.428-1.321.428-2.045 0-.599 0-1.225-.135-1.815-.11-.473-.244-.865-.505-1.285" transform="translate(-688.000000, -356.000000) translate(625.000000, 327.000000) translate(63.000000, 29.000000) translate(25.000000, 0.000000)"/>
                        <path fill="#F7D5A4" d="M59.003 27.994c-.012.017-.004.014 0 0M61.013 15.992c-.01.005-.02.01-.026.016l.026-.016z" transform="translate(-688.000000, -356.000000) translate(625.000000, 327.000000) translate(63.000000, 29.000000) translate(25.000000, 0.000000)"/>
                        <path fill="#F7D5A4" d="M63.673 16.22c-.025-.158-.033-1.139-.183-1.214-.15-.077-.829.644-.995.688-.388.104-1.153.215-1.503.361l-.14.076c.031-.026.08-.051.14-.076l.008-.004c-.01-.042-.386-.34-.363-.426-.07 1.224.904 3.206.572 4.395-.344 1.235-1.011 2.462-1.53 3.643-.48 1.082-1.26 2.132-1.638 3.244-.174.517.234.508.707.768.216.12.215.252.188.325.023-.03.059-.07.12-.13.364-.362 1.735-1.43 2.03-1.844.37-.517.383-.533.761-1.055.761-1.055 1.353-2.223 1.925-3.372.344-.693.207-1.737.167-2.512-.046-.948-.117-1.932-.266-2.866" transform="translate(-688.000000, -356.000000) translate(625.000000, 327.000000) translate(63.000000, 29.000000) translate(25.000000, 0.000000)"/>
                        <path fill="#9FB7E2" d="M62.974 15c-.25.42-.85.588-1.27.746-.256.1-.981.386-1.253.402-.218.01-.294.065-.451.154.063.102.054.384.062.58.885.383 2.234-.237 2.938-.85-.084-.22.002-.785-.026-1.032" transform="translate(-688.000000, -356.000000) translate(625.000000, 327.000000) translate(63.000000, 29.000000) translate(25.000000, 0.000000)"/>
                        <path fill="#F7D5A4" d="M56.989 31.007c.007-.006.014-.01.022-.014l-.022.014M59.866 25.265c-.172-.192-.365-.357-.54-.546-.124-.133-.273-.358-.427-.42l.053-.299c-.175.373-.65 1.749-.714 1.893-.069.155-.172.276-.28.38-.213.2-.448.31-.643.552-.183.225-.385.42-.584.61-.143.134-.308.217-.447.352-.087.08-.281.25-.284.416-.006.189.337.208.436.175.22-.07.415-.257.638-.33.092-.027.197-.072.294-.045.113.033.11.173.114.308.007.287.032.603-.084.848-.059.121-.128.223-.193.338-.082.138-.138.295-.213.44-.097.19-.253.32-.364.5-.072.115-.125.246-.164.385-.048.171-.027.206.103.159.107-.037.215-.086.308-.166.048-.04.093-.093.14-.144.026-.028.06-.053.088-.076-.028.023-.062.048-.088.076-.006.008-.015.015-.02.023.008-.003.015-.009.02-.009-.052.06-.362.31-.145.296.228-.017.4-.173.589-.315.146-.112.32-.195.422-.374.142-.251.322-.514.533-.653.09-.06.207-.082.254-.212.044-.12.052-.27.087-.396.092-.317.189-.628.271-.952.078-.313.143-.675.176-1.001.028-.29.043-.474.191-.7.14-.216.31-.4.452-.617.04-.062.142-.154.154-.241.012-.099-.084-.2-.133-.255" transform="translate(-688.000000, -356.000000) translate(625.000000, 327.000000) translate(63.000000, 29.000000) translate(25.000000, 0.000000)"/>
                        <path fill="#F7D5A4" d="M58.875 28.251c-.055.118-.109.24-.17.353-.107.195-.2.4-.3.6-.056.112-.094.208-.177.28-.034.03-.123.084-.155.135l-.015.03c0-.009.008-.02.015-.03-.061-.06-.479.708-.546.81-.08.12-.165.213-.255.314-.082.093-.205.15-.272.257.148-.011.303-.12.436-.207.129-.084.221-.294.315-.446.119-.195.266-.432.42-.584.037-.037.106-.113.146-.132.066-.032.123.022.174-.071.018-.03.015-.075.033-.108.022-.037.055-.047.082-.079.08-.101.07-.247.093-.379.028-.176.092-.324.153-.482.057-.143.15-.344.148-.512-.056.05-.09.175-.125.251" transform="translate(-688.000000, -356.000000) translate(625.000000, 327.000000) translate(63.000000, 29.000000) translate(25.000000, 0.000000)"/>
                        <path fill="#F7D5A4" d="M58.002 29.997c-.002.002-.004.004-.004.006l.004-.006z" transform="translate(-688.000000, -356.000000) translate(625.000000, 327.000000) translate(63.000000, 29.000000) translate(25.000000, 0.000000)"/>
                        <path fill="#CEE0FF" d="M62.256 10.798c-.325-.559-.847-.883-1.475-.779-.33.056-1.152.804-1.152.804-.484.704-.434 1.108-.506 1.393-.196.784-.127 1.788-.008 2.59.045.3.079.763.3.996.262.276.75.192 1.076.163.524-.045 1.018-.104 1.48-.391.258-.162.857-.524.968-.822.174-.47-.073-1.387-.135-1.87-.092-.689-.198-1.484-.548-2.084" transform="translate(-688.000000, -356.000000) translate(625.000000, 327.000000) translate(63.000000, 29.000000) translate(25.000000, 0.000000)"/>
                        <path fill="#010714" d="M46.373 28.603c-.49-.571-1.467-.814-2.137-.385l-.127.039c-.272.314-.27 1.192-.366 1.613-.207.923-.499 1.837-.806 2.734-.626 1.826-1.425 3.631-2.275 5.382-.169.349-.693 1.029-.66 1.425.02.306.616.79.88.97 1.382.953 2.8.57 3.272.383.34-.136.516-.663.67-.984.343-.72.627-1.53.881-2.283.486-1.45.99-2.939 1.214-4.441.125-.839.102-1.525-.045-2.32-.131-.72.037-1.508-.501-2.133M50.01 36.05l.01-.007c-.013-.032-.025-.064-.04-.093l.03.1z" transform="translate(-688.000000, -356.000000) translate(625.000000, 327.000000) translate(63.000000, 29.000000) translate(25.000000, 0.000000)"/>
                        <path fill="#010714" d="M49.989 36.002c.007.023.01-.001.022 0l-.004-.014-.018.014M55.354 34.281c-1.247-.83-4.166.37-5.354 1.138.672 1.511.978 3.497 1.309 5.017.272 1.238-.215 3.081 1.422 3.474 2.932.707 2.837-2.946 3.144-4.59.176-.94.115-1.924.115-2.892 0-.622-.007-1.727-.636-2.147" transform="translate(-688.000000, -356.000000) translate(625.000000, 327.000000) translate(63.000000, 29.000000) translate(25.000000, 0.000000)"/>
                        <path fill="#99A2A9" d="M42.408 45.44c-3.49-1.939-9.186-1.917-12.726.05-3.54 1.966-3.58 5.131-.091 7.072 3.49 1.938 9.189 1.914 12.727-.053 3.54-1.965 3.581-5.13.09-7.07" transform="translate(-688.000000, -356.000000) translate(625.000000, 327.000000) translate(63.000000, 29.000000) translate(25.000000, 0.000000)"/>
                        <path fill="#63707B" d="M35 46L36 46 36 37 35 37z" transform="translate(-688.000000, -356.000000) translate(625.000000, 327.000000) translate(63.000000, 29.000000) translate(25.000000, 0.000000)"/>
                        <path fill="#63707B" d="M37.137 44.785c.007-.204-.11-.409-.36-.562-.492-.303-1.299-.296-1.801.014-.249.153-.377.35-.385.548 0 0-.462 3.084-.568 3.825-.091.37.09.758.544 1.04.771.475 2.038.465 2.83-.023.55-.34.726-.82.519-1.244l-.779-3.598z" transform="translate(-688.000000, -356.000000) translate(625.000000, 327.000000) translate(63.000000, 29.000000) translate(25.000000, 0.000000)"/>
                        <path fill="#194A5E" d="M46.447 23.703c-6.173-3.666-16.302-3.594-22.625.16-6.323 3.755-6.443 9.768-.27 13.434 6.175 3.665 16.305 3.594 22.627-.159 6.322-3.754 6.442-9.77.268-13.435" transform="translate(-688.000000, -356.000000) translate(625.000000, 327.000000) translate(63.000000, 29.000000) translate(25.000000, 0.000000)"/>
                        <path fill="#E2E7EC" d="M46.448 23.704c-6.175-3.666-16.305-3.595-22.626.158-6.323 3.755-6.443 9.77-.269 13.435 6.173 3.665 16.303 3.594 22.626-.16 6.322-3.753 6.442-9.768.269-13.433" transform="translate(-688.000000, -356.000000) translate(625.000000, 327.000000) translate(63.000000, 29.000000) translate(25.000000, 0.000000)"/>
                        <path fill="#D6D9DC" d="M44.12 32.658c-2.124.115-4.247.301-6.373.295-2.185-.005-4.43-.165-6.527-.868-1.729-.58-3.395-1.264-4.86-2.425-1.363-1.08-2.554-2.443-3.313-4.073-.24-.514-.436-1.044-.592-1.587-4.962 3.964-4.591 9.6 1.19 13.148 6.3 3.868 16.635 3.792 23.086-.168 2.085-1.282 3.51-2.811 4.269-4.428-.958.057-1.917.075-2.876.078-1.334.004-2.672-.045-4.005.028" transform="translate(-688.000000, -356.000000) translate(625.000000, 327.000000) translate(63.000000, 29.000000) translate(25.000000, 0.000000)"/>
                        <path fill="#FFF" d="M41.445 39L49 34.202 32 33z" transform="translate(-688.000000, -356.000000) translate(625.000000, 327.000000) translate(63.000000, 29.000000) translate(25.000000, 0.000000)"/>
                        <path fill="#0057E4" d="M31 32.444L40.444 38 48 33.557 38.554 28z" transform="translate(-688.000000, -356.000000) translate(625.000000, 327.000000) translate(63.000000, 29.000000) translate(25.000000, 0.000000)"/>
                        <path fill="#010714" d="M30.895 56.545c-1.371.981-2.892 1.667-4.593 2.208-.419.134-.852.224-1.291.273-.28.031-.747.018-.98.099l-.031.073c.018-.002.005-.042.055-.02.395.673 1.688 1.142 2.462.555.182-.138.293-.342.47-.481.18-.14.377-.137.632-.178.566-.09 1.117-.098 1.695-.26.744-.209 1.444-.442 2.106-.77.486-.24 1.07-.433 1.377-.842.252-.332.313-.74-.07-1.006-.648-.448-1.29-.04-1.832.349" transform="translate(-688.000000, -356.000000) translate(625.000000, 327.000000) translate(63.000000, 29.000000) translate(25.000000, 0.000000)"/>
                        <path fill="#181918" d="M31.517 56.027c-.252.043-.472.167-.718.241-.195.059-.387.07-.588.072-.33-.042-.67-.069-.988-.002-.612.127-1.309.49-1.932.682-1.068.327-2.212.762-3.19.916l.08.13c-.617.75.455 1.962 1.594 1.934.696-.019.998-.29 1.535-.58.572-.311.911-.311 1.576-.454 1.15-.249 2.424-.679 3.369-1.271.423-.267.61-.473.637-.636.144-.21.16-.438-.052-.676-.304-.34-.841-.437-1.323-.356" transform="translate(-688.000000, -356.000000) translate(625.000000, 327.000000) translate(63.000000, 29.000000) translate(25.000000, 0.000000)"/>
                        <path fill="#010714" d="M13.688 56.732c-.7-.028-3.613-.963-3.832-.678l-.262.075c-.953 1.124-.807 2.294.785 2.715 1.805.477 3.459-.215 4.968-1.058 1.85-1.033-.721-1.014-1.659-1.054" transform="translate(-688.000000, -356.000000) translate(625.000000, 327.000000) translate(63.000000, 29.000000) translate(25.000000, 0.000000)"/>
                        <path fill="#010714" d="M12.7 48.632c-.842 1.232-1.255 2.862-2.189 3.999l-.469.237c-.287.986-1.651 2.702-.723 3.864.706.884 2.842 1.505 3.933 1.18 1.505-.446 1.882-2.848 2.351-4.118.633-1.715 1.979-3.94 1.118-5.808-.904-1.961-3.17-.597-4.02.646M28.362 48.486c-.186-2.128-.23-4.342-.124-6.485l-.001.003-.085-.002c-.08.096-.175.269-.21.366l.106-.368c-1.1-.001-2.293.43-3.226.92-1.434.756-1.818 1.5-1.693 2.992.14 1.67-.133 3.3-.129 4.96.003 2.102.01 4.176.193 6.258.061.683.042 1.102.74 1.445.986.49 2.252.493 3.328.323 1.922-.301 3.083-1.559 2.648-3.386-.562-2.352-1.333-4.558-1.547-7.026" transform="translate(-688.000000, -356.000000) translate(625.000000, 327.000000) translate(63.000000, 29.000000) translate(25.000000, 0.000000)"/>
                        <path fill="#99A2A9" d="M15.336 59.06c-2.178-1.387-5.66-1.416-7.778-.069-2.119 1.348-2.07 3.564.107 4.95 2.177 1.386 5.659 1.415 7.777.066 2.119-1.346 2.07-3.561-.106-4.947" transform="translate(-688.000000, -356.000000) translate(625.000000, 327.000000) translate(63.000000, 29.000000) translate(25.000000, 0.000000)"/>
                        <path fill="#2F312F" d="M19.685 65.02c-.524-.11-.808.238-.634.78.173.541.738 1.068 1.263 1.18.524.11.809-.238.635-.78-.174-.54-.74-1.07-1.264-1.18" transform="translate(-688.000000, -356.000000) translate(625.000000, 327.000000) translate(63.000000, 29.000000) translate(25.000000, 0.000000)"/>
                        <path fill="#99A2A9" d="M13.84 61L12 62.284l7.775 1.898 1.08.818s.742-.12.77-.201c.028-.08.375-.828.375-.828l-.36-.821-7.8-2.15z" transform="translate(-688.000000, -356.000000) translate(625.000000, 327.000000) translate(63.000000, 29.000000) translate(25.000000, 0.000000)"/>
                        <path fill="#2F312F" d="M3.997 66.156c-.551.367-.999 1.265-.997 2.009.001.742.45 1.047 1.002.68.552-.366 1-1.266.998-2.01-.002-.742-.45-1.047-1.003-.679" transform="translate(-688.000000, -356.000000) translate(625.000000, 327.000000) translate(63.000000, 29.000000) translate(25.000000, 0.000000)"/>
                        <path fill="#99A2A9" d="M2 65.996l.002 1.091s.66.787.723.875c.061.087.835-.003.835-.003l.696-1.311L11 61.957 8.66 61 2 65.996z" transform="translate(-688.000000, -356.000000) translate(625.000000, 327.000000) translate(63.000000, 29.000000) translate(25.000000, 0.000000)"/>
                        <path fill="#2F312F" d="M1.73 58.012c-.711.087-.942.597-.517 1.144.426.545 1.346.918 2.057.832.711-.086.942-.597.517-1.142-.426-.546-1.347-.92-2.057-.834" transform="translate(-688.000000, -356.000000) translate(625.000000, 327.000000) translate(63.000000, 29.000000) translate(25.000000, 0.000000)"/>
                        <path fill="#99A2A9" d="M2.334 56l-.928.629s-.358 1.062-.403 1.168c-.044.109.395.773.395.773l1.443-.11L10 62l-.287-2.714L2.333 56z" transform="translate(-688.000000, -356.000000) translate(625.000000, 327.000000) translate(63.000000, 29.000000) translate(25.000000, 0.000000)"/>
                        <path fill="#2F312F" d="M20.49 57.189c-.623-.323-1.571-.221-2.117.228-.546.45-.486 1.074.137 1.396.621.32 1.57.22 2.117-.23.547-.446.485-1.072-.137-1.394" transform="translate(-688.000000, -356.000000) translate(625.000000, 327.000000) translate(63.000000, 29.000000) translate(25.000000, 0.000000)"/>
                        <path fill="#99A2A9" d="M20.459 56.444L19.428 56l-7.393 3.627L12 62l7.137-3.823 1.52-.06s.395-.62.337-.708c-.057-.088-.535-.965-.535-.965" transform="translate(-688.000000, -356.000000) translate(625.000000, 327.000000) translate(63.000000, 29.000000) translate(25.000000, 0.000000)"/>
                        <path fill="#63707B" d="M11 57L12 57 12 49 11 49z" transform="translate(-688.000000, -356.000000) translate(625.000000, 327.000000) translate(63.000000, 29.000000) translate(25.000000, 0.000000)"/>
                        <path fill="#79858E" d="M19.708 43.18C15.715 41.561 13.496 41 13.496 41L1 46.77l.477 1.325L12.371 54l11.236-6.374.393-1.21s-1.106-1.946-4.292-3.237" transform="translate(-688.000000, -356.000000) translate(625.000000, 327.000000) translate(63.000000, 29.000000) translate(25.000000, 0.000000)"/>
                        <path fill="#63707B" d="M19.807 42.179C15.907 40.563 13.74 40 13.74 40L2 46.82 12.64 53s4.076-3.144 5.59-4.018c1.47-.85 5.77-2.739 5.77-2.739s-1.08-2.772-4.193-4.064M12.137 54.917c.008-.24-.112-.477-.361-.657-.491-.353-1.297-.346-1.8.017-.249.178-.377.41-.384.64 0 0-.461 3.597-.569 4.462-.092.431.09.884.545 1.212.771.555 2.038.544 2.828-.024.552-.398.726-.961.52-1.453l-.779-4.197z" transform="translate(-688.000000, -356.000000) translate(625.000000, 327.000000) translate(63.000000, 29.000000) translate(25.000000, 0.000000)"/>
                        <path fill="#2F312F" d="M9.451 22.294c-.094-.975-.066-1.567.534-2.221l-.11-.057c-1.088-.194-1.59 1.41-1.742 2.177-.347 1.76-.695 3.578-.932 5.37-.104.794-.162 1.573-.162 2.383 0 .457-.124 1.14.068 1.556.51 1.1 1.957.095 2.604-.322.767-.494 1.17-.84 1.255-1.788.11-1.242-.047-2.404-.49-3.551-.427-1.102-.91-2.36-1.025-3.547" transform="translate(-688.000000, -356.000000) translate(625.000000, 327.000000) translate(63.000000, 29.000000) translate(25.000000, 0.000000)"/>
                        <path fill="#010714" d="M19.449 39.933c-.224-1.142-.49-2.302-.656-3.445-.011-.087-.023-.174-.033-.263.062-.562.128-1.123.205-1.683.199-1.451.516-2.876.738-4.324.202-1.318.297-2.851-.067-4.15-.243-.867-.75-1.433-1.317-1.988-.75-.4-1.479-.752-2.03-.968-1.513-.589-2.761-1.422-4.131-2.288-1.3-.821-2.928-1.446-3.649.249-.261 1.493.892 11.233 1.051 11.854.082.325.66-.313.988.927.006.078.002.144-.015.185-.132.496-.962 1.518-1.275 2.018C8.277 37.618 7.549 39.51 7 41.258c1.258.617 2.138 1.45 3.144 1.781.606-1.446 1.046-1.799 1.38-2.66-.294.92-.415 2.025-.622 2.923.69.248 1.334.459 2.106.568.816.115 1.639.13 2.475.13.878 0 1.715.006 2.568-.172.52-.109 1.583-.28 1.949-.696-.198-.382-.138-.995-.201-1.483-.072-.562-.241-1.15-.35-1.716" transform="translate(-688.000000, -356.000000) translate(625.000000, 327.000000) translate(63.000000, 29.000000) translate(25.000000, 0.000000)"/>
                        <path fill="#2F312F" d="M19.046 24.012c-.032-.012-.062-.019-.092-.024.032.007.061.015.092.024" transform="translate(-688.000000, -356.000000) translate(625.000000, 327.000000) translate(63.000000, 29.000000) translate(25.000000, 0.000000)"/>
                        <path fill="#2F312F" d="M19.004 24.002h.004l-.016-.004.012.003z" transform="translate(-688.000000, -356.000000) translate(625.000000, 327.000000) translate(63.000000, 29.000000) translate(25.000000, 0.000000)"/>
                        <path fill="#2F312F" d="M18.952 23.988l.096.024c-.03-.01-.06-.017-.092-.024h-.004" transform="translate(-688.000000, -356.000000) translate(625.000000, 327.000000) translate(63.000000, 29.000000) translate(25.000000, 0.000000)"/>
                        <path fill="#2F312F" d="M21.915 26.38c-.563-.827-1.16-1.944-2.17-2.248l-.438-.11c-1.61-.25-2.338 1.635-2.306 2.357.064 1.478 1.32 3.283 2.12 4.498.79 1.202 1.778 2.589 2.81 3.574.787.752 1.722.702 2.575.03 1.356-1.067-.455-3.67-.964-4.926-.448-1.102-.957-2.193-1.627-3.176" transform="translate(-688.000000, -356.000000) translate(625.000000, 327.000000) translate(63.000000, 29.000000) translate(25.000000, 0.000000)"/>
                        <path fill="#D8B382" d="M16.968 16.936c-.272.009-.252-.212-.47-.287-.652-.227-.788.385-.746.715.047.375-.406.675-.555 1.03-.149.354-.573 1.854.61 1.57.486-.117.542-.491.782-.796.292-.372.674-.717.85-1.14.141-.34-.102-.675.186-.97.176-.181.28-.3.34-.531.039-.155.016-.357.035-.527-.129.231-.368.524-.45.59-.133.106-.37.338-.582.346" transform="translate(-688.000000, -356.000000) translate(625.000000, 327.000000) translate(63.000000, 29.000000) translate(25.000000, 0.000000)"/>
                        <path fill="#D8B382" d="M18.001 15.99c-.005.014-.008.03-.01.048.017-.037.024-.068.01-.076v.028z" transform="translate(-688.000000, -356.000000) translate(625.000000, 327.000000) translate(63.000000, 29.000000) translate(25.000000, 0.000000)"/>
                        <path fill="#F7D5A4" d="M14.799 12.017l.232.053c-2.579-.496-3.898 1.736-3.997 3.704-.06 1.183.408 3.86-1.033 4.501-.061.619 2.189 1.208 2.758 1.337.987.225 2.005.843 2.214-.198.175-.867.087-2.078.565-2.883.257-.434.272-.472.189-.98-.064-.382-.188-.853.302-1.083.16-.076.373-.093.557-.057.076.198.13.403.133.61 1.264-.131 1.403-2.2 1.21-3.02-.34-1.443-1.758-1.85-3.13-1.984" transform="translate(-688.000000, -356.000000) translate(625.000000, 327.000000) translate(63.000000, 29.000000) translate(25.000000, 0.000000)"/>
                        <path fill="#F7D5A4" d="M15.504 22.134c-.185-.174-.403-.321-.532-.56-.268-.488-.232-1.04-.185-1.574l-.045.051c-.29.186-.638.258-.97.305-.333.047-.657.09-.956.285-.307.197-.88.5-.81.99.062.434.519.628.832.754.416.17.84.325 1.27.442.462.124 1.555.378 1.892-.136-.16-.189-.315-.387-.496-.557" transform="translate(-688.000000, -356.000000) translate(625.000000, 327.000000) translate(63.000000, 29.000000) translate(25.000000, 0.000000)"/>
                        <path fill="#693B1C" d="M18.258 13.473c-.137-.28-.357-.508-.657-.722-1.233-.887-3.04-.974-4.384-.336-.691.33-1.14.666-1.49 1.339-.403.774-.739 1.7-.727 2.57.01.791.421 1.372.844 2.009.337.508.375 1.08.296 1.667.222-.302.26-.695.518-.992.215-.247.549-.583.873-.682.272-.085.578.01.842.067.332.076.787.112 1.129.08.756-.069.42-.8.653-1.284.115-.242.32-.44.523-.492.395.057.41.487.435.907.682-.171 1.357-.997 1.36-1.664 0 .144-.003.292.007.436.4-.123.5-1.033.518-1.364.023-.446-.139-.915-.428-1.263-.1-.121-.205-.211-.312-.276" transform="translate(-688.000000, -356.000000) translate(625.000000, 327.000000) translate(63.000000, 29.000000) translate(25.000000, 0.000000)"/>
                        <path fill="#010714" d="M16.821 22.509c-.156-.103-.303-.238-.459-.337-.233-.151-.368-.096-.694-.073-.627.045-1.312.04-1.934-.032-1.157-.133-1.977-.588-2.3-1.534-.045-.131-.311-.71-.538-.48.018-.007.04-.014.054-.021l-.13.132c.024-.05.05-.084.076-.11-.24.091-.711.184-.823.347-.214.312.095 1.072.254 1.354.768 1.369 2.452 2.258 4.316 2.24.894-.007 3.043.12 3.348-.581.107-.243-.819-.675-1.17-.905" transform="translate(-688.000000, -356.000000) translate(625.000000, 327.000000) translate(63.000000, 29.000000) translate(25.000000, 0.000000)"/>
                        <path fill="#010714" d="M10.986 20.017l.028-.034-.012.006c-.005.006-.01.015-.016.028" transform="translate(-688.000000, -356.000000) translate(625.000000, 327.000000) translate(63.000000, 29.000000) translate(25.000000, 0.000000)"/>
                        <path fill="#FFFEFD" d="M16.337 21.18c-.102.303-1.226.238-1.548.225-.591-.022-1.198-.165-1.75-.354-.957-.327-1.477-1.215-1.48-2.051h-.038c-.903.007-.404 1.155-.183 1.474.416.598 1.305 1.101 2.1 1.296.693.17 1.471.25 2.194.226.381-.012 1.09-.08 1.368-.305-.373.025-.465-.379-.663-.51" transform="translate(-688.000000, -356.000000) translate(625.000000, 327.000000) translate(63.000000, 29.000000) translate(25.000000, 0.000000)"/>
                        <path fill="#010714" d="M24.349 40.024c-3.392.167-7.413 1.909-10.311 3.723-.458.287-.822.728-1.26 1.056-.232.175-.99.762-.903.442l-.496-3.538c-.592.645-.357 3.007-.182 3.961.176.97.32 2.198 1.194 2.777 1.67 1.112 4.893.317 6.582-.34 1.66-.645 3.292-1.391 4.946-2.036 1.116-.437 2.64-.66 3.632-1.437.982-.771 1.935-2.2 1.172-3.433-.786-1.273-3.089-1.238-4.374-1.175" transform="translate(-688.000000, -356.000000) translate(625.000000, 327.000000) translate(63.000000, 29.000000) translate(25.000000, 0.000000)"/>
                        <path fill="#2F312F" d="M20.94 44.688c-.589.902-1.076 1.938-1.733 2.823-.59.796-1.297 1.35-2.022 1.76-.55.314-1.79 1.015-1.982.433-.9-1.511-4.216-3.828-.002-6.199 1.759-.99 3.355-1.832 5.048-2.248.914-.223 1.52-.157 1.628.842.09.827-.37 1.723-.936 2.59m.004-4.557c-2.12.52-4.122 1.577-6.327 2.819-5.282 2.97-1.125 5.874.003 7.769.24.729 1.794-.15 2.483-.542.91-.517 1.795-1.208 2.535-2.207.824-1.11 1.434-2.409 2.173-3.54.71-1.083 1.287-2.209 1.174-3.245-.136-1.25-.894-1.334-2.04-1.054" transform="translate(-688.000000, -356.000000) translate(625.000000, 327.000000) translate(63.000000, 29.000000) translate(25.000000, 0.000000)"/>
                        <path fill="#63707B" d="M12.112 37.116c-.5-2.464-2.702-5.43-5.363-7.047-2.661-1.616-4.9-1.353-5.451.475-.073.047-.12.144-.122.281 0 0 .699 6.962.618 9.296C1.744 41.595 1 45.973 1 45.973c-.003.275.174.609.397.743l10.245 6.227c.222.136.404.02.406-.254 0 0 .947-6.14.952-8.198.005-1.755-.774-6.951-.774-6.951 0-.138-.043-.287-.114-.424" transform="translate(-688.000000, -356.000000) translate(625.000000, 327.000000) translate(63.000000, 29.000000) translate(25.000000, 0.000000)"/>
                        <path fill="#86929C" d="M12.065 36.815c-.515-2.361-2.738-5.21-5.41-6.772-2.674-1.563-4.914-1.326-5.452.42-.074.043-.12.137-.12.269 0 0 .741 6.659.676 8.89C1.717 41.032 1 45.214 1 45.214c-.001.263.177.581.4.712l10.292 6.018c.223.131.405.024.407-.24 0 0 .908-5.863.901-7.833-.006-1.677-.818-6.65-.818-6.65 0-.13-.044-.276-.117-.406" transform="translate(-688.000000, -356.000000) translate(625.000000, 327.000000) translate(63.000000, 29.000000) translate(25.000000, 0.000000)"/>
                        <path fill="#99A2A9" d="M9.934 47.312c-1.077-1.02-2.225-2.104-3.023-3.348-1.411-2.201-2.125-4.814-2.687-7.32-.484-2.152-.82-4.533-.312-6.725-.018-.148.02-.304.11-.426.039-.139.082-.276.129-.413l.014-.034c-1.487-.207-2.59.29-2.953 1.416-.077.044-.125.137-.125.269 0 0 .775 6.66.707 8.891C1.749 41.032 1 45.214 1 45.214c-.001.263.186.58.42.712l10.758 6.018c.233.131.424.024.425-.24 0 0 .189-1.165.397-2.633-1.034.42-2.467-1.19-3.066-1.759" transform="translate(-688.000000, -356.000000) translate(625.000000, 327.000000) translate(63.000000, 29.000000) translate(25.000000, 0.000000)"/>
                        <path fill="#2F312F" d="M30.722 28.776c-.508-.377-1.53-.999-2.1-.695-.454.242-.885.751-1.332 1.043-.627.41-1.298.754-1.955 1.113-.644.35-1.345.672-2.011.946.002 1.074.12 1.996-.63 2.925-.481.598-1.051.752-1.652 1.111l-.042.042c.378.06.625.413.944.583.239.128.644.173.918.15.438-.035.77-.37 1.156-.56.566-.277 1.087-.612 1.615-.96 1.305-.861 2.715-1.607 4.067-2.381.48-.276.976-.53 1.438-.835.208-.138.75-.344.826-.53.246-.595-.847-1.66-1.242-1.952" transform="translate(-688.000000, -356.000000) translate(625.000000, 327.000000) translate(63.000000, 29.000000) translate(25.000000, 0.000000)"/>
                        <path fill="#F7D5A4" d="M31.674 27.294c.399-.1.88-.012 1.26-.16-1.198-.242-2.864-.207-3.84.528l-.094.175c1.135.047 2.074 1.206 2.378 2.163.873-.055 1.736-.366 2.533-.791.323-.172 1.975-.904 2.064-1.194.38-1.24-3.678-.66-4.301-.721" transform="translate(-688.000000, -356.000000) translate(625.000000, 327.000000) translate(63.000000, 29.000000) translate(25.000000, 0.000000)"/>
                        <path fill="#FFFEFD" d="M29.426 28.007c-.399-.038-.47.083-.747.273-.163.111-.652.336-.679.453l.056-.024c.756-.448 1.972.233 2.37.767.274.368.514 1.142.175 1.524.311-.072 1.093-.324 1.287-.552.24-.282.047-.822-.143-1.088-.504-.707-1.314-1.262-2.32-1.353" transform="translate(-688.000000, -356.000000) translate(625.000000, 327.000000) translate(63.000000, 29.000000) translate(25.000000, 0.000000)"/>
                    </g>
                </g>
            </g>
        </g>
    </g>
</svg>
