<?xml version="1.0" encoding="UTF-8"?>
<svg width="18px" height="18px" viewBox="0 0 18 18" version="1.1" xmlns="http://www.w3.org/2000/svg" xmlns:xlink="http://www.w3.org/1999/xlink">
    <!-- Generator: Sketch 63.1 (92452) - https://sketch.com -->
    <title>ic_presenters_b</title>
    <desc>Created with Sketch.</desc>
    <g id="Create-Event-Flow" stroke="none" stroke-width="1" fill="none" fill-rule="evenodd">
        <g id="Artboard" transform="translate(-81.000000, -241.000000)" fill="#0057E4">
            <g id="ic/speaker" transform="translate(80.000000, 240.000000)">
                <path d="M10,0.833333333 C13.221661,0.833333333 15.8333333,3.44500563 15.8333333,6.66666667 C15.8333333,8.48145247 15.0046097,10.1026795 13.7049555,11.1725546 L12.2117594,20 L7.50075701,20 L5.95415029,10.9740751 C5.94752628,10.9354177 5.94367974,10.8969264 5.94246612,10.8588056 C4.84778891,9.79809065 4.16666667,8.31192097 4.16666667,6.66666667 C4.16666667,3.44500563 6.77833896,0.833333333 10,0.833333333 Z M7.83504483,12.0850481 L8.90583333,18.3333333 L10.8033333,18.3333333 L11.8405816,12.203678 C11.2619809,12.3959176 10.6431453,12.5 10,12.5 C9.2350236,12.5 8.50443926,12.3527501 7.83504483,12.0850481 Z M13.9757141,7.91730856 L6.02428595,7.91730856 C6.55542727,9.60743829 8.13455207,10.8333333 10,10.8333333 C11.8654479,10.8333333 13.4445727,9.60743829 13.9757141,7.91730856 Z M10,2.5 C7.83965344,2.5 6.063312,4.14412139 5.85396885,6.24937101 L14.1460312,6.24937101 C13.936688,4.14412139 12.1603466,2.5 10,2.5 Z" id="Combined-Shape" transform="translate(10.000000, 10.416667) rotate(45.000000) translate(-10.000000, -10.416667) "></path>
            </g>
        </g>
    </g>
</svg>