<svg xmlns="http://www.w3.org/2000/svg" width="20" height="20" viewBox="0 0 20 20">
    <g fill="none" fill-rule="evenodd">
        <g fill="#283747">
            <g>
                <g>
                    <g>
                        <path d="M14.379 10c2.33 0 4.226 1.741 4.357 3.939h.893c.283 0 .458.31.327.539l-1.525 2.404c-.153.228-.48.228-.632 0l-1.568-2.446c-.153-.249.021-.539.305-.539h.827c-.13-1.45-1.394-2.591-2.962-2.591-1.656 0-2.985 1.264-2.985 2.84 0 1.575 1.329 2.84 2.985 2.84.37 0 .762-.062 1.11-.207.371-.125.763.041.916.373.13.352-.044.725-.393.87-.522.208-1.089.311-1.655.311-2.418 0-4.379-1.865-4.379-4.166S11.96 10 14.379 10zm2.288-8.333c1.377 0 2.5 1.123 2.5 2.5v6.994c-.424-.705-.994-1.313-1.668-1.783V5.767l-7.021 4.916c-.255.178-.585.198-.857.06l-.099-.06L2.5 5.767l.001 8.4c0 .456.377.833.833.833h5.06c.084.589.256 1.149.502 1.667H3.333c-1.376 0-2.5-1.123-2.5-2.5v-10c0-1.377 1.124-2.5 2.5-2.5h13.334zm0 1.666H3.333c-.323 0-.607.19-.745.463L10 8.983l7.411-5.188c-.138-.273-.42-.462-.744-.462z" transform="translate(-1258 -247) translate(280 101) translate(0 131) translate(978 15)"/>
                    </g>
                </g>
            </g>
        </g>
    </g>
</svg>
