<?xml version="1.0" encoding="UTF-8"?>
<svg width="20px" height="20px" viewBox="0 0 20 20" version="1.1" xmlns="http://www.w3.org/2000/svg" xmlns:xlink="http://www.w3.org/1999/xlink">
    <!-- Generator: Sketch 63.1 (92452) - https://sketch.com -->
    <title>ic_settings_b</title>
    <desc>Created with Sketch.</desc>
    <defs>
        <path d="M10,0 C11.3807119,0 12.5,1.11928813 12.5,2.5 L12.5,2.57167641 C12.5008544,2.78756929 12.6298389,2.98233581 12.8364711,3.07094785 C13.0390512,3.16035451 13.2756522,3.11745432 13.427411,2.96907768 L13.4770833,2.91940555 C13.946004,2.44996294 14.5823102,2.18618891 15.2458333,2.18618891 C15.9093565,2.18618891 16.5456627,2.44996294 17.0139278,2.91875 C17.4833704,3.38767064 17.7471444,4.02397688 17.7471444,4.6875 C17.7471444,5.35102312 17.4833704,5.98732936 17.0142557,6.45592232 L16.9707188,6.49938747 C16.815879,6.65768109 16.7729788,6.89428214 16.8623855,7.09686221 C16.88595,7.15025539 16.9037757,7.20582822 16.9156655,7.26264557 C17.0147194,7.40867171 17.1802811,7.49928431 17.3583333,7.5 L17.5,7.5 C18.8807119,7.5 20,8.61928813 20,10 C20,11.3807119 18.8807119,12.5 17.5,12.5 L17.4283236,12.5 C17.2124307,12.5008544 17.0176642,12.6298389 16.9326165,12.8282762 C16.8396455,13.0390512 16.8825457,13.2756522 17.0309223,13.427411 L17.0805945,13.4770833 C17.5500371,13.946004 17.8138111,14.5823102 17.8138111,15.2458333 C17.8138111,15.9093565 17.5500371,16.5456627 17.08125,17.0139278 C16.6123294,17.4833704 15.9760231,17.7471444 15.3125,17.7471444 C14.6489769,17.7471444 14.0126706,17.4833704 13.5440777,17.0142557 L13.5006125,16.9707188 C13.3423189,16.815879 13.1057179,16.7729788 12.8949429,16.8659499 C12.6965055,16.9509975 12.5675211,17.145764 12.5666667,17.3583333 L12.5666667,17.5 C12.5666667,18.8807119 11.4473785,20 10.0666667,20 C8.68595479,20 7.56666667,18.8807119 7.56666667,17.5 C7.56169343,17.2221316 7.42109488,17.025554 7.16352888,16.9290522 C6.96094881,16.8396455 6.72434776,16.8825457 6.57258898,17.0309223 L6.52291667,17.0805945 C6.05399602,17.5500371 5.41768979,17.8138111 4.75416667,17.8138111 C4.09064355,17.8138111 3.45433731,17.5500371 2.98607221,17.08125 C2.51662961,16.6123294 2.25285557,15.9760231 2.25285557,15.3125 C2.25285557,14.6489769 2.51662961,14.0126706 2.98574435,13.5440777 L3.02928118,13.5006125 C3.18412099,13.3423189 3.22702118,13.1057179 3.13405014,12.8949429 C3.04900248,12.6965055 2.85423595,12.5675211 2.64166667,12.5666667 L2.5,12.5666667 C1.11928813,12.5666667 0,11.4473785 0,10.0666667 C0,8.68595479 1.11928813,7.56666667 2.5,7.56666667 C2.77786838,7.56169343 2.97444599,7.42109488 3.07094785,7.16352888 C3.16035451,6.96094881 3.11745432,6.72434776 2.96907768,6.57258898 L2.91940555,6.52291667 C2.44996294,6.05399602 2.18618891,5.41768979 2.18618891,4.75416667 C2.18618891,4.09064355 2.44996294,3.45433731 2.91875,2.98607221 C3.38767064,2.51662961 4.02397688,2.25285557 4.6875,2.25285557 C5.35102312,2.25285557 5.98732936,2.51662961 6.45592232,2.98574435 L6.49938747,3.02928118 C6.65768109,3.18412099 6.89428214,3.22702118 7.09686221,3.13761451 C7.15025539,3.11404998 7.20582822,3.09622426 7.26264557,3.08433455 C7.40867171,2.98528062 7.49928431,2.81971892 7.5,2.64166667 L7.5,2.5 C7.5,1.11928813 8.61928813,0 10,0 Z M10,1.66666667 C9.53976271,1.66666667 9.16666667,2.03976271 9.16666667,2.5 L9.16666667,2.64499026 C9.16314958,3.52516892 8.63728989,4.31921705 7.8282762,4.66594986 C7.75785944,4.69612957 7.6837794,4.71638628 7.60815494,4.72628508 C6.82059817,5.00236504 5.93719152,4.81079764 5.32741102,4.21425565 L5.27708333,4.16392779 C5.12077645,4.00744692 4.90867437,3.91952224 4.6875,3.91952224 C4.46632563,3.91952224 4.25422355,4.00744692 4.09726112,4.16458333 C3.94078025,4.32089021 3.85285557,4.53299229 3.85285557,4.75416667 C3.85285557,4.97534104 3.94078025,5.18744312 4.09758898,5.34407768 L4.15405215,5.40061253 C4.78532214,6.04596347 4.96022292,7.01056774 4.61544675,7.78765091 C4.30244538,8.63869141 3.50101358,9.21190091 2.575,9.23333333 L2.5,9.23333333 C2.03976271,9.23333333 1.66666667,9.60642938 1.66666667,10.0666667 C1.66666667,10.526904 2.03976271,10.9 2.5,10.9 L2.64499026,10.9000066 C3.52516892,10.9035171 4.31921705,11.4293768 4.66238549,12.2301955 C5.02688958,13.0560989 4.85198881,14.0207032 4.21425565,14.672589 L4.16392779,14.7229167 C4.00744692,14.8792235 3.91952224,15.0913256 3.91952224,15.3125 C3.91952224,15.5336744 4.00744692,15.7457765 4.16458333,15.9027389 C4.32089021,16.0592197 4.53299229,16.1471444 4.75416667,16.1471444 C4.97534104,16.1471444 5.18744312,16.0592197 5.34407768,15.902411 L5.40061253,15.8459478 C6.04596347,15.2146779 7.01056774,15.0397771 7.78765091,15.3845532 C8.63869141,15.6975546 9.21190091,16.4989864 9.23333333,17.425 L9.23333333,17.5 C9.23333333,17.9602373 9.60642938,18.3333333 10.0666667,18.3333333 C10.526904,18.3333333 10.9,17.9602373 10.9,17.5 L10.9000066,17.3550097 C10.9035171,16.4748311 11.4293768,15.6807829 12.2301955,15.3376145 C13.0560989,14.9731104 14.0207032,15.1480112 14.672589,15.7857443 L14.7229167,15.8360722 C14.8792235,15.9925531 15.0913256,16.0804778 15.3125,16.0804778 C15.5336744,16.0804778 15.7457765,15.9925531 15.9027389,15.8354167 C16.0592197,15.6791098 16.1471444,15.4670077 16.1471444,15.2458333 C16.1471444,15.024659 16.0592197,14.8125569 15.902411,14.6559223 L15.8459478,14.5993875 C15.2146779,13.9540365 15.0397771,12.9894323 15.4042812,12.1635289 C15.7474496,11.3627101 16.5414977,10.8368504 17.425,10.8333333 L17.5,10.8333333 C17.9602373,10.8333333 18.3333333,10.4602373 18.3333333,10 C18.3333333,9.53976271 17.9602373,9.16666667 17.5,9.16666667 L17.3550097,9.16666667 C16.4748311,9.16314958 15.6807829,8.63728989 15.3340501,7.8282762 C15.3038704,7.75785944 15.2836137,7.6837794 15.2737149,7.60815494 C14.997635,6.82059817 15.1892024,5.93719152 15.7857443,5.32741102 L15.8360722,5.27708333 C15.9925531,5.12077645 16.0804778,4.90867437 16.0804778,4.6875 C16.0804778,4.46632563 15.9925531,4.25422355 15.8354167,4.09726112 C15.6791098,3.94078025 15.4670077,3.85285557 15.2458333,3.85285557 C15.024659,3.85285557 14.8125569,3.94078025 14.6559223,4.09758898 L14.5993875,4.15405215 C13.9540365,4.78532214 12.9894323,4.96022292 12.1717238,4.59928319 C11.3627101,4.25255038 10.8368504,3.45850225 10.8333333,2.575 L10.8333333,2.5 C10.8333333,2.03976271 10.4602373,1.66666667 10,1.66666667 Z M10,6.66666667 C11.8409492,6.66666667 13.3333333,8.15905083 13.3333333,10 C13.3333333,11.8409492 11.8409492,13.3333333 10,13.3333333 C8.15905083,13.3333333 6.66666667,11.8409492 6.66666667,10 C6.66666667,8.15905083 8.15905083,6.66666667 10,6.66666667 Z M10,11.6666667 C10.9204746,11.6666667 11.6666667,10.9204746 11.6666667,10 C11.6666667,9.07952542 10.9204746,8.33333333 10,8.33333333 C9.07952542,8.33333333 8.33333333,9.07952542 8.33333333,10 C8.33333333,10.9204746 9.07952542,11.6666667 10,11.6666667 Z" id="path-1"></path>
    </defs>
    <g id="Create-Event-Flow" stroke="none" stroke-width="1" fill="none" fill-rule="evenodd">
        <g id="Artboard" transform="translate(-80.000000, -420.000000)">
            <g id="ic/settings" transform="translate(80.000000, 420.000000)">
                <mask id="mask-2" fill="white">
                    <use xlink:href="#path-1"></use>
                </mask>
                <use id="Combined-Shape" fill="#0057E4" fill-rule="evenodd" xlink:href="#path-1"></use>
            </g>
        </g>
    </g>
</svg>