<?xml version="1.0" encoding="UTF-8"?>
<svg width="20px" height="20px" viewBox="0 0 20 20" version="1.1" xmlns="http://www.w3.org/2000/svg" xmlns:xlink="http://www.w3.org/1999/xlink">
    <title>ic/sorting-grey copy</title>
    <defs>
        <path d="M9.85536541,2.51257532 C9.94899392,2.49615998 10.0448889,2.49581561 10.1386125,2.51154219 C10.1984379,2.52151234 10.2558467,2.53781872 10.3104015,2.55972859 C10.3163994,2.56214187 10.3221462,2.56452198 10.3278713,2.56696916 C10.3546194,2.57842704 10.3808527,2.59135103 10.4062649,2.60556747 C10.4155142,2.61067044 10.4242728,2.61578477 10.4329556,2.62107229 C10.4518947,2.6326873 10.4705393,2.64509812 10.4886357,2.65821875 C10.5237558,2.68361117 10.5574701,2.71229218 10.5892557,2.74407768 L10.5291517,2.68953001 C10.5453544,2.70286271 10.561045,2.71679515 10.5761896,2.73129338 L10.5892557,2.74407768 L15.5892557,7.74407768 C15.9146926,8.06951459 15.9146926,8.59715207 15.5892557,8.92258898 C15.2638187,9.24802589 14.7361813,9.24802589 14.4107443,8.92258898 L14.4107443,8.92258898 L10.8326667,5.344 L10.8333333,16.6666667 C10.8333333,17.0915011 10.515429,17.442085 10.1045316,17.4935072 L10,17.5 C9.53976271,17.5 9.16666667,17.126904 9.16666667,16.6666667 L9.16666667,16.6666667 L9.16666667,5.344 L5.58925565,8.92258898 C5.29093848,9.22090615 4.82271667,9.24576592 4.49608206,8.99716828 L4.41074435,8.92258898 C4.08530744,8.59715207 4.08530744,8.06951459 4.41074435,7.74407768 L4.41074435,7.74407768 L9.41074435,2.74407768 C9.41361585,2.74120618 9.4165031,2.73836001 9.4194058,2.73553919 C9.43760141,2.71786409 9.45662925,2.70098825 9.47640331,2.68499868 C9.48793671,2.67560864 9.49971893,2.66658196 9.51167956,2.65791226 C9.52608297,2.64755238 9.54099666,2.63746104 9.55624369,2.62785032 C9.57029411,2.61891951 9.58416136,2.61074945 9.59820441,2.60301492 C9.61657783,2.59294291 9.63573211,2.58331106 9.65529084,2.57441308 C9.6682729,2.56850763 9.68074334,2.56322493 9.69331011,2.55825961 C9.71538669,2.54948387 9.73860114,2.54143356 9.76225533,2.53440512 C9.7723213,2.53149355 9.78143536,2.52897075 9.79058177,2.52660564 C9.79139497,2.52632168 9.79310223,2.52588359 9.79481159,2.52545077 Z" id="path-1"></path>
    </defs>
    <g id="Admin-Portal" stroke="none" stroke-width="1" fill="none" fill-rule="evenodd">
        <g id="icons-library" transform="translate(-937.000000, -333.000000)">
            <g id="Group" transform="translate(933.000000, 331.000000)">
                <g id="ic/sorting-grey-copy" transform="translate(10.000000, 10.000000) scale(1, -1) translate(-10.000000, -10.000000) ">
                    <mask id="mask-2" fill="white">
                        <use xlink:href="#path-1"></use>
                    </mask>
                    <use id="Combined-Shape" fill="#8A9FBA" xlink:href="#path-1"></use>
                </g>
            </g>
        </g>
    </g>
</svg>