<svg xmlns="http://www.w3.org/2000/svg" width="20" height="20" viewBox="0 0 20 20">
    <g fill="none" fill-rule="evenodd">
        <g fill="#8A9FBA">
            <g>
                <g>
                    <path d="M11 1.833c3.222 0 5.833 2.612 5.833 5.834 0 1.814-.828 3.436-2.128 4.506L13.212 21H8.5l-1.547-9.026c-.006-.039-.01-.077-.012-.115-1.094-1.06-1.775-2.547-1.775-4.192 0-3.222 2.611-5.834 5.833-5.834zM8.835 13.085l1.07 6.248h1.898l1.038-6.13c-.579.193-1.198.297-1.841.297-.765 0-1.496-.147-2.165-.415zm6.14-4.168h-7.95c.53 1.69 2.11 2.916 3.975 2.916 1.865 0 3.445-1.226 3.976-2.916zM11 3.5c-2.16 0-3.937 1.644-4.146 3.75h8.292C14.936 5.143 13.16 3.5 11 3.5z" transform="translate(-29 -329) translate(0 310) translate(29 19) rotate(45 11 11.417)"/>
                </g>
            </g>
        </g>
    </g>
</svg>
