<svg width="152" height="32" viewBox="0 0 152 32" fill="none" xmlns="http://www.w3.org/2000/svg">
<g clip-path="url(#clip0)">
<path d="M151.985 31.9103L148.035 21.3241L140.173 0.253932H140.165H140.175C139.435 0.144394 138.689 0.0885933 137.942 0.086949H137.854C137.107 0.0867649 136.361 0.140721 135.621 0.248412H135.63H135.622L130.074 15.1886C131.586 14.9399 133.123 14.9065 134.644 15.0892L137.897 6.34812L142.311 18.1501L142.612 18.9574C140.877 17.7402 136.749 16.3533 134.195 16.294C132.188 16.127 129.613 16.4168 129.613 16.4168C124.646 17.1151 121.077 19.3866 117.619 23.3431C116.571 24.5065 115.809 25.162 114.293 26.157C112.587 27.2762 110.572 27.675 108.544 27.6598H108.516H108.159C106.198 27.6538 104.272 27.1285 102.568 26.1349C100.864 25.1412 99.4397 23.7131 98.4341 21.9892C97.4284 20.2653 96.8753 18.3044 96.8286 16.2969C96.7818 14.2895 97.243 12.3037 98.1672 10.5327C99.0915 8.76174 100.447 7.2657 102.103 6.19C103.759 5.11431 105.658 4.49553 107.617 4.39382C109.575 4.2921 111.526 4.71091 113.28 5.60953C115.033 6.50815 116.53 7.85603 117.625 9.52217L121.878 8.32569C120.525 5.81665 118.54 3.72523 116.129 2.26955C113.718 0.813879 110.97 0.0472734 108.171 0.0496883C99.5339 0.0496883 92.5383 7.20235 92.5383 16.0248C92.5383 24.8473 99.546 32 108.171 32C115.79 32.0221 119.426 27.5674 120.777 26.1791C125.314 20.9129 128.93 20.5913 132.598 20.5279C138.986 20.5279 144.457 24.5451 146.801 30.2005L147.161 31.1665C147.248 31.4245 147.332 31.6867 147.407 31.9517H152L151.985 31.9103Z" fill="#0057e4"/>
<path d="M41.0261 0C37.9414 4.71631e-08 34.9258 0.936695 32.3609 2.69164C29.7959 4.44659 27.7968 6.94098 26.6161 9.85939C25.4355 12.7778 25.1265 15.9892 25.7281 19.0874C26.3297 22.1857 27.815 25.0317 29.9961 27.2656C32.1771 29.4995 34.9561 31.0209 37.9816 31.6376C41.007 32.2542 44.1431 31.9383 46.9932 30.7298C49.8433 29.5213 52.2795 27.4745 53.9937 24.8482C55.7079 22.2219 56.6232 19.1341 56.6237 15.9752C56.6241 13.8774 56.2209 11.8001 55.4372 9.86194C54.6535 7.92376 53.5046 6.16265 52.0562 4.67918C50.6078 3.19572 48.8883 2.01895 46.9957 1.21609C45.1031 0.41323 43.0747 -3.13198e-08 41.0261 0V0ZM41.0261 27.6129C38.7776 27.6129 36.5795 26.9301 34.7099 25.6508C32.8403 24.3715 31.3832 22.5532 30.5227 20.4259C29.6623 18.2985 29.4373 15.9576 29.876 13.6993C30.3148 11.441 31.3977 9.36657 32.9878 7.73848C34.5778 6.11038 36.6037 5.00171 38.8091 4.55266C41.0145 4.10361 43.3004 4.33436 45.3777 5.21572C47.455 6.09708 49.2305 7.58946 50.4795 9.50414C51.7285 11.4188 52.3951 13.6698 52.3948 15.9724C52.3952 17.5014 52.1014 19.0155 51.5302 20.4282C50.959 21.8409 50.1216 23.1245 49.0659 24.2058C48.0101 25.287 46.7567 26.1446 45.3773 26.7297C43.9978 27.3148 42.5193 27.6158 41.0261 27.6157V27.6129Z" fill="#0057e4"/>
<path d="M75.872 4.34144C77.7359 4.34224 79.571 4.8121 81.216 5.70969C82.8609 6.60728 84.2653 7.90509 85.3054 9.48893L89.5545 8.28969C87.8837 5.17851 85.2497 2.72484 82.0674 1.31509C78.8851 -0.0946673 75.3353 -0.380409 71.977 0.502859C68.6187 1.38613 65.6427 3.38822 63.5177 6.19385C61.3926 8.99949 60.2393 12.4493 60.2393 15.9999C60.2393 19.5505 61.3926 23.0003 63.5177 25.8059C65.6427 28.6115 68.6187 30.6136 71.977 31.4969C75.3353 32.3802 78.8851 32.0944 82.0674 30.6847C85.2497 29.2749 87.8837 26.8213 89.5545 23.7101L85.3054 22.5122C84.2076 24.1823 82.7062 25.5329 80.9474 26.4324C79.1886 27.332 77.2323 27.7498 75.269 27.6454C73.3056 27.5409 71.4022 26.9176 69.7439 25.8362C68.0856 24.7549 66.729 23.2522 65.8061 21.4746C64.8833 19.697 64.4256 17.7049 64.4777 15.6924C64.5297 13.6799 65.0898 11.7155 66.1033 9.99039C67.1168 8.2653 68.5492 6.83833 70.2611 5.8484C71.973 4.85846 73.906 4.3393 75.872 4.34144V4.34144Z" fill="#0057e4"/>
<path d="M14.7378 5.55188H10.1882V26.0273H14.7378V5.55188Z" fill="#0057e4"/>
<path d="M24.7844 0V0.00828014V0H0.146896C0.0486409 0.703934 -0.000447862 1.41415 3.07858e-06 2.12524C3.07858e-06 2.13904 3.07858e-06 2.15422 3.07858e-06 2.16802C3.07858e-06 2.18182 3.07858e-06 2.19562 3.07858e-06 2.20942C-0.000319853 2.92004 0.0487684 3.62979 0.146896 4.33328H24.779V4.32362V4.3319C24.8789 3.62854 24.9298 2.9188 24.9313 2.20804C24.9313 2.19424 24.9313 2.18044 24.9313 2.16664C24.9313 2.15284 24.9313 2.13766 24.9313 2.12386C24.9317 1.41323 24.8826 0.703477 24.7844 0V0Z" fill="#0057e4"/>
<path d="M127.319 22.6021L123.816 31.9476H128.346L132.089 21.8624C131.024 21.8169 129.207 21.8638 127.319 22.6021Z" fill="#0057e4"/>
<path d="M14.7378 27.2444H10.1882V31.9033H14.7378V27.2444Z" fill="#49826C"/>
</g>
<defs>
<clipPath id="clip0">
<rect width="152" height="32" fill="white"/>
</clipPath>
</defs>
</svg>
