<svg xmlns="http://www.w3.org/2000/svg" width="20" height="20" viewBox="0 0 20 20">
    <g fill="none" fill-rule="evenodd">
        <g fill="#0057E4">
            <g>
                <path d="M9.855 2.513c.094-.017.19-.017.284-.001.06.01.117.026.171.048l.018.007c.027.011.053.024.078.039l.027.015.056.037c.035.026.068.054.1.086l-.06-.054.047.041.013.013 5 5c.326.326.326.853 0 1.179-.325.325-.853.325-1.178 0l-3.578-3.579v11.323c0 .425-.318.775-.728.827L10 17.5c-.46 0-.833-.373-.833-.833V5.344L5.589 8.923c-.298.298-.766.323-1.093.074l-.085-.074c-.326-.326-.326-.853 0-1.179l5-5 .008-.008.057-.051.036-.027.044-.03c.014-.01.028-.017.042-.025l.057-.029.038-.016c.022-.009.046-.017.07-.024l.028-.007.004-.002z" transform="translate(-864 -345) translate(864 345)"/>
            </g>
        </g>
    </g>
</svg>
