<?xml version="1.0" encoding="UTF-8"?>
<svg width="20px" height="18px" viewBox="0 0 20 18" version="1.1" xmlns="http://www.w3.org/2000/svg" xmlns:xlink="http://www.w3.org/1999/xlink">
    <!-- Generator: Sketch 63.1 (92452) - https://sketch.com -->
    <title>ic_users_b</title>
    <desc>Created with Sketch.</desc>
    <defs>
        <path d="M10.8333333,11.6666667 C13.1345198,11.6666667 15,13.5321469 15,15.8333333 L15,15.8333333 L15,17.5 C15,17.9602373 14.626904,18.3333333 14.1666667,18.3333333 C13.7064294,18.3333333 13.3333333,17.9602373 13.3333333,17.5 L13.3333333,17.5 L13.3333333,15.8333333 C13.3333333,14.4526215 12.2140452,13.3333333 10.8333333,13.3333333 L10.8333333,13.3333333 L4.16666667,13.3333333 C2.78595479,13.3333333 1.66666667,14.4526215 1.66666667,15.8333333 L1.66666667,15.8333333 L1.66666667,17.5 C1.66666667,17.9602373 1.29357062,18.3333333 0.833333333,18.3333333 C0.373096042,18.3333333 0,17.9602373 0,17.5 L0,17.5 L0,15.8333333 C0,13.5321469 1.86548021,11.6666667 4.16666667,11.6666667 L4.16666667,11.6666667 Z M15.8597951,12.4000002 C15.9748543,11.9543774 16.4293769,11.6864025 16.8749998,11.8014617 C18.7135402,12.2761703 19.9985834,13.9338761 20,15.8333333 L20,15.8333333 L20,17.5 C20,17.9602373 19.626904,18.3333333 19.1666667,18.3333333 C18.7064294,18.3333333 18.3333333,17.9602373 18.3333333,17.5 L18.3333333,17.5 L18.3333336,15.8339549 C18.3324838,14.6946535 17.5614578,13.70003 16.4583336,13.4152049 C16.0127107,13.3001457 15.7447359,12.8456231 15.8597951,12.4000002 Z M7.5,1.66666667 C9.80118646,1.66666667 11.6666667,3.53214688 11.6666667,5.83333333 C11.6666667,8.13451979 9.80118646,10 7.5,10 C5.19881354,10 3.33333333,8.13451979 3.33333333,5.83333333 C3.33333333,3.53214688 5.19881354,1.66666667 7.5,1.66666667 Z M12.5260417,2.40163401 C12.6401985,1.95577914 13.0941778,1.68688478 13.5400327,1.80104167 C15.3836939,2.27309353 16.6732027,3.93436578 16.6732027,5.8375 C16.6732027,7.74063422 15.3836939,9.40190647 13.5400327,9.87395833 C13.0941778,9.98811522 12.6401985,9.71922086 12.5260417,9.27336599 C12.4118848,8.82751111 12.6807791,8.37353188 13.126634,8.259375 C14.2328308,7.97614388 15.006536,6.97938053 15.006536,5.8375 C15.006536,4.69561947 14.2328308,3.69885612 13.126634,3.415625 C12.6807791,3.30146812 12.4118848,2.84748889 12.5260417,2.40163401 Z M7.5,3.33333333 C6.11928813,3.33333333 5,4.45262146 5,5.83333333 C5,7.21404521 6.11928813,8.33333333 7.5,8.33333333 C8.88071187,8.33333333 10,7.21404521 10,5.83333333 C10,4.45262146 8.88071187,3.33333333 7.5,3.33333333 Z" id="path-1"></path>
    </defs>
    <g id="Create-Event-Flow" stroke="none" stroke-width="1" fill="none" fill-rule="evenodd">
        <g id="Artboard" transform="translate(-80.000000, -121.000000)">
            <g id="ic/users" transform="translate(80.000000, 120.000000)">
                <mask id="mask-2" fill="white">
                    <use xlink:href="#path-1"></use>
                </mask>
                <use id="Combined-Shape" fill="#0057E4" fill-rule="evenodd" xlink:href="#path-1"></use>
            </g>
        </g>
    </g>
</svg>