<?xml version="1.0" encoding="UTF-8"?>
<svg width="20px" height="16px" viewBox="0 0 20 16" version="1.1" xmlns="http://www.w3.org/2000/svg" xmlns:xlink="http://www.w3.org/1999/xlink">
    <!-- Generator: Sketch 63.1 (92452) - https://sketch.com -->
    <title>ic_breakout_b</title>
    <desc>Created with Sketch.</desc>
    <g id="Create-Event-Flow" stroke="none" stroke-width="1" fill="none" fill-rule="evenodd">
        <g id="Artboard" transform="translate(-80.000000, -362.000000)" fill="#0057E4">
            <g id="ic/BreakoutRoom" transform="translate(80.000000, 360.000000)">
                <path d="M13.1874,2.53833334 C14.6275377,2.53833334 15.795,3.7057956 15.795,5.14593328 L15.795,5.14593328 L15.7943333,6.30833334 L17.6358279,5.58280566 C18.5098302,5.23788242 19.4979645,5.66678571 19.8428878,6.54078796 C19.9017497,6.68993836 19.9391318,6.84640735 19.9541441,7.00551409 L19.9616667,7.16532672 L19.9616667,12.8344776 C19.9616667,13.7740796 19.1999687,14.5357776 18.2603667,14.5357776 C18.0999629,14.5357776 17.9406378,14.5130943 17.7870772,14.4686193 L17.6356117,14.4169133 L15.7943333,13.6893333 L15.795,14.8540667 C15.795,16.2388145 14.7156155,17.3714585 13.3523088,17.4565365 L13.1874,17.4616667 L2.64593328,17.4616667 C1.2057956,17.4616667 0.0383333447,16.2942044 0.0383333447,14.8540667 L0.0383333447,14.8540667 L0.0383333447,5.14593328 C0.0383333447,3.7057956 1.2057956,2.53833334 2.64593328,2.53833334 L2.64593328,2.53833334 Z M7.91666667,7.54999995 C6.62924072,7.54999995 6.09166662,8.17034755 6.09166662,9.79166667 C6.09166662,10.7614389 6.29736011,11.3782682 6.65546233,11.845244 C6.61582488,11.7935556 7.48610113,12.6612772 7.5665673,13.106936 C7.64467734,13.5395455 7.47236926,13.9039228 7.16164739,14.190743 C6.72289816,14.5957423 6.24339458,14.8715319 5.48703803,15.2029745 L4.8892648,15.4562061 C4.51093496,15.6149459 4.22126462,15.7488737 4.00202123,15.8722012 L11.8309784,15.8720136 C11.6811013,15.7877256 11.498329,15.6984838 11.2768427,15.5997524 L10.581744,15.3042618 C9.68624701,14.9253977 9.1543101,14.6362422 8.67168594,14.190743 C8.36096407,13.9039228 8.18865599,13.5395455 8.26676603,13.106936 C8.3472322,12.6612772 9.21750845,11.7935556 9.177871,11.845244 C9.53597322,11.3782682 9.74166671,10.7614389 9.74166671,9.79166667 C9.74166671,8.17034755 9.20409261,7.54999995 7.91666667,7.54999995 Z M13.1874,4.12833332 L2.64593328,4.12833332 C2.08392834,4.12833332 1.62833332,4.58392834 1.62833332,5.14593328 L1.62833332,5.14593328 L1.62833332,14.8540667 C1.62833332,15.1001462 1.71568066,15.3258247 1.86106224,15.501789 C2.19513781,14.8424475 2.88526602,14.3978183 4.00765613,13.9115407 L4.56322543,13.6772197 C4.95484992,13.5115324 5.24952648,13.3728019 5.48356628,13.2374704 L5.50583333,13.2225 L5.45349368,13.1652885 L5.38105768,13.0812875 L5.25355127,12.920305 C4.65689551,12.1422484 4.32500005,11.1469673 4.32500005,9.79166667 C4.32500005,7.2463842 5.59283479,5.78333338 7.91666667,5.78333338 C10.2404985,5.78333338 11.5083333,7.2463842 11.5083333,9.79166667 C11.5083333,11.1469673 11.1764378,12.1422484 10.5797821,12.920305 C10.5284679,12.9872202 10.4865122,13.0404703 10.4443747,13.0907529 L10.3266667,13.2225 L10.3497671,13.2374704 C10.5448002,13.3502467 10.7819422,13.4653833 11.0822065,13.5965134 L11.6275981,13.8271272 C12.8672413,14.3472572 13.6186926,14.8044566 13.972316,15.4994562 C14.1179807,15.3249762 14.205,15.0996837 14.205,14.8540667 L14.205,14.8540667 L14.205,5.14593328 C14.205,4.58392834 13.749405,4.12833332 13.1874,4.12833332 L13.1874,4.12833332 Z M18.2543153,7.05416112 L18.219509,7.06179731 L15.7943333,8.01833334 L15.7943333,11.9803333 L18.2194949,12.9380014 C18.2325089,12.9431395 18.2463751,12.9457776 18.2603667,12.9457776 C18.3095421,12.9457776 18.3512689,12.9138859 18.3659925,12.869657 L18.3716667,12.8344776 L18.3716667,7.16532672 C18.3716667,7.15134022 18.3690305,7.13747905 18.3638961,7.12446904 C18.345844,7.07872687 18.3008613,7.05162062 18.2543153,7.05416112 Z" id="Combined-Shape"></path>
            </g>
        </g>
    </g>
</svg>